<?xml version="1.0" encoding="UTF-8" standalone="no"?>
<!-- Generator: Adobe Illustrator 19.0.0, SVG Export Plug-In . SVG Version: 6.00 Build 0)  -->

<svg
   xmlns:dc="http://purl.org/dc/elements/1.1/"
   xmlns:cc="http://creativecommons.org/ns#"
   xmlns:rdf="http://www.w3.org/1999/02/22-rdf-syntax-ns#"
   xmlns:svg="http://www.w3.org/2000/svg"
   xmlns="http://www.w3.org/2000/svg"
   xmlns:sodipodi="http://sodipodi.sourceforge.net/DTD/sodipodi-0.dtd"
   xmlns:inkscape="http://www.inkscape.org/namespaces/inkscape"
   version="1.1"
   id="Layer_1"
   x="0px"
   y="0px"
   viewBox="0 0 512 512"
   style="enable-background:new 0 0 512 512;"
   xml:space="preserve"
   sodipodi:docname="forecast_today_yield.svg"
   inkscape:version="0.92.4 (unknown)"><metadata
   id="metadata116"><rdf:RDF><cc:Work
       rdf:about=""><dc:format>image/svg+xml</dc:format><dc:type
         rdf:resource="http://purl.org/dc/dcmitype/StillImage" /></cc:Work></rdf:RDF></metadata><defs
   id="defs114" /><sodipodi:namedview
   pagecolor="#ffffff"
   bordercolor="#666666"
   borderopacity="1"
   objecttolerance="10"
   gridtolerance="10"
   guidetolerance="10"
   inkscape:pageopacity="0"
   inkscape:pageshadow="2"
   inkscape:window-width="640"
   inkscape:window-height="480"
   id="namedview112"
   showgrid="false"
   inkscape:zoom="0.4609375"
   inkscape:cx="256"
   inkscape:cy="256"
   inkscape:window-x="65"
   inkscape:window-y="24"
   inkscape:window-maximized="0"
   inkscape:current-layer="Layer_1" />




















<g
   id="g145"
   transform="matrix(0.74994123,0,0,0.74994123,65.084768,69.317678)"><path
     id="path57"
     d="M 314.892,102.988 168.168,249.712 c -5.376,5.376 -1.568,14.567 6.034,14.567 H 230.4 l -47.38,135.373 c -2.997,8.564 7.673,15.269 14.089,8.853 L 343.834,261.78 c 5.376,-5.376 1.568,-14.567 -6.034,-14.567 H 281.6 L 328.98,111.84 c 2.998,-8.564 -7.671,-15.268 -14.088,-8.852 z"
     style="fill:#ffc552"
     inkscape:connector-curvature="0" /><g
     id="g71">
	<path
   id="path59"
   d="m 179.195,355.792 c -1.937,0 -3.886,-0.656 -5.485,-2 C 144.66,329.388 128,293.651 128,255.746 c 0,-32.597 12.259,-63.65 34.519,-87.44 22.153,-23.673 52.107,-37.964 84.346,-40.24 4.721,-0.334 8.782,3.211 9.113,7.911 0.332,4.701 -3.21,8.781 -7.911,9.114 -57.756,4.077 -102.999,52.682 -102.999,110.655 0,32.851 14.442,63.825 39.621,84.979 2.599,2.183 3.665,5.804 2.667,9.047 -1.091,3.541 -4.458,6.02 -8.161,6.02 z"
   style="fill:#d1cdb2"
   inkscape:connector-curvature="0" />
	<path
   id="path61"
   d="m 183.522,119.214 c -3.13,0 -6.141,-1.727 -7.637,-4.716 -2.11,-4.213 -0.403,-9.341 3.811,-11.45 C 203.512,91.126 229.184,85.08 256,85.08 c 9.029,0 18.092,0.711 26.938,2.114 4.655,0.738 7.829,5.11 7.091,9.765 -0.738,4.654 -5.107,7.834 -9.765,7.09 -7.964,-1.264 -16.127,-1.904 -24.263,-1.904 -24.14,0 -47.243,5.438 -68.666,16.162 -1.226,0.616 -2.53,0.907 -3.813,0.907 z"
   style="fill:#d1cdb2"
   inkscape:connector-curvature="0" />
	<path
   id="path63"
   d="m 162.127,396.494 c -1.711,0 -3.438,-0.513 -4.939,-1.58 -44.993,-32.001 -71.855,-84.027 -71.855,-139.168 0,-51.506 22.916,-99.737 62.874,-132.323 3.652,-2.979 9.027,-2.433 12.006,1.22 2.978,3.652 2.432,9.027 -1.22,12.005 -35.965,29.333 -56.593,72.742 -56.593,119.098 0,49.628 24.179,96.454 64.679,125.26 3.028,2.155 4.342,6.227 3.12,9.74 -1.173,3.374 -4.496,5.748 -8.072,5.748 z"
   style="fill:#d1cdb2"
   inkscape:connector-curvature="0" />
	<path
   id="path65"
   d="m 256,383.746 c -4.713,0 -8.533,-3.821 -8.533,-8.533 0,-4.712 3.821,-8.533 8.533,-8.533 22.822,0 44.74,-6.874 63.385,-19.879 3.865,-2.697 9.184,-1.749 11.881,2.116 2.697,3.866 1.748,9.185 -2.117,11.882 -21.523,15.012 -46.817,22.947 -73.149,22.947 z"
   style="fill:#d1cdb2"
   inkscape:connector-curvature="0" />
	<path
   id="path67"
   d="m 347.51,341.08 c -7.137,0 -11.091,-8.592 -6.53,-14.022 16.737,-19.921 25.954,-45.246 25.954,-71.311 0,-32.851 -14.442,-63.825 -39.621,-84.979 -3.609,-3.031 -4.076,-8.414 -1.044,-12.022 3.033,-3.611 8.415,-4.076 12.022,-1.044 29.05,24.404 45.71,60.141 45.71,98.046 0,30.074 -10.638,59.298 -29.953,82.289 -1.689,2.007 -4.106,3.043 -6.538,3.043 z"
   style="fill:#d1cdb2"
   inkscape:connector-curvature="0" />
	<path
   id="path69"
   d="m 256,426.413 c -9.029,0 -18.092,-0.711 -26.938,-2.114 -4.655,-0.738 -7.829,-5.11 -7.091,-9.765 0.739,-4.654 5.11,-7.827 9.765,-7.09 7.964,1.264 16.127,1.904 24.263,1.904 84.695,0 153.6,-68.906 153.6,-153.6 0,-28.658 -7.941,-56.611 -22.965,-80.835 -2.484,-4.005 -1.25,-9.266 2.755,-11.75 4.005,-2.485 9.266,-1.25 11.749,2.754 16.7,26.927 25.527,57.99 25.527,89.83 0.002,94.106 -76.559,170.666 -170.665,170.666 z"
   style="fill:#d1cdb2"
   inkscape:connector-curvature="0" />
</g><path
     id="path73"
     d="M 445.351,83.462 463.3,65.513 c 5.376,-5.376 1.568,-14.567 -6.034,-14.567 h -81.798 c -4.713,0 -8.533,3.821 -8.533,8.533 v 81.799 c 0,7.602 9.191,11.41 14.567,6.034 l 15.499,-15.5 c 28.819,32.762 46.41,75.642 46.73,122.629 0.705,103.669 -83.715,188.852 -187.388,189.037 -103.839,0.186 -188.075,-83.936 -188.075,-187.732 0,-49.686 19.306,-94.861 50.821,-128.441 3.36,-3.58 6.862,-7.027 10.496,-10.336 L 87.426,63.101 C 80.502,69.165 73.906,75.594 67.672,82.362 24.533,129.191 -1.369,192.143 0.056,261.16 2.925,400.124 117.313,511.91 256.308,511.747 397.551,511.58 512,397.029 512,255.746 512,189.395 486.757,128.942 445.351,83.462 Z"
     style="fill:#58ab23"
     inkscape:connector-curvature="0" /><path
     id="path75"
     d="M 119.088,127.306 C 136.943,108.282 158.804,92.976 183.21,82.686 201.289,75.064 220.912,70.19 241.263,68.591 249.561,67.939 256,61.097 256,52.774 V 16.126 C 256,7 248.314,-0.302 239.207,0.287 210.16,2.165 182.504,8.883 156.914,19.635 122.767,33.983 92.391,55.527 67.672,82.361 27.494,125.977 2.281,183.58 0.158,247.039 l 68.14,6.123 c 0.658,-48.667 19.823,-92.861 50.79,-125.856 z"
     style="fill:#66bf00"
     inkscape:connector-curvature="0" /><path
     id="path77"
     d="M 183.21,82.686 C 201.289,75.064 220.912,70.19 241.263,68.591 249.561,67.939 256,61.097 256,52.774 V 16.126 C 256,7 248.314,-0.302 239.207,0.287 210.16,2.165 182.504,8.883 156.914,19.635 131.379,30.365 107.955,45.12 87.426,63.101 l 42.159,53.869 c 15.676,-14.271 33.812,-25.93 53.625,-34.284 z"
     style="fill:#b6e462"
     inkscape:connector-curvature="0" /><path
     id="path79"
     d="M 445.351,83.462 463.3,65.513 c 5.376,-5.376 1.568,-14.567 -6.034,-14.567 h -81.798 c -4.713,0 -8.533,3.821 -8.533,8.533 v 81.799 c 0,7.602 9.191,11.41 14.567,6.034 l 15.499,-15.5 c 28.819,32.762 46.41,75.642 46.73,122.629 0.705,103.669 -83.715,188.852 -187.388,189.037 -103.839,0.186 -188.075,-83.936 -188.075,-187.732 0,-0.864 0.019,-1.724 0.031,-2.585 L 0.159,247.038 C 0.002,251.715 -0.04,256.421 0.058,261.159 2.927,400.123 117.315,511.909 256.31,511.746 397.551,511.58 512,397.029 512,255.746 512,189.395 486.757,128.942 445.351,83.462 Z"
     style="fill:#58ab23"
     inkscape:connector-curvature="0" /><g
     id="g81">
</g><g
     id="g83">
</g><g
     id="g85">
</g><g
     id="g87">
</g><g
     id="g89">
</g><g
     id="g91">
</g><g
     id="g93">
</g><g
     id="g95">
</g><g
     id="g97">
</g><g
     id="g99">
</g><g
     id="g101">
</g><g
     id="g103">
</g><g
     id="g105">
</g><g
     id="g107">
</g><g
     id="g109">
</g></g>
</svg>