<svg id="Solar" xmlns="http://www.w3.org/2000/svg" viewBox="0 0 75 75"><defs><style>.cls-1{fill:#d1cdb2;}.cls-2{fill:#58ab23;}.cls-3{fill:#66bf00;}.cls-4{fill:#b6e462;}.cls-5{fill:#5d5360;}.cls-6{fill:#6f6571;}.cls-7{fill:#aea8af;}.cls-8{fill:#dbd9dc;}.cls-9{fill:#5a78be;}.cls-10{fill:#9c969e;}</style></defs><title>today&amp;apos;s-Solar</title><g id="_75X75" data-name="75X75"><g id="SolarToday"><g id="g145"><g id="g71"><path id="path59" class="cls-1" d="M27.22,52.22a1.23,1.23,0,0,1-.79-.28A18.28,18.28,0,0,1,36.88,19.7a1.22,1.22,0,1,1,.18,2.43A15.84,15.84,0,0,0,28,50.07a1.22,1.22,0,0,1-.78,2.15Z"/><path id="path61" class="cls-1" d="M27.84,18.43a1.22,1.22,0,0,1-.55-2.31,24.16,24.16,0,0,1,10.9-2.56,24.77,24.77,0,0,1,3.85.3,1.21,1.21,0,0,1,1,1.39,1.23,1.23,0,0,1-1.4,1A21,21,0,0,0,38.19,16a21.74,21.74,0,0,0-9.81,2.31,1.16,1.16,0,0,1-.54.13Z"/><path id="path63" class="cls-1" d="M24.78,58a1.27,1.27,0,0,1-.71-.23A24.38,24.38,0,0,1,22.79,19a1.23,1.23,0,0,1,1.72.18,1.22,1.22,0,0,1-.18,1.71,22,22,0,0,0,1.16,34.91A1.22,1.22,0,0,1,24.78,58Z"/><path id="path65" class="cls-1" d="M38.19,56.22a1.22,1.22,0,0,1,0-2.44,15.71,15.71,0,0,0,9.05-2.84,1.22,1.22,0,1,1,1.4,2A18.23,18.23,0,0,1,38.19,56.22Z"/><path id="path67" class="cls-1" d="M51.26,50.12a1.23,1.23,0,0,1-.93-2A15.86,15.86,0,0,0,48.38,25.8a1.22,1.22,0,0,1,1.56-1.87,18.28,18.28,0,0,1,2.25,25.76,1.22,1.22,0,0,1-.93.43Z"/><path id="path69" class="cls-1" d="M38.19,62.31a24.68,24.68,0,0,1-3.85-.3,1.22,1.22,0,0,1,.38-2.41,22.34,22.34,0,0,0,3.47.27A21.94,21.94,0,0,0,56.85,26.39a1.22,1.22,0,1,1,2.07-1.29A24.38,24.38,0,0,1,38.19,62.31Z"/></g><path id="path73" class="cls-2" d="M65.24,13.32l2.56-2.56a1.22,1.22,0,0,0-.86-2.08H55.25A1.22,1.22,0,0,0,54,9.9V21.58a1.22,1.22,0,0,0,2.09.86l2.21-2.21a26.82,26.82,0,1,1-39.7-.64c.48-.51,1-1,1.5-1.48l-6-7.69a34.84,34.84,0,0,0-2.82,2.75,36.56,36.56,0,1,0,54,.15Z"/><path id="path75" class="cls-3" d="M18.63,19.59A26.74,26.74,0,0,1,36.08,11.2a2.27,2.27,0,0,0,2.11-2.26V3.71a2.27,2.27,0,0,0-2.4-2.27A36.58,36.58,0,0,0,1.65,36.69l9.73.87A26.69,26.69,0,0,1,18.63,19.59Z"/><path id="path77" class="cls-4" d="M27.79,13.21a27.07,27.07,0,0,1,8.29-2,2.27,2.27,0,0,0,2.11-2.26V3.71a2.27,2.27,0,0,0-2.4-2.27,36.49,36.49,0,0,0-21.68,9l6,7.69A27.07,27.07,0,0,1,27.79,13.21Z"/><path id="path79" class="cls-2" d="M65.24,13.32l2.56-2.56a1.22,1.22,0,0,0-.86-2.08H55.25A1.22,1.22,0,0,0,54,9.9V21.58a1.22,1.22,0,0,0,2.09.86l2.21-2.21a26.82,26.82,0,1,1-47,17.7c0-.12,0-.24,0-.37l-9.73-.87c0,.67,0,1.34,0,2A36.57,36.57,0,1,0,65.24,13.32Z"/></g><g id="g120"><g id="g81"><rect id="rect2" class="cls-5" x="36.86" y="43.57" width="2.58" height="3.87"/><path id="path4" class="cls-6" d="M39.44,47.45H37.72V45.72a.86.86,0,0,1,.86-.86h.86Z"/><path id="path6" class="cls-7" d="M41.59,49.17H34.71a.43.43,0,0,1-.43-.43v-.86a.43.43,0,0,1,.43-.43h6.88a.43.43,0,0,1,.43.43v.86A.43.43,0,0,1,41.59,49.17Z"/><path id="path8" class="cls-8" d="M51.89,42,49.74,29.09A1.72,1.72,0,0,0,48,27.65H28.25a1.73,1.73,0,0,0-1.7,1.44L24.4,42a1.71,1.71,0,0,0,.39,1.39A1.69,1.69,0,0,0,26.1,44H50.19a1.72,1.72,0,0,0,1.32-.61A1.67,1.67,0,0,0,51.89,42Z"/><g id="g42"><path id="path10" class="cls-9" d="M26.6,36.26H31a.43.43,0,0,1,.43.46l-.18,2.16a.43.43,0,0,1-.43.39H26.24a.43.43,0,0,1-.43-.5l.36-2.15a.44.44,0,0,1,.43-.36Z"/><path id="path12" class="cls-9" d="M27.24,32.39h4.07a.43.43,0,0,1,.43.46L31.56,35a.43.43,0,0,1-.43.4H26.88a.43.43,0,0,1-.42-.5l.36-2.15A.42.42,0,0,1,27.24,32.39Z"/><path id="path14" class="cls-9" d="M49.41,35.4H45.17a.43.43,0,0,1-.43-.4l-.18-2.15a.42.42,0,0,1,.43-.46h4.06a.44.44,0,0,1,.43.36l.36,2.15A.43.43,0,0,1,49.41,35.4Z"/><path id="path16" class="cls-9" d="M43.44,35.4H39a.43.43,0,0,1-.43-.43V32.82a.43.43,0,0,1,.43-.43h4.25a.43.43,0,0,1,.43.39l.18,2.15A.44.44,0,0,1,43.44,35.4Z"/><path id="path18" class="cls-9" d="M38.58,31.1V28.94a.43.43,0,0,1,.43-.43h3.92a.43.43,0,0,1,.43.4l.18,2.15a.43.43,0,0,1-.43.47H39a.43.43,0,0,1-.43-.43Z"/><path id="path20" class="cls-9" d="M37.29,31.53H33.18a.44.44,0,0,1-.43-.47l.18-2.15a.43.43,0,0,1,.43-.4h3.93a.44.44,0,0,1,.43.43V31.1A.44.44,0,0,1,37.29,31.53Z"/><path id="path22" class="cls-9" d="M37.72,32.82V35a.43.43,0,0,1-.43.43H32.85a.42.42,0,0,1-.42-.47l.18-2.15a.43.43,0,0,1,.43-.39h4.25A.43.43,0,0,1,37.72,32.82Z"/><path id="path24" class="cls-9" d="M32.71,36.26h4.58a.43.43,0,0,1,.43.43v2.15a.43.43,0,0,1-.43.43H32.53a.43.43,0,0,1-.43-.47l.18-2.15A.43.43,0,0,1,32.71,36.26Z"/><path id="path26" class="cls-9" d="M37.72,40.56v2.15a.43.43,0,0,1-.43.43H32.2a.43.43,0,0,1-.43-.46L32,40.52a.43.43,0,0,1,.43-.39h4.91A.43.43,0,0,1,37.72,40.56Z"/><path id="path28" class="cls-9" d="M39,40.13h4.9a.43.43,0,0,1,.43.39l.18,2.16a.41.41,0,0,1-.42.46H39a.43.43,0,0,1-.43-.43V40.56a.43.43,0,0,1,.43-.43Z"/><path id="path30" class="cls-9" d="M38.58,38.84V36.69a.43.43,0,0,1,.43-.43h4.58a.42.42,0,0,1,.42.39l.19,2.15a.44.44,0,0,1-.43.47H39a.43.43,0,0,1-.43-.43Z"/><path id="path32" class="cls-9" d="M45.31,36.26H49.7a.42.42,0,0,1,.42.36l.36,2.15a.43.43,0,0,1-.42.5H45.49a.42.42,0,0,1-.42-.39l-.19-2.16a.43.43,0,0,1,.43-.46Z"/><path id="path34" class="cls-9" d="M48.83,28.87,49.19,31a.44.44,0,0,1-.42.51H44.84a.44.44,0,0,1-.43-.4L44.23,29a.44.44,0,0,1,.43-.47h3.75a.43.43,0,0,1,.42.36Z"/><path id="path36" class="cls-9" d="M27.46,28.87a.45.45,0,0,1,.43-.36h3.75a.44.44,0,0,1,.43.47l-.19,2.15a.44.44,0,0,1-.43.4H27.53A.44.44,0,0,1,27.1,31Z"/><path id="path38" class="cls-9" d="M25.44,42.84a.89.89,0,0,1-.19-.7l.28-1.65a.42.42,0,0,1,.42-.36h4.7a.43.43,0,0,1,.43.47l-.18,2.15a.43.43,0,0,1-.43.39H26.1A.89.89,0,0,1,25.44,42.84Z"/><path id="path40" class="cls-9" d="M50.85,42.84a.86.86,0,0,1-.66.3H45.82a.43.43,0,0,1-.43-.39l-.18-2.15a.44.44,0,0,1,.43-.47h4.7a.44.44,0,0,1,.43.36L51,42.14a.82.82,0,0,1-.19.7Z"/></g><path id="path44" class="cls-10" d="M36.43,48.74v-.86a.43.43,0,0,1,.43-.43H34.71a.43.43,0,0,0-.43.43v.86a.43.43,0,0,0,.43.43h2.15A.43.43,0,0,1,36.43,48.74Z"/></g></g></g></g></svg>