<svg id="Solar" xmlns="http://www.w3.org/2000/svg" viewBox="0 0 75 75"><defs><style>.cls-1{fill:#d1cdb2;}.cls-2{fill:#58ab23;}.cls-3{fill:#66bf00;}.cls-4{fill:#b6e462;}.cls-5{fill:#4eaf63;}.cls-6{fill:#fff;}</style></defs><title>today_load</title><g id="_75X75" data-name="75X75"><g id="SolarToday"><g id="g145"><g id="g71"><path id="path61" class="cls-1" d="M27.84,18.43a1.22,1.22,0,0,1-.55-2.31,24.16,24.16,0,0,1,10.9-2.56,24.77,24.77,0,0,1,3.85.3,1.21,1.21,0,0,1,1,1.39,1.23,1.23,0,0,1-1.4,1A21,21,0,0,0,38.19,16a21.74,21.74,0,0,0-9.81,2.31,1.16,1.16,0,0,1-.54.13Z"/><path id="path63" class="cls-1" d="M24.78,58a1.27,1.27,0,0,1-.71-.23A24.38,24.38,0,0,1,22.79,19a1.23,1.23,0,0,1,1.72.18,1.22,1.22,0,0,1-.18,1.71,22,22,0,0,0,1.16,34.91A1.22,1.22,0,0,1,24.78,58Z"/><path id="path69" class="cls-1" d="M38.19,62.31a24.68,24.68,0,0,1-3.85-.3,1.22,1.22,0,0,1,.38-2.41,22.34,22.34,0,0,0,3.47.27A21.94,21.94,0,0,0,56.85,26.39a1.22,1.22,0,1,1,2.07-1.29A24.38,24.38,0,0,1,38.19,62.31Z"/></g><path id="path73" class="cls-2" d="M65.24,13.32l2.56-2.56a1.22,1.22,0,0,0-.86-2.08H55.25A1.22,1.22,0,0,0,54,9.9V21.58a1.22,1.22,0,0,0,2.09.86l2.21-2.21a26.82,26.82,0,1,1-39.7-.64c.48-.51,1-1,1.5-1.48l-6-7.69a34.84,34.84,0,0,0-2.82,2.75,36.56,36.56,0,1,0,54,.15Z"/><path id="path75" class="cls-3" d="M18.63,19.59A26.74,26.74,0,0,1,36.08,11.2a2.27,2.27,0,0,0,2.11-2.26V3.71a2.27,2.27,0,0,0-2.4-2.27A36.58,36.58,0,0,0,1.65,36.69l9.73.87A26.69,26.69,0,0,1,18.63,19.59Z"/><path id="path77" class="cls-4" d="M27.79,13.21a27.07,27.07,0,0,1,8.29-2,2.27,2.27,0,0,0,2.11-2.26V3.71a2.27,2.27,0,0,0-2.4-2.27,36.49,36.49,0,0,0-21.68,9l6,7.69A27.07,27.07,0,0,1,27.79,13.21Z"/><path id="path79" class="cls-2" d="M65.24,13.32l2.56-2.56a1.22,1.22,0,0,0-.86-2.08H55.25A1.22,1.22,0,0,0,54,9.9V21.58a1.22,1.22,0,0,0,2.09.86l2.21-2.21a26.82,26.82,0,1,1-47,17.7c0-.12,0-.24,0-.37l-9.73-.87c0,.67,0,1.34,0,2A36.57,36.57,0,1,0,65.24,13.32Z"/></g><path class="cls-5" d="M19.1,31.24c-.19,0-.33,0-.48,0-.42,0-.62-.18-.62-.54s.19-.51.64-.52h2.15v-.4c0-1.18,0-2.37,0-3.55,0-.43.18-.61.55-.59s.5.22.5.66c0,1.13,0,2.27,0,3.41v.45h4.21V26.22c0-.42.2-.61.57-.58s.49.23.49.64v3.9h2.24a.52.52,0,0,1,.55.51.53.53,0,0,1-.52.54c-.18,0-.36,0-.59,0v4.21a4.3,4.3,0,0,1-2.22,4,4,4,0,0,1-2.07.54c0,.11,0,.2,0,.3,0,2.41,0,4.83,0,7.25a5.23,5.23,0,0,0,1.74,3.72,5.75,5.75,0,0,0,4.25,1.59q12,0,24.06,0a1.17,1.17,0,0,1,.6.09.68.68,0,0,1,.29.51c0,.16-.24.32-.41.44s-.21,0-.32,0q-12.19,0-24.4,0a6.66,6.66,0,0,1-5.15-2.22,6.35,6.35,0,0,1-1.66-3.53,14.27,14.27,0,0,1-.07-1.46c0-2.08,0-4.15,0-6.23v-.39a17,17,0,0,1-1.67-.42,4.23,4.23,0,0,1-2.64-3.77c0-1.39,0-2.78,0-4.18Zm1.1,0c0,.06,0,.09,0,.12,0,1.54,0,3.08,0,4.61a3.24,3.24,0,0,0,2.1,2.73,6.4,6.4,0,0,0,2.42.17,3,3,0,0,0,1.09-.26,3.22,3.22,0,0,0,1.95-3.1c0-1.31,0-2.63,0-4,0-.1,0-.21,0-.32Z"/><path class="cls-5" d="M55.49,36.17c0,2.87,0,5.74,0,8.61a2.92,2.92,0,0,1-2.14,2.83,3.8,3.8,0,0,1-.89.11h-17a2.89,2.89,0,0,1-2.93-2.16,3.67,3.67,0,0,1-.12-.94q0-8.48,0-17A2.92,2.92,0,0,1,33.9,25a2.8,2.8,0,0,1,1.47-.35h6.19c3.63,0,7.26,0,10.88,0a3,3,0,0,1,3,2.24,4.57,4.57,0,0,1,.07.83Zm-1.05,0c0-2.83,0-5.67,0-8.5a2,2,0,0,0-2.07-2.06c-5.62,0-11.23,0-16.85,0a2,2,0,0,0-2.11,2.11q0,8.39,0,16.78a2,2,0,0,0,2.13,2.14c5.6,0,11.21,0,16.81,0a2,2,0,0,0,2.09-2.08C54.4,41.8,54.44,39,54.44,36.21Z"/><path class="cls-6" d="M20.2,31.26h7.52c0,.11,0,.22,0,.32,0,1.32,0,2.64,0,4a3.22,3.22,0,0,1-1.95,3.1,3,3,0,0,1-1.09.26,6.4,6.4,0,0,1-2.42-.17A3.24,3.24,0,0,1,20.18,36c0-1.53,0-3.07,0-4.61C20.17,31.35,20.19,31.32,20.2,31.26Z"/><path class="cls-6" d="M54.44,36.21c0,2.8,0,5.59,0,8.39a2,2,0,0,1-2.09,2.08c-5.6,0-11.21,0-16.81,0a2,2,0,0,1-2.13-2.14q0-8.4,0-16.78a2,2,0,0,1,2.11-2.11c5.62,0,11.23,0,16.85,0a2,2,0,0,1,2.07,2.06C54.4,30.54,54.44,33.38,54.44,36.21ZM44,43.14a7,7,0,1,0-7-6.87A7,7,0,0,0,44,43.14Z"/><path class="cls-5" d="M44,43.14a7,7,0,1,1,7-7.06A7,7,0,0,1,44,43.14Zm0-1.07A5.92,5.92,0,1,0,38,36.17,5.94,5.94,0,0,0,44,42.07Z"/><path class="cls-6" d="M44,42.07a5.92,5.92,0,1,1,5.91-6A5.95,5.95,0,0,1,44,42.07Zm-1.45-5.92V34.83c0-.41-.15-.54-.56-.55H40.5c-.42,0-.63.16-.64.57,0,.86,0,1.71,0,2.57,0,.48.21.64.7.64h1.35c.43,0,.6-.18.61-.6Zm5.49,0c0-.44,0-.88,0-1.32s-.16-.57-.57-.58H46c-.42,0-.62.17-.63.59,0,.86,0,1.73,0,2.59,0,.41.22.59.63.6H47.4c.41,0,.61-.2.61-.6S48,36.61,48,36.18Z"/><path class="cls-5" d="M42.52,36.15v1.31c0,.42-.18.59-.61.6H40.56c-.49,0-.69-.16-.7-.64,0-.86,0-1.71,0-2.57,0-.41.22-.57.64-.57H42c.41,0,.55.14.56.55Zm-1.59-.8V37h.5V35.35Z"/><path class="cls-5" d="M48,36.18c0,.43,0,.85,0,1.28s-.2.59-.61.6H46c-.41,0-.62-.19-.63-.6,0-.86,0-1.73,0-2.59,0-.42.21-.59.63-.59h1.46c.41,0,.57.17.57.58S48,35.74,48,36.18Zm-1.58-.82V37h.5V35.36Z"/><path class="cls-6" d="M40.93,35.35h.5V37h-.5Z"/><path class="cls-6" d="M46.43,35.36h.5V37h-.5Z"/></g></g></svg>