<?xml version="1.0" encoding="UTF-8" standalone="no"?>
<!-- Generator: Adobe Illustrator 18.0.0, SVG Export Plug-In . SVG Version: 6.00 Build 0)  -->

<svg
   xmlns:dc="http://purl.org/dc/elements/1.1/"
   xmlns:cc="http://creativecommons.org/ns#"
   xmlns:rdf="http://www.w3.org/1999/02/22-rdf-syntax-ns#"
   xmlns:svg="http://www.w3.org/2000/svg"
   xmlns="http://www.w3.org/2000/svg"
   xmlns:sodipodi="http://sodipodi.sourceforge.net/DTD/sodipodi-0.dtd"
   xmlns:inkscape="http://www.inkscape.org/namespaces/inkscape"
   version="1.1"
   id="Capa_1"
   x="0px"
   y="0px"
   viewBox="0 0 60 60"
   style="enable-background:new 0 0 60 60;"
   xml:space="preserve"
   sodipodi:docname="forecast_new_today.svg"
   inkscape:version="0.92.4 (unknown)"><metadata
   id="metadata55"><rdf:RDF><cc:Work
       rdf:about=""><dc:format>image/svg+xml</dc:format><dc:type
         rdf:resource="http://purl.org/dc/dcmitype/StillImage" /></cc:Work></rdf:RDF></metadata><defs
   id="defs53" /><sodipodi:namedview
   pagecolor="#ffffff"
   bordercolor="#666666"
   borderopacity="1"
   objecttolerance="10"
   gridtolerance="10"
   guidetolerance="10"
   inkscape:pageopacity="0"
   inkscape:pageshadow="2"
   inkscape:window-width="640"
   inkscape:window-height="480"
   id="namedview51"
   showgrid="false"
   inkscape:zoom="3.9333333"
   inkscape:cx="30"
   inkscape:cy="30"
   inkscape:window-x="75"
   inkscape:window-y="34"
   inkscape:window-maximized="0"
   inkscape:current-layer="Capa_1" />
<g
   id="g18"
   transform="matrix(0.75423729,0,0,0.75423729,7.3728814,6.9702959)">
	<rect
   x="3"
   y="42.5"
   style="fill:#7ed09e"
   width="10"
   height="14"
   id="rect2" />
	<rect
   x="18"
   y="33.5"
   style="fill:#71c285"
   width="10"
   height="23"
   id="rect4" />
	<rect
   x="33"
   y="25.5"
   style="fill:#4fba6f"
   width="10"
   height="31"
   id="rect6" />
	<rect
   x="48"
   y="17.5"
   style="fill:#24ae5f"
   width="10"
   height="39"
   id="rect8" />
	<path
   style="fill:#556080"
   d="M 59,57.5 H 1 c -0.552,0 -1,-0.447 -1,-1 0,-0.553 0.448,-1 1,-1 h 58 c 0.552,0 1,0.447 1,1 0,0.553 -0.448,1 -1,1 z"
   id="path10"
   inkscape:connector-curvature="0" />
	<path
   style="fill:#bdc3c7"
   d="M 8.03,27.83 C 7.684,27.83 7.348,27.651 7.163,27.33 6.887,26.851 7.051,26.24 7.529,25.964 L 46.5,3.464 C 46.978,3.187 47.589,3.352 47.866,3.83 48.142,4.309 47.978,4.92 47.5,5.196 L 8.529,27.696 C 8.372,27.787 8.199,27.83 8.03,27.83 Z"
   id="path12"
   inkscape:connector-curvature="0" />
	<path
   style="fill:#bdc3c7"
   d="m 47.001,5.33 c -0.032,0 -0.064,-0.002 -0.098,-0.005 L 38.341,4.495 C 37.792,4.442 37.389,3.953 37.443,3.403 37.496,2.854 37.98,2.449 38.535,2.505 l 8.562,0.83 c 0.549,0.053 0.952,0.542 0.898,1.092 -0.05,0.516 -0.485,0.903 -0.994,0.903 z"
   id="path14"
   inkscape:connector-curvature="0" />
	<path
   style="fill:#bdc3c7"
   d="m 43.437,13.16 c -0.139,0 -0.279,-0.028 -0.414,-0.09 -0.503,-0.229 -0.725,-0.821 -0.496,-1.324 l 3.562,-7.83 c 0.229,-0.503 0.822,-0.727 1.324,-0.496 0.503,0.229 0.725,0.821 0.496,1.324 l -3.562,7.83 c -0.166,0.368 -0.53,0.586 -0.91,0.586 z"
   id="path16"
   inkscape:connector-curvature="0" />
</g>
<g
   id="g20">
</g>
<g
   id="g22">
</g>
<g
   id="g24">
</g>
<g
   id="g26">
</g>
<g
   id="g28">
</g>
<g
   id="g30">
</g>
<g
   id="g32">
</g>
<g
   id="g34">
</g>
<g
   id="g36">
</g>
<g
   id="g38">
</g>
<g
   id="g40">
</g>
<g
   id="g42">
</g>
<g
   id="g44">
</g>
<g
   id="g46">
</g>
<g
   id="g48">
</g>
</svg>