<?xml version="1.0" encoding="UTF-8" standalone="no"?>
<!-- Generator: Adobe Illustrator 19.0.0, SVG Export Plug-In . SVG Version: 6.00 Build 0)  -->

<svg
   xmlns:dc="http://purl.org/dc/elements/1.1/"
   xmlns:cc="http://creativecommons.org/ns#"
   xmlns:rdf="http://www.w3.org/1999/02/22-rdf-syntax-ns#"
   xmlns:svg="http://www.w3.org/2000/svg"
   xmlns="http://www.w3.org/2000/svg"
   xmlns:sodipodi="http://sodipodi.sourceforge.net/DTD/sodipodi-0.dtd"
   xmlns:inkscape="http://www.inkscape.org/namespaces/inkscape"
   version="1.1"
   id="Layer_1"
   x="0px"
   y="0px"
   viewBox="0 0 512 512"
   style="enable-background:new 0 0 512 512;"
   xml:space="preserve"
   sodipodi:docname="forecast_yield_weekly.svg"
   inkscape:version="0.92.4 (unknown)"><metadata
   id="metadata65"><rdf:RDF><cc:Work
       rdf:about=""><dc:format>image/svg+xml</dc:format><dc:type
         rdf:resource="http://purl.org/dc/dcmitype/StillImage" /></cc:Work></rdf:RDF></metadata><defs
   id="defs63" /><sodipodi:namedview
   pagecolor="#ffffff"
   bordercolor="#666666"
   borderopacity="1"
   objecttolerance="10"
   gridtolerance="10"
   guidetolerance="10"
   inkscape:pageopacity="0"
   inkscape:pageshadow="2"
   inkscape:window-width="630"
   inkscape:window-height="645"
   id="namedview61"
   showgrid="false"
   inkscape:zoom="0.65186406"
   inkscape:cx="242.45882"
   inkscape:cy="288.98489"
   inkscape:window-x="717"
   inkscape:window-y="69"
   inkscape:window-maximized="0"
   inkscape:current-layer="Layer_1" />




<g
   id="g3894"
   transform="matrix(0.7316053,0,0,0.7316053,42.953741,78.393257)"><polygon
     id="polygon2"
     points="450.23,61.292 512,450.708 388.449,450.708 388.449,146.466 "
     style="fill:#91302a" /><polygon
     id="polygon4"
     points="42.849,180.599 237.073,157.844 431.297,180.599 388.449,450.708 0,450.708 "
     style="fill:#ece7ea" /><polygon
     id="polygon6"
     points="450.23,61.292 431.297,180.599 42.849,180.599 61.77,61.292 "
     style="fill:#f14742" /><path
     id="path8"
     d="m 365.932,129.478 h -238.79 c -4.714,0 -8.533,-3.82 -8.533,-8.533 0,-4.714 3.82,-8.533 8.533,-8.533 h 238.79 c 4.714,0 8.533,3.82 8.533,8.533 0,4.713 -3.819,8.533 -8.533,8.533 z"
     style="fill:#91302a"
     inkscape:connector-curvature="0" /><g
     id="g28">
	<path
   id="path10"
   d="m 141.228,262.962 h -35.261 c -4.714,0 -8.533,-3.82 -8.533,-8.533 0,-4.714 3.82,-8.533 8.533,-8.533 h 35.261 c 4.714,0 8.533,3.82 8.533,8.533 0,4.714 -3.819,8.533 -8.533,8.533 z"
   style="fill:#ffffff"
   inkscape:connector-curvature="0" />
	<path
   id="path12"
   d="m 242.993,262.962 h -35.261 c -4.714,0 -8.533,-3.82 -8.533,-8.533 0,-4.714 3.82,-8.533 8.533,-8.533 h 35.261 c 4.714,0 8.533,3.82 8.533,8.533 0,4.714 -3.819,8.533 -8.533,8.533 z"
   style="fill:#ffffff"
   inkscape:connector-curvature="0" />
	<path
   id="path14"
   d="m 344.758,262.962 h -35.261 c -4.714,0 -8.533,-3.82 -8.533,-8.533 0,-4.714 3.82,-8.533 8.533,-8.533 h 35.261 c 4.714,0 8.533,3.82 8.533,8.533 0,4.714 -3.82,8.533 -8.533,8.533 z"
   style="fill:#ffffff"
   inkscape:connector-curvature="0" />
	<path
   id="path16"
   d="M 131.517,324.187 H 96.255 c -4.714,0 -8.533,-3.82 -8.533,-8.533 0,-4.713 3.82,-8.533 8.533,-8.533 h 35.262 c 4.714,0 8.533,3.82 8.533,8.533 0,4.713 -3.82,8.533 -8.533,8.533 z"
   style="fill:#ffffff"
   inkscape:connector-curvature="0" />
	<path
   id="path18"
   d="M 233.281,324.187 H 198.02 c -4.714,0 -8.533,-3.82 -8.533,-8.533 0,-4.713 3.82,-8.533 8.533,-8.533 h 35.261 c 4.714,0 8.533,3.82 8.533,8.533 0,4.713 -3.819,8.533 -8.533,8.533 z"
   style="fill:#ffffff"
   inkscape:connector-curvature="0" />
	<path
   id="path20"
   d="m 335.046,324.187 h -35.261 c -4.714,0 -8.533,-3.82 -8.533,-8.533 0,-4.713 3.82,-8.533 8.533,-8.533 h 35.261 c 4.714,0 8.533,3.82 8.533,8.533 0,4.713 -3.82,8.533 -8.533,8.533 z"
   style="fill:#ffffff"
   inkscape:connector-curvature="0" />
	<path
   id="path22"
   d="M 121.805,385.41 H 86.543 c -4.714,0 -8.533,-3.82 -8.533,-8.533 0,-4.714 3.82,-8.533 8.533,-8.533 h 35.261 c 4.714,0 8.533,3.82 8.533,8.533 0,4.713 -3.82,8.533 -8.532,8.533 z"
   style="fill:#ffffff"
   inkscape:connector-curvature="0" />
	<path
   id="path24"
   d="m 223.569,385.41 h -35.261 c -4.714,0 -8.533,-3.82 -8.533,-8.533 0,-4.714 3.82,-8.533 8.533,-8.533 h 35.261 c 4.714,0 8.533,3.82 8.533,8.533 0,4.713 -3.819,8.533 -8.533,8.533 z"
   style="fill:#ffffff"
   inkscape:connector-curvature="0" />
	<path
   id="path26"
   d="m 325.334,385.41 h -35.262 c -4.714,0 -8.533,-3.82 -8.533,-8.533 0,-4.714 3.82,-8.533 8.533,-8.533 h 35.262 c 4.714,0 8.533,3.82 8.533,8.533 0,4.713 -3.819,8.533 -8.533,8.533 z"
   style="fill:#ffffff"
   inkscape:connector-curvature="0" />
</g></g>
<g
   id="g30"
   transform="matrix(0.79383379,0,0,0.79383379,42.953741,74.579148)">
</g>
<g
   id="g32"
   transform="matrix(0.79383379,0,0,0.79383379,42.953741,74.579148)">
</g>
<g
   id="g34"
   transform="matrix(0.79383379,0,0,0.79383379,42.953741,74.579148)">
</g>
<g
   id="g36"
   transform="matrix(0.79383379,0,0,0.79383379,42.953741,74.579148)">
</g>
<g
   id="g38"
   transform="matrix(0.79383379,0,0,0.79383379,42.953741,74.579148)">
</g>
<g
   id="g40"
   transform="matrix(0.79383379,0,0,0.79383379,42.953741,74.579148)">
</g>
<g
   id="g42"
   transform="matrix(0.79383379,0,0,0.79383379,42.953741,74.579148)">
</g>
<g
   id="g44"
   transform="matrix(0.79383379,0,0,0.79383379,42.953741,74.579148)">
</g>
<g
   id="g46"
   transform="matrix(0.79383379,0,0,0.79383379,42.953741,74.579148)">
</g>
<g
   id="g48"
   transform="matrix(0.79383379,0,0,0.79383379,42.953741,74.579148)">
</g>
<g
   id="g50"
   transform="matrix(0.79383379,0,0,0.79383379,42.953741,74.579148)">
</g>
<g
   id="g52"
   transform="matrix(0.79383379,0,0,0.79383379,42.953741,74.579148)">
</g>
<g
   id="g54"
   transform="matrix(0.79383379,0,0,0.79383379,42.953741,74.579148)">
</g>
<g
   id="g56"
   transform="matrix(0.79383379,0,0,0.79383379,42.953741,74.579148)">
</g>
<g
   id="g58"
   transform="matrix(0.79383379,0,0,0.79383379,42.953741,74.579148)">
</g>
<g
   id="g3965"
   transform="matrix(0.79383379,0,0,0.79383379,154.88781,170.3179)"><g
     id="g3901"><circle
       id="path3896"
       cx="211.52541"
       cy="229.96614"
       r="160.54237"
       style="fill:#ffffff" /></g><g
     transform="matrix(0.5,0,0,0.5,82.994142,103.70571)"
     id="g3878"><path
       inkscape:connector-curvature="0"
       style="fill:#ffc552"
       d="M 314.892,102.988 168.168,249.712 c -5.376,5.376 -1.568,14.567 6.034,14.567 H 230.4 l -47.38,135.373 c -2.997,8.564 7.673,15.269 14.089,8.853 L 343.834,261.78 c 5.376,-5.376 1.568,-14.567 -6.034,-14.567 H 281.6 L 328.98,111.84 c 2.998,-8.564 -7.671,-15.268 -14.088,-8.852 z"
       id="path3790" /><g
       id="g3804">
	<path
   inkscape:connector-curvature="0"
   style="fill:#d1cdb2"
   d="m 179.195,355.792 c -1.937,0 -3.886,-0.656 -5.485,-2 C 144.66,329.388 128,293.651 128,255.746 c 0,-32.597 12.259,-63.65 34.519,-87.44 22.153,-23.673 52.107,-37.964 84.346,-40.24 4.721,-0.334 8.782,3.211 9.113,7.911 0.332,4.701 -3.21,8.781 -7.911,9.114 -57.756,4.077 -102.999,52.682 -102.999,110.655 0,32.851 14.442,63.825 39.621,84.979 2.599,2.183 3.665,5.804 2.667,9.047 -1.091,3.541 -4.458,6.02 -8.161,6.02 z"
   id="path3792" />
	<path
   inkscape:connector-curvature="0"
   style="fill:#d1cdb2"
   d="m 183.522,119.214 c -3.13,0 -6.141,-1.727 -7.637,-4.716 -2.11,-4.213 -0.403,-9.341 3.811,-11.45 C 203.512,91.126 229.184,85.08 256,85.08 c 9.029,0 18.092,0.711 26.938,2.114 4.655,0.738 7.829,5.11 7.091,9.765 -0.738,4.654 -5.107,7.834 -9.765,7.09 -7.964,-1.264 -16.127,-1.904 -24.263,-1.904 -24.14,0 -47.243,5.438 -68.666,16.162 -1.226,0.616 -2.53,0.907 -3.813,0.907 z"
   id="path3794" />
	<path
   inkscape:connector-curvature="0"
   style="fill:#d1cdb2"
   d="m 162.127,396.494 c -1.711,0 -3.438,-0.513 -4.939,-1.58 -44.993,-32.001 -71.855,-84.027 -71.855,-139.168 0,-51.506 22.916,-99.737 62.874,-132.323 3.652,-2.979 9.027,-2.433 12.006,1.22 2.978,3.652 2.432,9.027 -1.22,12.005 -35.965,29.333 -56.593,72.742 -56.593,119.098 0,49.628 24.179,96.454 64.679,125.26 3.028,2.155 4.342,6.227 3.12,9.74 -1.173,3.374 -4.496,5.748 -8.072,5.748 z"
   id="path3796" />
	<path
   inkscape:connector-curvature="0"
   style="fill:#d1cdb2"
   d="m 256,383.746 c -4.713,0 -8.533,-3.821 -8.533,-8.533 0,-4.712 3.821,-8.533 8.533,-8.533 22.822,0 44.74,-6.874 63.385,-19.879 3.865,-2.697 9.184,-1.749 11.881,2.116 2.697,3.866 1.748,9.185 -2.117,11.882 -21.523,15.012 -46.817,22.947 -73.149,22.947 z"
   id="path3798" />
	<path
   inkscape:connector-curvature="0"
   style="fill:#d1cdb2"
   d="m 347.51,341.08 c -7.137,0 -11.091,-8.592 -6.53,-14.022 16.737,-19.921 25.954,-45.246 25.954,-71.311 0,-32.851 -14.442,-63.825 -39.621,-84.979 -3.609,-3.031 -4.076,-8.414 -1.044,-12.022 3.033,-3.611 8.415,-4.076 12.022,-1.044 29.05,24.404 45.71,60.141 45.71,98.046 0,30.074 -10.638,59.298 -29.953,82.289 -1.689,2.007 -4.106,3.043 -6.538,3.043 z"
   id="path3800" />
	<path
   inkscape:connector-curvature="0"
   style="fill:#d1cdb2"
   d="m 256,426.413 c -9.029,0 -18.092,-0.711 -26.938,-2.114 -4.655,-0.738 -7.829,-5.11 -7.091,-9.765 0.739,-4.654 5.11,-7.827 9.765,-7.09 7.964,1.264 16.127,1.904 24.263,1.904 84.695,0 153.6,-68.906 153.6,-153.6 0,-28.658 -7.941,-56.611 -22.965,-80.835 -2.484,-4.005 -1.25,-9.266 2.755,-11.75 4.005,-2.485 9.266,-1.25 11.749,2.754 16.7,26.927 25.527,57.99 25.527,89.83 0.002,94.106 -76.559,170.666 -170.665,170.666 z"
   id="path3802" />
</g><path
       inkscape:connector-curvature="0"
       style="fill:#58ab23"
       d="M 445.351,83.462 463.3,65.513 c 5.376,-5.376 1.568,-14.567 -6.034,-14.567 h -81.798 c -4.713,0 -8.533,3.821 -8.533,8.533 v 81.799 c 0,7.602 9.191,11.41 14.567,6.034 l 15.499,-15.5 c 28.819,32.762 46.41,75.642 46.73,122.629 0.705,103.669 -83.715,188.852 -187.388,189.037 -103.839,0.186 -188.075,-83.936 -188.075,-187.732 0,-49.686 19.306,-94.861 50.821,-128.441 3.36,-3.58 6.862,-7.027 10.496,-10.336 L 87.426,63.101 C 80.502,69.165 73.906,75.594 67.672,82.362 24.533,129.191 -1.369,192.143 0.056,261.16 2.925,400.124 117.313,511.91 256.308,511.747 397.551,511.58 512,397.029 512,255.746 512,189.395 486.757,128.942 445.351,83.462 Z"
       id="path3806" /><path
       inkscape:connector-curvature="0"
       style="fill:#66bf00"
       d="M 119.088,127.306 C 136.943,108.282 158.804,92.976 183.21,82.686 201.289,75.064 220.912,70.19 241.263,68.591 249.561,67.939 256,61.097 256,52.774 V 16.126 C 256,7 248.314,-0.302 239.207,0.287 210.16,2.165 182.504,8.883 156.914,19.635 122.767,33.983 92.391,55.527 67.672,82.361 27.494,125.977 2.281,183.58 0.158,247.039 l 68.14,6.123 c 0.658,-48.667 19.823,-92.861 50.79,-125.856 z"
       id="path3808" /><path
       inkscape:connector-curvature="0"
       style="fill:#b6e462"
       d="M 183.21,82.686 C 201.289,75.064 220.912,70.19 241.263,68.591 249.561,67.939 256,61.097 256,52.774 V 16.126 C 256,7 248.314,-0.302 239.207,0.287 210.16,2.165 182.504,8.883 156.914,19.635 131.379,30.365 107.955,45.12 87.426,63.101 l 42.159,53.869 c 15.676,-14.271 33.812,-25.93 53.625,-34.284 z"
       id="path3810" /><path
       inkscape:connector-curvature="0"
       style="fill:#58ab23"
       d="M 445.351,83.462 463.3,65.513 c 5.376,-5.376 1.568,-14.567 -6.034,-14.567 h -81.798 c -4.713,0 -8.533,3.821 -8.533,8.533 v 81.799 c 0,7.602 9.191,11.41 14.567,6.034 l 15.499,-15.5 c 28.819,32.762 46.41,75.642 46.73,122.629 0.705,103.669 -83.715,188.852 -187.388,189.037 -103.839,0.186 -188.075,-83.936 -188.075,-187.732 0,-0.864 0.019,-1.724 0.031,-2.585 L 0.159,247.038 C 0.002,251.715 -0.04,256.421 0.058,261.159 2.927,400.123 117.315,511.909 256.31,511.746 397.551,511.58 512,397.029 512,255.746 512,189.395 486.757,128.942 445.351,83.462 Z"
       id="path3812" /><g
       id="g3814">
</g><g
       id="g3816">
</g><g
       id="g3818">
</g><g
       id="g3820">
</g><g
       id="g3822">
</g><g
       id="g3824">
</g><g
       id="g3826">
</g><g
       id="g3828">
</g><g
       id="g3830">
</g><g
       id="g3832">
</g><g
       id="g3834">
</g><g
       id="g3836">
</g><g
       id="g3838">
</g><g
       id="g3840">
</g><g
       id="g3842">
</g></g></g></svg>