<?xml version="1.0" encoding="UTF-8" standalone="no"?>
<!-- Generator: Adobe Illustrator 19.0.0, SVG Export Plug-In . SVG Version: 6.00 Build 0)  -->

<svg
   xmlns:dc="http://purl.org/dc/elements/1.1/"
   xmlns:cc="http://creativecommons.org/ns#"
   xmlns:rdf="http://www.w3.org/1999/02/22-rdf-syntax-ns#"
   xmlns:svg="http://www.w3.org/2000/svg"
   xmlns="http://www.w3.org/2000/svg"
   xmlns:sodipodi="http://sodipodi.sourceforge.net/DTD/sodipodi-0.dtd"
   xmlns:inkscape="http://www.inkscape.org/namespaces/inkscape"
   version="1.1"
   id="Layer_1"
   x="0px"
   y="0px"
   viewBox="0 0 512 512"
   style="enable-background:new 0 0 512 512;"
   xml:space="preserve"
   sodipodi:docname="forecast_weekly.svg"
   inkscape:version="0.92.4 (unknown)"><metadata
   id="metadata65"><rdf:RDF><cc:Work
       rdf:about=""><dc:format>image/svg+xml</dc:format><dc:type
         rdf:resource="http://purl.org/dc/dcmitype/StillImage" /></cc:Work></rdf:RDF></metadata><defs
   id="defs63" /><sodipodi:namedview
   pagecolor="#ffffff"
   bordercolor="#666666"
   borderopacity="1"
   objecttolerance="10"
   gridtolerance="10"
   guidetolerance="10"
   inkscape:pageopacity="0"
   inkscape:pageshadow="2"
   inkscape:window-width="636"
   inkscape:window-height="706"
   id="namedview61"
   showgrid="false"
   inkscape:zoom="0.65186406"
   inkscape:cx="216.1672"
   inkscape:cy="248.74802"
   inkscape:window-x="75"
   inkscape:window-y="34"
   inkscape:window-maximized="0"
   inkscape:current-layer="Layer_1" />




<g
   id="g3894"
   transform="matrix(0.72596457,0,0,0.72596457,59.828424,80.409299)"><polygon
     id="polygon2"
     points="388.449,146.466 450.23,61.292 512,450.708 388.449,450.708 "
     style="fill:#91302a" /><polygon
     id="polygon4"
     points="42.849,180.599 237.073,157.844 431.297,180.599 388.449,450.708 0,450.708 "
     style="fill:#ece7ea" /><polygon
     id="polygon6"
     points="61.77,61.292 450.23,61.292 431.297,180.599 42.849,180.599 "
     style="fill:#f14742" /><path
     id="path8"
     d="m 365.932,129.478 h -238.79 c -4.714,0 -8.533,-3.82 -8.533,-8.533 0,-4.714 3.82,-8.533 8.533,-8.533 h 238.79 c 4.714,0 8.533,3.82 8.533,8.533 0,4.713 -3.819,8.533 -8.533,8.533 z"
     style="fill:#91302a"
     inkscape:connector-curvature="0" /><g
     id="g28">
	<path
   id="path10"
   d="m 141.228,262.962 h -35.261 c -4.714,0 -8.533,-3.82 -8.533,-8.533 0,-4.714 3.82,-8.533 8.533,-8.533 h 35.261 c 4.714,0 8.533,3.82 8.533,8.533 0,4.714 -3.819,8.533 -8.533,8.533 z"
   style="fill:#ffffff"
   inkscape:connector-curvature="0" />
	<path
   id="path12"
   d="m 242.993,262.962 h -35.261 c -4.714,0 -8.533,-3.82 -8.533,-8.533 0,-4.714 3.82,-8.533 8.533,-8.533 h 35.261 c 4.714,0 8.533,3.82 8.533,8.533 0,4.714 -3.819,8.533 -8.533,8.533 z"
   style="fill:#ffffff"
   inkscape:connector-curvature="0" />
	<path
   id="path14"
   d="m 344.758,262.962 h -35.261 c -4.714,0 -8.533,-3.82 -8.533,-8.533 0,-4.714 3.82,-8.533 8.533,-8.533 h 35.261 c 4.714,0 8.533,3.82 8.533,8.533 0,4.714 -3.82,8.533 -8.533,8.533 z"
   style="fill:#ffffff"
   inkscape:connector-curvature="0" />
	<path
   id="path16"
   d="M 131.517,324.187 H 96.255 c -4.714,0 -8.533,-3.82 -8.533,-8.533 0,-4.713 3.82,-8.533 8.533,-8.533 h 35.262 c 4.714,0 8.533,3.82 8.533,8.533 0,4.713 -3.82,8.533 -8.533,8.533 z"
   style="fill:#ffffff"
   inkscape:connector-curvature="0" />
	<path
   id="path18"
   d="M 233.281,324.187 H 198.02 c -4.714,0 -8.533,-3.82 -8.533,-8.533 0,-4.713 3.82,-8.533 8.533,-8.533 h 35.261 c 4.714,0 8.533,3.82 8.533,8.533 0,4.713 -3.819,8.533 -8.533,8.533 z"
   style="fill:#ffffff"
   inkscape:connector-curvature="0" />
	<path
   id="path20"
   d="m 335.046,324.187 h -35.261 c -4.714,0 -8.533,-3.82 -8.533,-8.533 0,-4.713 3.82,-8.533 8.533,-8.533 h 35.261 c 4.714,0 8.533,3.82 8.533,8.533 0,4.713 -3.82,8.533 -8.533,8.533 z"
   style="fill:#ffffff"
   inkscape:connector-curvature="0" />
	<path
   id="path22"
   d="M 121.805,385.41 H 86.543 c -4.714,0 -8.533,-3.82 -8.533,-8.533 0,-4.714 3.82,-8.533 8.533,-8.533 h 35.261 c 4.714,0 8.533,3.82 8.533,8.533 0,4.713 -3.82,8.533 -8.532,8.533 z"
   style="fill:#ffffff"
   inkscape:connector-curvature="0" />
	<path
   id="path24"
   d="m 223.569,385.41 h -35.261 c -4.714,0 -8.533,-3.82 -8.533,-8.533 0,-4.714 3.82,-8.533 8.533,-8.533 h 35.261 c 4.714,0 8.533,3.82 8.533,8.533 0,4.713 -3.819,8.533 -8.533,8.533 z"
   style="fill:#ffffff"
   inkscape:connector-curvature="0" />
	<path
   id="path26"
   d="m 325.334,385.41 h -35.262 c -4.714,0 -8.533,-3.82 -8.533,-8.533 0,-4.714 3.82,-8.533 8.533,-8.533 h 35.262 c 4.714,0 8.533,3.82 8.533,8.533 0,4.713 -3.819,8.533 -8.533,8.533 z"
   style="fill:#ffffff"
   inkscape:connector-curvature="0" />
</g></g>
<g
   id="g30"
   transform="matrix(0.78771327,0,0,0.78771327,59.828424,40.624596)">
</g>
<g
   id="g32"
   transform="matrix(0.78771327,0,0,0.78771327,59.828424,40.624596)">
</g>
<g
   id="g34"
   transform="matrix(0.78771327,0,0,0.78771327,59.828424,40.624596)">
</g>
<g
   id="g36"
   transform="matrix(0.78771327,0,0,0.78771327,59.828424,40.624596)">
</g>
<g
   id="g38"
   transform="matrix(0.78771327,0,0,0.78771327,59.828424,40.624596)">
</g>
<g
   id="g40"
   transform="matrix(0.78771327,0,0,0.78771327,59.828424,40.624596)">
</g>
<g
   id="g42"
   transform="matrix(0.78771327,0,0,0.78771327,59.828424,40.624596)">
</g>
<g
   id="g44"
   transform="matrix(0.78771327,0,0,0.78771327,59.828424,40.624596)">
</g>
<g
   id="g46"
   transform="matrix(0.78771327,0,0,0.78771327,59.828424,40.624596)">
</g>
<g
   id="g48"
   transform="matrix(0.78771327,0,0,0.78771327,59.828424,40.624596)">
</g>
<g
   id="g50"
   transform="matrix(0.78771327,0,0,0.78771327,59.828424,40.624596)">
</g>
<g
   id="g52"
   transform="matrix(0.78771327,0,0,0.78771327,59.828424,40.624596)">
</g>
<g
   id="g54"
   transform="matrix(0.78771327,0,0,0.78771327,59.828424,40.624596)">
</g>
<g
   id="g56"
   transform="matrix(0.78771327,0,0,0.78771327,59.828424,40.624596)">
</g>
<g
   id="g58"
   transform="matrix(0.78771327,0,0,0.78771327,59.828424,40.624596)">
</g>
<g
   id="g4280"
   transform="matrix(0.78771327,0,0,0.78771327,59.828424,76.624596)"><g
     transform="translate(141.00441,120.60304)"
     id="g3901"><circle
       id="path3896"
       cx="211.52541"
       cy="229.96614"
       r="160.54237"
       style="fill:#ffffff" /></g><g
     transform="matrix(3.8926449,0,0,3.8926449,243.35593,223.10796)"
     id="g4251"><g
       id="g4188">
	<rect
   x="3"
   y="42.5"
   style="fill:#7ed09e"
   width="10"
   height="14"
   id="rect4172" />
	<rect
   x="18"
   y="33.5"
   style="fill:#71c285"
   width="10"
   height="23"
   id="rect4174" />
	<rect
   x="33"
   y="25.5"
   style="fill:#4fba6f"
   width="10"
   height="31"
   id="rect4176" />
	<rect
   x="48"
   y="17.5"
   style="fill:#24ae5f"
   width="10"
   height="39"
   id="rect4178" />
	<path
   inkscape:connector-curvature="0"
   style="fill:#556080"
   d="M 59,57.5 H 1 c -0.552,0 -1,-0.447 -1,-1 0,-0.553 0.448,-1 1,-1 h 58 c 0.552,0 1,0.447 1,1 0,0.553 -0.448,1 -1,1 z"
   id="path4180" />
	<path
   inkscape:connector-curvature="0"
   style="fill:#bdc3c7"
   d="M 8.03,27.83 C 7.684,27.83 7.348,27.651 7.163,27.33 6.887,26.851 7.051,26.24 7.529,25.964 L 46.5,3.464 C 46.978,3.187 47.589,3.352 47.866,3.83 48.142,4.309 47.978,4.92 47.5,5.196 L 8.529,27.696 C 8.372,27.787 8.199,27.83 8.03,27.83 Z"
   id="path4182" />
	<path
   inkscape:connector-curvature="0"
   style="fill:#bdc3c7"
   d="m 47.001,5.33 c -0.032,0 -0.064,-0.002 -0.098,-0.005 L 38.341,4.495 C 37.792,4.442 37.389,3.953 37.443,3.403 37.496,2.854 37.98,2.449 38.535,2.505 l 8.562,0.83 c 0.549,0.053 0.952,0.542 0.898,1.092 -0.05,0.516 -0.485,0.903 -0.994,0.903 z"
   id="path4184" />
	<path
   inkscape:connector-curvature="0"
   style="fill:#bdc3c7"
   d="m 43.437,13.16 c -0.139,0 -0.279,-0.028 -0.414,-0.09 -0.503,-0.229 -0.725,-0.821 -0.496,-1.324 l 3.562,-7.83 c 0.229,-0.503 0.822,-0.727 1.324,-0.496 0.503,0.229 0.725,0.821 0.496,1.324 l -3.562,7.83 c -0.166,0.368 -0.53,0.586 -0.91,0.586 z"
   id="path4186" />
</g><g
       id="g4190">
</g><g
       id="g4192">
</g><g
       id="g4194">
</g><g
       id="g4196">
</g><g
       id="g4198">
</g><g
       id="g4200">
</g><g
       id="g4202">
</g><g
       id="g4204">
</g><g
       id="g4206">
</g><g
       id="g4208">
</g><g
       id="g4210">
</g><g
       id="g4212">
</g><g
       id="g4214">
</g><g
       id="g4216">
</g><g
       id="g4218">
</g></g></g></svg>