<?xml version="1.0" encoding="UTF-8" standalone="no"?>
<!-- Generator: Adobe Illustrator 19.0.0, SVG Export Plug-In . SVG Version: 6.00 Build 0)  -->

<svg
   xmlns:dc="http://purl.org/dc/elements/1.1/"
   xmlns:cc="http://creativecommons.org/ns#"
   xmlns:rdf="http://www.w3.org/1999/02/22-rdf-syntax-ns#"
   xmlns:svg="http://www.w3.org/2000/svg"
   xmlns="http://www.w3.org/2000/svg"
   xmlns:sodipodi="http://sodipodi.sourceforge.net/DTD/sodipodi-0.dtd"
   xmlns:inkscape="http://www.inkscape.org/namespaces/inkscape"
   version="1.1"
   id="Layer_1"
   x="0px"
   y="0px"
   viewBox="0 0 512 512"
   style="enable-background:new 0 0 512 512;"
   xml:space="preserve"
   sodipodi:docname="new_fuel_saved_lifetime.svg"
   inkscape:version="0.92.4 (unknown)"><metadata
   id="metadata65"><rdf:RDF><cc:Work
       rdf:about=""><dc:format>image/svg+xml</dc:format><dc:type
         rdf:resource="http://purl.org/dc/dcmitype/StillImage" /></cc:Work></rdf:RDF></metadata><defs
   id="defs63" /><sodipodi:namedview
   pagecolor="#ffffff"
   bordercolor="#666666"
   borderopacity="1"
   objecttolerance="10"
   gridtolerance="10"
   guidetolerance="10"
   inkscape:pageopacity="0"
   inkscape:pageshadow="2"
   inkscape:window-width="531"
   inkscape:window-height="514"
   id="namedview61"
   showgrid="false"
   inkscape:zoom="0.65186406"
   inkscape:cx="228.4397"
   inkscape:cy="273.29301"
   inkscape:window-x="1328"
   inkscape:window-y="196"
   inkscape:window-maximized="0"
   inkscape:current-layer="Layer_1" />




<g
   id="g3894"
   transform="matrix(0.58267483,0,0,0.58267483,103.82842,103.19181)"><polygon
     id="polygon2"
     points="512,450.708 388.449,450.708 388.449,146.466 450.23,61.292 "
     style="fill:#91302a" /><polygon
     id="polygon4"
     points="237.073,157.844 431.297,180.599 388.449,450.708 0,450.708 42.849,180.599 "
     style="fill:#ece7ea" /><polygon
     id="polygon6"
     points="431.297,180.599 42.849,180.599 61.77,61.292 450.23,61.292 "
     style="fill:#f14742" /><path
     id="path8"
     d="m 365.932,129.478 h -238.79 c -4.714,0 -8.533,-3.82 -8.533,-8.533 0,-4.714 3.82,-8.533 8.533,-8.533 h 238.79 c 4.714,0 8.533,3.82 8.533,8.533 0,4.713 -3.819,8.533 -8.533,8.533 z"
     style="fill:#91302a"
     inkscape:connector-curvature="0" /><g
     id="g28">
	<path
   id="path10"
   d="m 141.228,262.962 h -35.261 c -4.714,0 -8.533,-3.82 -8.533,-8.533 0,-4.714 3.82,-8.533 8.533,-8.533 h 35.261 c 4.714,0 8.533,3.82 8.533,8.533 0,4.714 -3.819,8.533 -8.533,8.533 z"
   style="fill:#ffffff"
   inkscape:connector-curvature="0" />
	<path
   id="path12"
   d="m 242.993,262.962 h -35.261 c -4.714,0 -8.533,-3.82 -8.533,-8.533 0,-4.714 3.82,-8.533 8.533,-8.533 h 35.261 c 4.714,0 8.533,3.82 8.533,8.533 0,4.714 -3.819,8.533 -8.533,8.533 z"
   style="fill:#ffffff"
   inkscape:connector-curvature="0" />
	<path
   id="path14"
   d="m 344.758,262.962 h -35.261 c -4.714,0 -8.533,-3.82 -8.533,-8.533 0,-4.714 3.82,-8.533 8.533,-8.533 h 35.261 c 4.714,0 8.533,3.82 8.533,8.533 0,4.714 -3.82,8.533 -8.533,8.533 z"
   style="fill:#ffffff"
   inkscape:connector-curvature="0" />
	<path
   id="path16"
   d="M 131.517,324.187 H 96.255 c -4.714,0 -8.533,-3.82 -8.533,-8.533 0,-4.713 3.82,-8.533 8.533,-8.533 h 35.262 c 4.714,0 8.533,3.82 8.533,8.533 0,4.713 -3.82,8.533 -8.533,8.533 z"
   style="fill:#ffffff"
   inkscape:connector-curvature="0" />
	<path
   id="path18"
   d="M 233.281,324.187 H 198.02 c -4.714,0 -8.533,-3.82 -8.533,-8.533 0,-4.713 3.82,-8.533 8.533,-8.533 h 35.261 c 4.714,0 8.533,3.82 8.533,8.533 0,4.713 -3.819,8.533 -8.533,8.533 z"
   style="fill:#ffffff"
   inkscape:connector-curvature="0" />
	<path
   id="path20"
   d="m 335.046,324.187 h -35.261 c -4.714,0 -8.533,-3.82 -8.533,-8.533 0,-4.713 3.82,-8.533 8.533,-8.533 h 35.261 c 4.714,0 8.533,3.82 8.533,8.533 0,4.713 -3.82,8.533 -8.533,8.533 z"
   style="fill:#ffffff"
   inkscape:connector-curvature="0" />
	<path
   id="path22"
   d="M 121.805,385.41 H 86.543 c -4.714,0 -8.533,-3.82 -8.533,-8.533 0,-4.714 3.82,-8.533 8.533,-8.533 h 35.261 c 4.714,0 8.533,3.82 8.533,8.533 0,4.713 -3.82,8.533 -8.532,8.533 z"
   style="fill:#ffffff"
   inkscape:connector-curvature="0" />
	<path
   id="path24"
   d="m 223.569,385.41 h -35.261 c -4.714,0 -8.533,-3.82 -8.533,-8.533 0,-4.714 3.82,-8.533 8.533,-8.533 h 35.261 c 4.714,0 8.533,3.82 8.533,8.533 0,4.713 -3.819,8.533 -8.533,8.533 z"
   style="fill:#ffffff"
   inkscape:connector-curvature="0" />
	<path
   id="path26"
   d="m 325.334,385.41 h -35.262 c -4.714,0 -8.533,-3.82 -8.533,-8.533 0,-4.714 3.82,-8.533 8.533,-8.533 h 35.262 c 4.714,0 8.533,3.82 8.533,8.533 0,4.713 -3.819,8.533 -8.533,8.533 z"
   style="fill:#ffffff"
   inkscape:connector-curvature="0" />
</g></g>
<g
   id="g30"
   transform="matrix(0.63223566,0,0,0.63223566,103.82842,71.259753)">
</g>
<g
   id="g32"
   transform="matrix(0.63223566,0,0,0.63223566,103.82842,71.259753)">
</g>
<g
   id="g34"
   transform="matrix(0.63223566,0,0,0.63223566,103.82842,71.259753)">
</g>
<g
   id="g36"
   transform="matrix(0.63223566,0,0,0.63223566,103.82842,71.259753)">
</g>
<g
   id="g38"
   transform="matrix(0.63223566,0,0,0.63223566,103.82842,71.259753)">
</g>
<g
   id="g40"
   transform="matrix(0.63223566,0,0,0.63223566,103.82842,71.259753)">
</g>
<g
   id="g42"
   transform="matrix(0.63223566,0,0,0.63223566,103.82842,71.259753)">
</g>
<g
   id="g44"
   transform="matrix(0.63223566,0,0,0.63223566,103.82842,71.259753)">
</g>
<g
   id="g46"
   transform="matrix(0.63223566,0,0,0.63223566,103.82842,71.259753)">
</g>
<g
   id="g48"
   transform="matrix(0.63223566,0,0,0.63223566,103.82842,71.259753)">
</g>
<g
   id="g50"
   transform="matrix(0.63223566,0,0,0.63223566,103.82842,71.259753)">
</g>
<g
   id="g52"
   transform="matrix(0.63223566,0,0,0.63223566,103.82842,71.259753)">
</g>
<g
   id="g54"
   transform="matrix(0.63223566,0,0,0.63223566,103.82842,71.259753)">
</g>
<g
   id="g56"
   transform="matrix(0.63223566,0,0,0.63223566,103.82842,71.259753)">
</g>
<g
   id="g58"
   transform="matrix(0.63223566,0,0,0.63223566,103.82842,71.259753)">
</g>
<g
   id="g71"
   transform="matrix(0.29283232,0,0,0.29283232,253.6932,234.76882)"><g
     id="g47"><path
       id="path45"
       d="m 471.764,117.494 c -8.284,0 -15,-6.716 -15,-15 V 30 h -202.25 l -50.138,56.587 c -5.494,6.201 -14.975,6.773 -21.174,1.28 -6.201,-5.494 -6.773,-14.974 -1.28,-21.174 L 236.537,5.053 C 239.384,1.839 243.471,0 247.764,0 h 224 c 8.284,0 15,6.716 15,15 v 87.494 c 0,8.284 -6.716,15 -15,15 z"
       inkscape:connector-curvature="0"
       style="fill:#00607f" /></g><path
     id="path49"
     d="m 471.764,0 h -205 v 30 h 190 v 72.494 c 0,8.284 6.716,15 15,15 8.284,0 15,-6.716 15,-15 V 15 c 0,-8.284 -6.716,-15 -15,-15 z"
     inkscape:connector-curvature="0"
     style="fill:#002c3c" /><g
     id="g53"><path
       id="path51"
       d="m 107.677,179.312 c -3.819,0 -7.638,-1.449 -10.563,-4.35 l -67.446,-66.89 c -2.833,-2.809 -4.429,-6.63 -4.438,-10.619 -0.008,-3.989 1.573,-7.817 4.394,-10.638 L 72.051,44.389 c 5.841,-5.841 15.305,-5.86 21.169,-0.044 l 67.446,66.89 c 2.833,2.809 4.429,6.63 4.438,10.619 0.008,3.989 -1.573,7.817 -4.394,10.638 l -42.427,42.427 c -2.927,2.927 -6.766,4.393 -10.606,4.393 z"
       inkscape:connector-curvature="0"
       style="fill:#4bb9ec" /></g><g
     id="g57"><path
       id="path55"
       d="m 441.764,511.995 h -350 c -24.813,0 -45,-20.187 -45,-45 v -300 c 0,-3.978 1.581,-7.793 4.394,-10.606 l 87,-87 c 2.813,-2.813 6.628,-4.394 10.606,-4.394 h 293 c 24.813,0 45,20.187 45,45 v 357 c 0,24.813 -20.187,45 -45,45 z"
       inkscape:connector-curvature="0"
       style="fill:#007a9f" /></g><path
     id="path59"
     d="m 441.764,64.995 h -175 v 447 h 175 c 24.813,0 45,-20.187 45,-45 v -357 c 0,-24.813 -20.187,-45 -45,-45 z"
     inkscape:connector-curvature="0"
     style="fill:#00607f" /><g
     id="g63"><path
       id="path61"
       d="m 267.274,427.995 c -8.284,0 -15,-6.716 -15,-15 v -73 c 0,-8.284 6.716,-15 15,-15 8.284,0 15,6.716 15,15 v 73 c 0,8.284 -6.715,15 -15,15 z"
       inkscape:connector-curvature="0"
       style="fill:#00cc71" /></g><path
     id="path65"
     d="m 378.148,226.165 c -1.755,-8.097 -9.74,-13.239 -17.836,-11.483 l -22.479,4.871 c -29.199,6.328 -54.323,23.43 -70.998,48.258 -15.367,-25.658 -39.57,-44.04 -68.403,-51.873 l -22.195,-6.029 c -7.992,-2.168 -16.235,2.548 -18.407,10.543 -8.034,29.573 -4.037,60.563 11.256,87.263 15.292,26.7 40.001,45.828 69.574,53.862 l 20.431,5.55 c 1.566,0.602 3.241,0.949 4.966,0.994 0.059,0.002 0.118,-0.002 0.177,-10e-4 0.059,0.002 0.118,0.008 0.177,0.01 1.725,0.045 3.416,-0.215 5.01,-0.735 l 20.692,-4.484 c 61.973,-13.429 101.465,-74.773 88.035,-136.746 z"
     inkscape:connector-curvature="0"
     style="fill:#bee75e" /><path
     id="path67"
     d="m 267.274,324.995 c -0.172,0 -0.34,0.02 -0.511,0.026 v 102.948 c 0.171,0.006 0.338,0.026 0.511,0.026 8.284,0 15,-6.716 15,-15 v -73 c 0,-8.285 -6.715,-15 -15,-15 z"
     inkscape:connector-curvature="0"
     style="fill:#009954" /><path
     id="path69"
     d="m 378.148,226.165 c -1.755,-8.096 -9.74,-13.239 -17.836,-11.483 l -22.479,4.871 c -29.199,6.328 -54.323,23.43 -70.998,48.258 -0.023,-0.039 -0.048,-0.077 -0.072,-0.117 v 100.302 c 0.907,-0.122 1.797,-0.32 2.658,-0.6 l 20.692,-4.484 c 61.973,-13.43 101.465,-74.775 88.035,-136.747 z"
     inkscape:connector-curvature="0"
     style="fill:#00cc71" /></g></svg>