<?xml version="1.0" encoding="UTF-8" standalone="no"?>
<svg
   xmlns:dc="http://purl.org/dc/elements/1.1/"
   xmlns:cc="http://creativecommons.org/ns#"
   xmlns:rdf="http://www.w3.org/1999/02/22-rdf-syntax-ns#"
   xmlns:svg="http://www.w3.org/2000/svg"
   xmlns="http://www.w3.org/2000/svg"
   xmlns:sodipodi="http://sodipodi.sourceforge.net/DTD/sodipodi-0.dtd"
   xmlns:inkscape="http://www.inkscape.org/namespaces/inkscape"
   height="511pt"
   viewBox="1 0 511.99943 511"
   width="511pt"
   version="1.1"
   id="svg16"
   sodipodi:docname="new_yield_today.svg"
   inkscape:version="0.92.4 (unknown)">
  <metadata
     id="metadata22">
    <rdf:RDF>
      <cc:Work
         rdf:about="">
        <dc:format>image/svg+xml</dc:format>
        <dc:type
           rdf:resource="http://purl.org/dc/dcmitype/StillImage" />
      </cc:Work>
    </rdf:RDF>
  </metadata>
  <defs
     id="defs20" />
  <sodipodi:namedview
     pagecolor="#ffffff"
     bordercolor="#666666"
     borderopacity="1"
     objecttolerance="10"
     gridtolerance="10"
     guidetolerance="10"
     inkscape:pageopacity="0"
     inkscape:pageshadow="2"
     inkscape:window-width="640"
     inkscape:window-height="535"
     id="namedview18"
     showgrid="false"
     inkscape:zoom="0.4898548"
     inkscape:cx="345.02509"
     inkscape:cy="337.46461"
     inkscape:window-x="805"
     inkscape:window-y="24"
     inkscape:window-maximized="0"
     inkscape:current-layer="svg16" />
  <g
     id="g31"
     transform="matrix(0.61704775,0,0,0.61704775,100.78564,106.21454)">
    <path
       id="path2"
       d="M 496.01172,184.16016 C 468.05078,76.023438 370.51172,0.5 258.82031,0.5 160.58203,0.5 72.355469,59.242188 33.886719,148.41016 l -5.0625,-12 c -3.222657,-7.62891 -12.019531,-11.20703 -19.652344,-7.98829 -7.632813,3.22266 -11.207031,12.02344 -7.988281,19.65235 l 18.933594,44.86719 c 1.546874,3.66406 4.484374,6.5625 8.171874,8.0625 1.8125,0.73437 3.730469,1.10546 5.648438,1.10546 1.984375,0 3.96875,-0.39453 5.832031,-1.18359 l 44.867188,-18.9375 c 7.628906,-3.21875 11.207031,-12.01953 7.984375,-19.64844 -3.21875,-7.63281 -12.019532,-11.21093 -19.652344,-7.98828 l -10.972656,4.63281 C 96.046875,81.46875 173.09375,30.5 258.82031,30.5 c 98.01563,0 183.60938,66.277344 208.14844,161.17187 1.75,6.76172 7.83594,11.25 14.51172,11.25 1.24219,0 2.50781,-0.15625 3.76562,-0.48046 8.01954,-2.07422 12.83985,-10.25782 10.76563,-18.28125 z m 0,0"
       inkscape:connector-curvature="0"
       style="fill:#cafa5c" />
    <path
       id="path4"
       d="m 510.81641,361.875 -18.9336,-44.86328 c -1.54687,-3.66797 -4.48828,-6.56641 -8.17187,-8.06641 -3.6875,-1.49609 -7.81641,-1.46875 -11.48047,0.0781 l -44.86719,18.9375 c -7.62891,3.21875 -11.20703,12.01953 -7.98437,19.65234 3.21875,7.63281 12.01953,11.20703 19.65234,7.98438 l 12.55859,-5.30079 c -33.19922,79.59375 -111.32422,132.19532 -198.40625,132.19532 -98.01953,0 -183.613278,-66.27735 -208.15234,-161.17188 -2.074219,-8.02344 -10.257812,-12.83594 -18.277344,-10.76953 -8.019531,2.07422 -12.839844,10.25781 -10.765625,18.27734 27.960938,108.14063 125.499999,183.66407 237.195309,183.66407 98.78907,0 187.45703,-59.40625 225.57422,-149.42188 l 4.41797,10.46875 c 2.41797,5.73047 7.97656,9.17188 13.82813,9.17188 1.9414,0 3.92187,-0.37891 5.82421,-1.1836 7.63282,-3.22265 11.20704,-12.01953 7.98829,-19.65234 z m 0,0"
       inkscape:connector-curvature="0"
       style="fill:#cafa5c" />
    <path
       id="path6"
       d="m 230.99609,422.49219 c -1.69922,0 -3.41406,-0.28907 -5.07422,-0.88672 C 219.96875,419.46484 216,413.81641 216,407.49219 v -135.9961 h -54.66016 c -5.80859,0 -11.09765,-3.35547 -13.57031,-8.61328 -2.47656,-5.2539 -1.69141,-11.46875 2.01172,-15.94531 L 275.4375,94.941406 c 4.03125,-4.875 10.6875,-6.699218 16.64062,-4.558594 5.95313,2.144532 9.91797,7.789063 9.91797,14.117188 v 135.99609 h 54.66016 c 5.8125,0 11.09766,3.35547 13.57031,8.60938 2.47656,5.25781 1.69141,11.46875 -2.00781,15.94922 L 242.55859,417.05078 c -2.90234,3.51563 -7.17187,5.44141 -11.5625,5.44141 z m 0,0"
       inkscape:connector-curvature="0"
       style="fill:#ffd222" />
    <path
       id="path8"
       d="m 370.23047,249.10547 c -2.47656,-5.25391 -7.76172,-8.60938 -13.57422,-8.60938 H 302 V 104.5 c 0,-6.328125 -3.96875,-11.972656 -9.92188,-14.117188 -5.94921,-2.140624 -12.60937,-0.316406 -16.64062,4.558594 L 259,114.82422 V 397.16797 L 368.21875,265.05078 c 3.70312,-4.47656 4.48437,-10.6875 2.01172,-15.94531 z m 0,0"
       inkscape:connector-curvature="0"
       style="fill:#ecbd00" />
    <g
       id="g14"
       style="fill:#00db80">
      <path
         id="path10"
         d="M 496.01172,184.16016 C 468.06641,76.082031 370.61719,0.582031 259,0.5 v 30 c 97.94141,0.08203 183.44531,66.335938 207.96875,161.17187 1.75,6.76172 7.83594,11.25 14.51172,11.25 1.24219,0 2.50781,-0.15625 3.76562,-0.48046 8.01953,-2.07422 12.83985,-10.25782 10.76563,-18.28125 z m 0,0"
         inkscape:connector-curvature="0" />
      <path
         id="path12"
         d="m 510.81641,361.875 -18.9336,-44.86328 c -1.54687,-3.66797 -4.48828,-6.56641 -8.17187,-8.06641 -3.6875,-1.49609 -7.81641,-1.46875 -11.48047,0.0781 l -44.86719,18.9375 c -7.62891,3.21875 -11.20703,12.01953 -7.98437,19.65234 3.21875,7.63281 12.01953,11.20703 19.65234,7.98438 l 12.55859,-5.30079 C 419.13281,428.11328 343.73437,480.12109 259,482.40625 v 30.00781 c 96.44141,-2.28125 182.39062,-61.09765 219.75781,-149.34375 l 4.41797,10.46875 c 2.41797,5.73047 7.97656,9.17188 13.82813,9.17188 1.9414,0 3.92187,-0.37891 5.82422,-1.1836 7.63281,-3.22265 11.20703,-12.01953 7.98828,-19.65234 z m 0,0"
         inkscape:connector-curvature="0" />
    </g>
  </g>
</svg>
