<?xml version="1.0" encoding="UTF-8" standalone="no"?>
<!-- Generator: Adobe Illustrator 19.0.0, SVG Export Plug-In . SVG Version: 6.00 Build 0)  -->

<svg
   xmlns:dc="http://purl.org/dc/elements/1.1/"
   xmlns:cc="http://creativecommons.org/ns#"
   xmlns:rdf="http://www.w3.org/1999/02/22-rdf-syntax-ns#"
   xmlns:svg="http://www.w3.org/2000/svg"
   xmlns="http://www.w3.org/2000/svg"
   xmlns:sodipodi="http://sodipodi.sourceforge.net/DTD/sodipodi-0.dtd"
   xmlns:inkscape="http://www.inkscape.org/namespaces/inkscape"
   version="1.1"
   id="Capa_1"
   x="0px"
   y="0px"
   viewBox="0 0 512.001 512.001"
   style="enable-background:new 0 0 512.001 512.001;"
   xml:space="preserve"
   sodipodi:docname="new_solar-colored.svg"
   inkscape:version="0.92.4 (unknown)"><metadata
   id="metadata81"><rdf:RDF><cc:Work
       rdf:about=""><dc:format>image/svg+xml</dc:format><dc:type
         rdf:resource="http://purl.org/dc/dcmitype/StillImage" /></cc:Work></rdf:RDF></metadata><defs
   id="defs79" /><sodipodi:namedview
   pagecolor="#ffffff"
   bordercolor="#666666"
   borderopacity="1"
   objecttolerance="10"
   gridtolerance="10"
   guidetolerance="10"
   inkscape:pageopacity="0"
   inkscape:pageshadow="2"
   inkscape:window-width="640"
   inkscape:window-height="545"
   id="namedview77"
   showgrid="false"
   inkscape:zoom="0.65186282"
   inkscape:cx="238.56195"
   inkscape:cy="268.9691"
   inkscape:window-x="684"
   inkscape:window-y="254"
   inkscape:window-maximized="0"
   inkscape:current-layer="g120" />




















<g
   id="g120"
   transform="matrix(0.53108454,0,0,0.53108454,122.43054,118.71269)"><g
     id="g81"
     transform="translate(3.7658788,3.7658788)"><rect
       x="232.00301"
       y="352.004"
       style="fill:#5d5360"
       width="48"
       height="72.000999"
       id="rect2" /><path
       inkscape:connector-curvature="0"
       style="fill:#6f6571"
       d="m 280.003,424.001 h -32 v -32 c 0,-8.837 7.163,-16 16,-16 h 16 z"
       id="path4" /><path
       inkscape:connector-curvature="0"
       style="fill:#aea8af"
       d="M 320.003,456.002 H 192.002 c -4.418,0 -8,-3.582 -8,-8 v -16 c 0,-4.418 3.582,-8 8,-8 h 128.001 c 4.418,0 8,3.582 8,8 v 16 c 0,4.419 -3.581,8 -8,8 z"
       id="path6" /><path
       inkscape:connector-curvature="0"
       style="fill:#dbd9dc"
       d="m 511.56,322.743 -40,-240.002 C 468.99,67.249 455.716,55.999 439.997,55.999 H 72.001 c -15.703,0 -28.977,11.242 -31.563,26.742 l -40,240.002 c -1.547,9.297 1.055,18.75 7.148,25.945 6.094,7.188 14.992,11.313 24.414,11.313 h 447.996 c 9.43,0 18.336,-4.125 24.422,-11.32 6.095,-7.195 8.697,-16.648 7.142,-25.938 z"
       id="path8" /><g
       id="g42">
	<path
   inkscape:connector-curvature="0"
   style="fill:#5a78be"
   d="m 41.224,215.999 h 81.546 c 4.684,0 8.366,4.006 7.972,8.674 l -3.382,40 c -0.35,4.142 -3.815,7.326 -7.972,7.326 H 34.557 c -4.944,0 -8.704,-4.439 -7.891,-9.315 l 6.667,-40 c 0.643,-3.857 3.981,-6.685 7.891,-6.685 z"
   id="path10" />
	<path
   inkscape:connector-curvature="0"
   style="fill:#5a78be"
   d="m 53.224,143.999 h 75.634 c 4.684,0 8.366,4.006 7.972,8.674 l -3.382,40 c -0.35,4.142 -3.815,7.326 -7.972,7.326 H 46.557 c -4.944,0 -8.704,-4.439 -7.891,-9.315 l 6.667,-40 c 0.643,-3.857 3.981,-6.685 7.891,-6.685 z"
   id="path12" />
	<path
   inkscape:connector-curvature="0"
   style="fill:#5a78be"
   d="m 465.44,199.999 h -78.914 c -4.157,0 -7.621,-3.184 -7.972,-7.326 l -3.381,-40 c -0.395,-4.667 3.287,-8.674 7.972,-8.674 h 75.629 c 3.911,0 7.248,2.827 7.891,6.685 l 6.666,40 c 0.813,4.876 -2.947,9.315 -7.891,9.315 z"
   id="path14" />
	<path
   inkscape:connector-curvature="0"
   style="fill:#5a78be"
   d="m 354.417,199.999 h -82.415 c -4.418,0 -8,-3.582 -8,-8 v -40 c 0,-4.418 3.582,-8 8,-8 h 79.034 c 4.157,0 7.621,3.184 7.972,7.326 l 3.381,40 c 0.395,4.668 -3.288,8.674 -7.972,8.674 z"
   id="path16" />
	<path
   inkscape:connector-curvature="0"
   style="fill:#5a78be"
   d="m 264.003,119.999 v -40 c 0,-4.418 3.582,-8 8,-8 h 72.948 c 4.157,0 7.621,3.184 7.972,7.326 l 3.381,40 c 0.395,4.667 -3.287,8.674 -7.972,8.674 h -76.329 c -4.418,0 -8,-3.581 -8,-8 z"
   id="path18" />
	<path
   inkscape:connector-curvature="0"
   style="fill:#5a78be"
   d="m 240.002,127.999 h -76.33 c -4.684,0 -8.366,-4.006 -7.972,-8.674 l 3.382,-40 c 0.35,-4.142 3.815,-7.326 7.972,-7.326 h 72.948 c 4.418,0 8,3.582 8,8 v 40 c 0,4.419 -3.581,8 -8,8 z"
   id="path20" />
	<path
   inkscape:connector-curvature="0"
   style="fill:#5a78be"
   d="m 248.002,151.999 v 40 c 0,4.418 -3.582,8 -8,8 h -82.418 c -4.684,0 -8.366,-4.007 -7.972,-8.674 l 3.382,-40 c 0.35,-4.142 3.815,-7.326 7.972,-7.326 h 79.036 c 4.419,0 8,3.582 8,8 z"
   id="path22" />
	<path
   inkscape:connector-curvature="0"
   style="fill:#5a78be"
   d="m 154.878,215.999 h 85.124 c 4.418,0 8,3.582 8,8 v 40 c 0,4.418 -3.582,8 -8,8 h -88.506 c -4.684,0 -8.366,-4.007 -7.972,-8.674 l 3.382,-40 c 0.351,-4.142 3.815,-7.326 7.972,-7.326 z"
   id="path24" />
	<path
   inkscape:connector-curvature="0"
   style="fill:#5a78be"
   d="m 248.002,296 v 40 c 0,4.418 -3.582,8 -8,8 h -94.594 c -4.684,0 -8.366,-4.007 -7.972,-8.674 l 3.382,-40 c 0.35,-4.142 3.815,-7.326 7.972,-7.326 h 91.212 c 4.419,0 8,3.582 8,8 z"
   id="path26" />
	<path
   inkscape:connector-curvature="0"
   style="fill:#5a78be"
   d="m 272.003,288 h 91.206 c 4.157,0 7.621,3.184 7.972,7.326 l 3.381,40 c 0.395,4.667 -3.287,8.674 -7.972,8.674 h -94.587 c -4.418,0 -8,-3.582 -8,-8 v -40 c 0,-4.418 3.582,-8 8,-8 z"
   id="path28" />
	<path
   inkscape:connector-curvature="0"
   style="fill:#5a78be"
   d="m 264.003,264 v -40 c 0,-4.418 3.582,-8 8,-8 h 85.12 c 4.157,0 7.621,3.184 7.972,7.326 l 3.381,40 c 0.395,4.667 -3.287,8.674 -7.972,8.674 h -88.501 c -4.418,0 -8,-3.581 -8,-8 z"
   id="path30" />
	<path
   inkscape:connector-curvature="0"
   style="fill:#5a78be"
   d="m 389.231,215.999 h 81.542 c 3.911,0 7.248,2.827 7.891,6.685 l 6.666,40 c 0.813,4.876 -2.948,9.315 -7.891,9.315 h -84.828 c -4.157,0 -7.621,-3.184 -7.972,-7.326 l -3.381,-40 c -0.393,-4.667 3.289,-8.674 7.973,-8.674 z"
   id="path32" />
	<path
   inkscape:connector-curvature="0"
   style="fill:#5a78be"
   d="m 454.664,78.683 6.667,40 c 0.813,4.876 -2.948,9.315 -7.891,9.315 h -73 c -4.157,0 -7.621,-3.184 -7.972,-7.326 l -3.381,-40 c -0.395,-4.667 3.287,-8.674 7.972,-8.674 h 69.715 c 3.91,0 7.247,2.828 7.89,6.685 z"
   id="path34" />
	<path
   inkscape:connector-curvature="0"
   style="fill:#5a78be"
   d="m 57.334,78.683 c 0.643,-3.858 3.98,-6.685 7.891,-6.685 h 69.722 c 4.684,0 8.366,4.006 7.972,8.674 l -3.382,40 c -0.35,4.142 -3.815,7.326 -7.972,7.326 H 58.558 c -4.944,0 -8.704,-4.439 -7.891,-9.315 z"
   id="path36" />
	<path
   inkscape:connector-curvature="0"
   style="fill:#5a78be"
   d="m 19.797,338.345 c -3.047,-3.602 -4.352,-8.328 -3.578,-12.977 l 5.114,-30.682 c 0.643,-3.858 3.98,-6.685 7.891,-6.685 h 87.458 c 4.684,0 8.366,4.007 7.972,8.674 l -3.382,40 c -0.35,4.142 -3.815,7.326 -7.972,7.326 H 32 c -4.71,0 -9.156,-2.062 -12.203,-5.656 z"
   id="path38" />
	<path
   inkscape:connector-curvature="0"
   style="fill:#5a78be"
   d="m 492.209,338.337 c -3.047,3.602 -7.492,5.664 -12.211,5.664 h -81.3 c -4.157,0 -7.621,-3.184 -7.972,-7.326 l -3.381,-40 c -0.395,-4.667 3.287,-8.674 7.972,-8.674 h 87.456 c 3.911,0 7.248,2.827 7.891,6.685 l 5.115,30.69 c 0.773,4.641 -0.524,9.368 -3.57,12.961 z"
   id="path40" />
</g><path
       inkscape:connector-curvature="0"
       style="fill:#9c969e"
       d="m 224.002,448.002 v -16 c 0,-4.418 3.582,-8 8,-8 h -40 c -4.418,0 -8,3.582 -8,8 v 16 c 0,4.418 3.582,8 8,8 h 40 c -4.418,0 -8,-3.582 -8,-8 z"
       id="path44" /><g
       id="g46">
</g><g
       id="g48">
</g><g
       id="g50">
</g><g
       id="g52">
</g><g
       id="g54">
</g><g
       id="g56">
</g><g
       id="g58">
</g><g
       id="g60">
</g><g
       id="g62">
</g><g
       id="g64">
</g><g
       id="g66">
</g><g
       id="g68">
</g><g
       id="g70">
</g><g
       id="g72">
</g><g
       id="g74">
</g></g></g>
</svg>