<?xml version="1.0" encoding="UTF-8" standalone="no"?>
<svg
   xmlns:dc="http://purl.org/dc/elements/1.1/"
   xmlns:cc="http://creativecommons.org/ns#"
   xmlns:rdf="http://www.w3.org/1999/02/22-rdf-syntax-ns#"
   xmlns:svg="http://www.w3.org/2000/svg"
   xmlns="http://www.w3.org/2000/svg"
   xmlns:sodipodi="http://sodipodi.sourceforge.net/DTD/sodipodi-0.dtd"
   xmlns:inkscape="http://www.inkscape.org/namespaces/inkscape"
   height="512pt"
   version="1.1"
   viewBox="0 0 512 512"
   width="512pt"
   id="svg31"
   sodipodi:docname="new_pr_today.svg"
   inkscape:version="0.92.4 (unknown)">
  <metadata
     id="metadata37">
    <rdf:RDF>
      <cc:Work
         rdf:about="">
        <dc:format>image/svg+xml</dc:format>
        <dc:type
           rdf:resource="http://purl.org/dc/dcmitype/StillImage" />
      </cc:Work>
    </rdf:RDF>
  </metadata>
  <defs
     id="defs35" />
  <sodipodi:namedview
     pagecolor="#ffffff"
     bordercolor="#666666"
     borderopacity="1"
     objecttolerance="10"
     gridtolerance="10"
     guidetolerance="10"
     inkscape:pageopacity="0"
     inkscape:pageshadow="2"
     inkscape:window-width="640"
     inkscape:window-height="528"
     id="namedview33"
     showgrid="false"
     inkscape:zoom="0.48889805"
     inkscape:cx="293.0407"
     inkscape:cy="383.69529"
     inkscape:window-x="800"
     inkscape:window-y="33"
     inkscape:window-maximized="0"
     inkscape:current-layer="surface1" />
  <g
     id="surface1"
     transform="matrix(0.59322035,0,0,0.59322035,39.050846,32.542372)">
    <g
       id="g35"
       transform="translate(135.31428,146.28571)">
      <path
         inkscape:connector-curvature="0"
         id="path2"
         style="fill:#ebf5ff;fill-opacity:1;fill-rule:nonzero;stroke:none"
         d="M 256,0 C 187.61719,0 123.33203,26.628906 74.980469,74.980469 26.628906,123.33203 0,187.62109 0,256 c 0,45.00391 11.851562,89.27344 34.273438,128.02734 2.78125,4.8086 7.820312,7.49219 13,7.49219 2.542968,0 5.121093,-0.64844 7.484374,-2.01172 l 69.582028,-40.17187 c 3.44532,-1.99219 5.96094,-5.26953 6.98828,-9.11328 1.02735,-3.84766 0.48829,-7.94532 -1.50781,-11.39063 -12.75,-22.03516 -19.48828,-47.22266 -19.48828,-72.83203 0,-80.32031 65.34766,-145.66797 145.66797,-145.66797 8.28125,0 15,-6.71484 15,-14.999999 V 15 C 271,6.714844 264.28125,0 256,0 Z m 0,0" />
      <path
         inkscape:connector-curvature="0"
         id="path4"
         style="fill:#0059b0;fill-opacity:1;fill-rule:nonzero;stroke:none"
         d="m 199.19531,327.80469 c -3.83984,0 -7.67578,-1.46485 -10.60547,-4.39453 -5.85937,-5.85547 -5.85937,-15.35547 0,-21.21094 L 302.19922,188.58984 c 5.85547,-5.85937 15.35547,-5.85937 21.21094,0 5.85937,5.85547 5.85937,15.35547 0,21.21094 L 209.80078,323.41016 c -2.92969,2.92968 -6.76953,4.39453 -10.60547,4.39453 z m 0,0" />
      <path
         inkscape:connector-curvature="0"
         id="path6"
         style="fill:#00335c;fill-opacity:1;fill-rule:nonzero;stroke:none"
         d="m 301.44531,316.44141 c -3.94922,0 -7.82031,-1.59766 -10.60937,-4.39063 -2.78907,-2.79687 -4.39063,-6.66016 -4.39063,-10.60937 0,-3.94922 1.60156,-7.8086 4.39063,-10.60938 2.78906,-2.78906 6.66015,-4.39062 10.60937,-4.39062 3.94922,0 7.8125,1.60156 10.60156,4.39062 2.80079,2.80078 4.39844,6.66016 4.39844,10.60938 0,3.94921 -1.60156,7.8125 -4.39844,10.60937 -2.78906,2.79297 -6.65234,4.39063 -10.60156,4.39063 z m 0,0" />
      <path
         inkscape:connector-curvature="0"
         id="path8"
         style="fill:#0059b0;fill-opacity:1;fill-rule:nonzero;stroke:none"
         d="m 210.55469,225.5625 c -3.94922,0 -7.8086,-1.60938 -10.60938,-4.39844 -2.78906,-2.78906 -4.39062,-6.66015 -4.39062,-10.60937 0,-3.94141 1.60156,-7.8125 4.39062,-10.60157 2.80078,-2.80078 6.66016,-4.39843 10.60938,-4.39843 3.95312,0 7.8125,1.59765 10.60937,4.39843 2.78906,2.78907 4.39063,6.66016 4.39063,10.60157 0,3.94922 -1.60157,7.82031 -4.39063,10.60937 -2.80078,2.78906 -6.65625,4.39844 -10.60937,4.39844 z m 0,0" />
      <path
         inkscape:connector-curvature="0"
         id="path10"
         style="fill:#7fd197;fill-opacity:1;fill-rule:nonzero;stroke:none"
         d="M 437.01953,74.980469 C 388.66406,26.628906 324.37891,0 256,0 247.71484,0 241,6.714844 241,15 v 80.332031 c 0,8.285159 6.71484,14.999999 15,14.999999 80.32031,0 145.66406,65.34766 145.66406,145.66797 0,80.32031 -65.34375,145.66406 -145.66406,145.66406 -51.83594,0 -100.18359,-27.90625 -126.17969,-72.82812 -4.14453,-7.16797 -13.3125,-9.61719 -20.48047,-5.48047 l -69.582028,40.17187 c -3.445312,1.98828 -5.960937,5.26953 -6.988281,9.11328 -1.027343,3.84375 -0.488281,7.94141 1.507813,11.38672 22.105468,38.20703 53.886718,70.2461 91.914066,92.66016 C 165.38281,499.78906 210.26953,512 256,512 324.37891,512 388.66406,485.37109 437.01953,437.01953 485.37109,388.66797 512,324.37891 512,256 512,187.62109 485.37109,123.33203 437.01953,74.980469 Z m 0,0" />
      <path
         inkscape:connector-curvature="0"
         id="path12"
         style="fill:#00b34a;fill-opacity:1;fill-rule:nonzero;stroke:none"
         d="M 437.01953,74.980469 C 388.66406,26.628906 324.37891,0 256,0 247.71484,0 241,6.714844 241,15 v 80.332031 c 0,8.285159 6.71484,14.999999 15,14.999999 80.32031,0 145.66406,65.34766 145.66406,145.66797 0,80.32031 -65.34375,145.66406 -145.66406,145.66406 V 512 c 68.37891,0 132.66406,-26.62891 181.01953,-74.98047 C 485.37109,388.66797 512,324.37891 512,256 512,187.62109 485.37109,123.33203 437.01953,74.980469 Z m 0,0" />
      <path
         inkscape:connector-curvature="0"
         id="path14"
         style="fill:#00874a;fill-opacity:1;fill-rule:nonzero;stroke:none"
         d="m 256,512 c -8.28516,0 -15,-6.71484 -15,-15 v -80.33594 c 0,-8.28125 6.71484,-15 15,-15 8.28125,0 15,6.71875 15,15 V 497 c 0,8.28516 -6.71875,15 -15,15 z m 0,0" />
      <path
         inkscape:connector-curvature="0"
         id="path16"
         style="fill:#00874a;fill-opacity:1;fill-rule:nonzero;stroke:none"
         d="m 376.51172,479.71484 c -5.1836,0 -10.22656,-2.6875 -13.00391,-7.5 l -40.16406,-69.57422 c -4.14453,-7.17187 -1.68359,-16.34765 5.48828,-20.48828 7.17578,-4.14453 16.34766,-1.68359 20.49219,5.48828 l 40.16406,69.57422 c 4.14453,7.17188 1.68359,16.34766 -5.48828,20.48828 -2.36328,1.36329 -4.94141,2.01172 -7.48828,2.01172 z m 0,0" />
      <path
         inkscape:connector-curvature="0"
         id="path18"
         style="fill:#00874a;fill-opacity:1;fill-rule:nonzero;stroke:none"
         d="m 464.69922,391.50391 c -2.54688,0 -5.125,-0.64844 -7.48438,-2.01563 l -69.57031,-40.16406 c -7.17578,-4.14453 -9.63281,-13.31641 -5.49219,-20.49219 4.14453,-7.17578 13.31641,-9.63672 20.49219,-5.48828 l 69.57031,40.16797 c 7.17188,4.14062 9.63282,13.3125 5.48828,20.48828 -2.77734,4.8125 -7.82031,7.50391 -13.0039,7.50391 z m 0,0" />
      <path
         inkscape:connector-curvature="0"
         id="path20"
         style="fill:#00874a;fill-opacity:1;fill-rule:nonzero;stroke:none"
         d="m 497,271 h -80.33594 c -8.28125,0 -15,-6.71484 -15,-15 0,-8.28516 6.71875,-15 15,-15 H 497 c 8.28125,0 15,6.71484 15,15 0,8.28516 -6.71875,15 -15,15 z m 0,0" />
      <path
         inkscape:connector-curvature="0"
         id="path22"
         style="fill:#00874a;fill-opacity:1;fill-rule:nonzero;stroke:none"
         d="m 395.15625,190.66797 c -5.18359,0 -10.22656,-2.6875 -13.00391,-7.50391 -4.14453,-7.17187 -1.68359,-16.34765 5.48828,-20.48828 l 69.57032,-40.16406 c 7.17187,-4.14844 16.34765,-1.6875 20.48828,5.48828 4.14453,7.17578 1.68359,16.34766 -5.48828,20.48828 l -69.57032,40.16797 c -2.35937,1.36328 -4.9414,2.01172 -7.48437,2.01172 z m 0,0" />
      <path
         inkscape:connector-curvature="0"
         id="path24"
         style="fill:#00874a;fill-opacity:1;fill-rule:nonzero;stroke:none"
         d="m 336.32031,131.85937 c -2.54687,0 -5.125,-0.64453 -7.48437,-2.01171 -7.17578,-4.14063 -9.63672,-13.31641 -5.49219,-20.48828 l 40.16797,-69.570318 c 4.14062,-7.175781 13.3125,-9.636718 20.48828,-5.492187 7.17578,4.144531 9.63281,13.316406 5.48828,20.492187 l -40.16406,69.570318 c -2.77735,4.81249 -7.82031,7.49999 -13.00391,7.49999 z m 0,0" />
      <path
         inkscape:connector-curvature="0"
         id="path26"
         style="fill:#00b34a;fill-opacity:1;fill-rule:nonzero;stroke:none"
         d="m 135.48437,479.71484 c -2.54296,0 -5.12109,-0.64843 -7.48437,-2.01172 -7.17578,-4.14062 -9.63281,-13.3164 -5.48828,-20.48828 l 40.16406,-69.57422 c 4.14063,-7.17187 13.3125,-9.63281 20.49219,-5.48828 7.17187,4.14063 9.63281,13.31641 5.48828,20.48828 l -40.16406,69.57422 c -2.78125,4.8086 -7.82032,7.5 -13.00782,7.5 z m 0,0" />
      <path
         inkscape:connector-curvature="0"
         id="path28"
         style="fill:#00335c;fill-opacity:1;fill-rule:nonzero;stroke:none"
         d="m 323.41016,188.58984 c -5.85938,-5.85937 -15.35547,-5.85937 -21.21485,0 L 256,234.78516 v 42.42968 l 67.41016,-67.41406 c 5.85937,-5.85547 5.85937,-15.35547 0,-21.21094 z m 0,0" />
    </g>
  </g>
</svg>
