<?xml version="1.0" encoding="UTF-8" standalone="no"?>
<!-- Generator: Adobe Illustrator 22.1.0, SVG Export Plug-In . SVG Version: 6.00 Build 0)  -->

<svg
   xmlns:dc="http://purl.org/dc/elements/1.1/"
   xmlns:cc="http://creativecommons.org/ns#"
   xmlns:rdf="http://www.w3.org/1999/02/22-rdf-syntax-ns#"
   xmlns:svg="http://www.w3.org/2000/svg"
   xmlns="http://www.w3.org/2000/svg"
   xmlns:sodipodi="http://sodipodi.sourceforge.net/DTD/sodipodi-0.dtd"
   xmlns:inkscape="http://www.inkscape.org/namespaces/inkscape"
   version="1.1"
   id="Layer_3"
   x="0px"
   y="0px"
   viewBox="0 0 64 64"
   style="enable-background:new 0 0 64 64;"
   xml:space="preserve"
   width="512"
   height="512"
   sodipodi:docname="new_dg_colored.svg"
   inkscape:version="0.92.4 (unknown)"><metadata
   id="metadata75"><rdf:RDF><cc:Work
       rdf:about=""><dc:format>image/svg+xml</dc:format><dc:type
         rdf:resource="http://purl.org/dc/dcmitype/StillImage" /></cc:Work></rdf:RDF></metadata><defs
   id="defs73" /><sodipodi:namedview
   pagecolor="#ffffff"
   bordercolor="#666666"
   borderopacity="1"
   objecttolerance="10"
   gridtolerance="10"
   guidetolerance="10"
   inkscape:pageopacity="0"
   inkscape:pageshadow="2"
   inkscape:window-width="640"
   inkscape:window-height="480"
   id="namedview71"
   showgrid="false"
   inkscape:zoom="0.4609375"
   inkscape:cx="256"
   inkscape:cy="342.77966"
   inkscape:window-x="75"
   inkscape:window-y="34"
   inkscape:window-maximized="0"
   inkscape:current-layer="Layer_3" />
<g
   id="g68"
   transform="matrix(0.56697914,0,0,0.56697914,13.721074,11.555658)">
	<rect
   x="22"
   y="24"
   style="fill:#7b7a7c"
   width="8"
   height="4"
   id="rect2" />
	<path
   style="fill:#a4a3a5"
   d="M 44,24 H 10 C 8.895,24 8,23.105 8,22 v -2 c 0,-1.105 0.895,-2 2,-2 h 34 c 1.105,0 2,0.895 2,2 v 2 c 0,1.105 -0.895,2 -2,2 z"
   id="path4"
   inkscape:connector-curvature="0" />
	<rect
   x="12"
   y="18"
   style="fill:#7b7a7c"
   width="4"
   height="6"
   id="rect6" />
	<rect
   x="38"
   y="18"
   style="fill:#7b7a7c"
   width="4"
   height="6"
   id="rect8" />
	<rect
   x="4"
   y="28"
   style="fill:#70a17b"
   width="46"
   height="28"
   id="rect10" />
	<rect
   x="4"
   y="28"
   style="fill:#95d6a4"
   width="43"
   height="28"
   id="rect12" />
	<rect
   x="32"
   y="32"
   style="fill:#a4a3a5"
   width="14"
   height="8"
   id="rect14" />
	<rect
   x="32"
   y="44"
   style="fill:#a4a3a5"
   width="14"
   height="8"
   id="rect16" />
	<rect
   x="36"
   y="32"
   style="fill:#7b7a7c"
   width="6"
   height="4"
   id="rect18" />
	<rect
   x="36"
   y="44"
   style="fill:#7b7a7c"
   width="6"
   height="4"
   id="rect20" />
	<polyline
   style="fill:#7b7a7c"
   points="12,34 8,34 8,38 12,38  "
   id="polyline22" />
	<rect
   x="8"
   y="34"
   style="fill:#a4a3a5"
   width="2"
   height="4"
   id="rect24" />
	<polyline
   style="fill:#7b7a7c"
   points="12,46 8,46 8,50 12,50  "
   id="polyline26" />
	<rect
   x="8"
   y="46"
   style="fill:#a4a3a5"
   width="2"
   height="4"
   id="rect28" />
	<rect
   x="12"
   y="32"
   style="fill:#a4a3a5"
   width="16"
   height="20"
   id="rect30" />
	<rect
   x="54"
   y="28"
   style="fill:#54795c"
   width="4"
   height="8"
   id="rect32" />
	<rect
   x="54"
   y="28"
   style="fill:#70a17b"
   width="2"
   height="8"
   id="rect34" />
	<rect
   x="50"
   y="36"
   style="fill:#70a17b"
   width="10"
   height="20"
   id="rect36" />
	<rect
   x="50"
   y="36"
   style="fill:#95d6a4"
   width="7"
   height="20"
   id="rect38" />
	<rect
   x="2"
   y="56"
   style="fill:#7b7a7c"
   width="60"
   height="6"
   id="rect40" />
	<rect
   x="2"
   y="56"
   style="fill:#a4a3a5"
   width="56"
   height="6"
   id="rect42" />
	<g
   id="g48">
		<g
   id="g46">
			<rect
   x="23"
   y="39"
   style="fill:#7b7a7c"
   width="2"
   height="6"
   id="rect44" />
		</g>
	</g>
	<g
   id="g54">
		<g
   id="g52">
			<path
   style="fill:#ffe17d"
   d="M 29.707,14.707 28.293,13.293 32.586,9 H 29 C 28.596,9 28.23,8.757 28.076,8.383 27.921,8.009 28.007,7.579 28.293,7.293 l 6,-6 1.414,1.414 L 31.414,7 H 35 c 0.404,0 0.77,0.243 0.924,0.617 0.155,0.374 0.069,0.804 -0.217,1.09 z"
   id="path50"
   inkscape:connector-curvature="0" />
		</g>
	</g>
	<g
   id="g60">
		<g
   id="g58">
			<path
   style="fill:#ffe17d"
   d="M 56.707,16.707 55.293,15.293 59.586,11 H 56 c -0.404,0 -0.77,-0.243 -0.924,-0.617 -0.155,-0.374 -0.069,-0.804 0.217,-1.09 l 6,-6 1.414,1.414 L 58.414,9 H 62 c 0.404,0 0.77,0.243 0.924,0.617 0.155,0.374 0.069,0.804 -0.217,1.09 z"
   id="path56"
   inkscape:connector-curvature="0" />
		</g>
	</g>
	<g
   id="g66">
		<g
   id="g64">
			<path
   style="fill:#ffe17d"
   d="M 2.707,16.707 1.293,15.293 5.586,11 H 2 C 1.596,11 1.23,10.757 1.076,10.383 0.921,10.009 1.007,9.579 1.293,9.293 l 6,-6 L 8.707,4.707 4.414,9 H 8 c 0.404,0 0.77,0.243 0.924,0.617 0.155,0.374 0.069,0.804 -0.217,1.09 z"
   id="path62"
   inkscape:connector-curvature="0" />
		</g>
	</g>
</g>
</svg>