<?xml version="1.0" encoding="UTF-8" standalone="no"?>
<!-- Generator: Adobe Illustrator 19.0.0, SVG Export Plug-In . SVG Version: 6.00 Build 0)  -->

<svg
   xmlns:dc="http://purl.org/dc/elements/1.1/"
   xmlns:cc="http://creativecommons.org/ns#"
   xmlns:rdf="http://www.w3.org/1999/02/22-rdf-syntax-ns#"
   xmlns:svg="http://www.w3.org/2000/svg"
   xmlns="http://www.w3.org/2000/svg"
   xmlns:sodipodi="http://sodipodi.sourceforge.net/DTD/sodipodi-0.dtd"
   xmlns:inkscape="http://www.inkscape.org/namespaces/inkscape"
   version="1.1"
   id="Capa_1"
   x="0px"
   y="0px"
   viewBox="0 0 512.076 512.076"
   style="enable-background:new 0 0 512.076 512.076;"
   xml:space="preserve"
   sodipodi:docname="new_plug-load-colored.svg"
   inkscape:version="0.92.4 (unknown)"><metadata
   id="metadata61"><rdf:RDF><cc:Work
       rdf:about=""><dc:format>image/svg+xml</dc:format><dc:type
         rdf:resource="http://purl.org/dc/dcmitype/StillImage" /></cc:Work></rdf:RDF></metadata><defs
   id="defs59" /><sodipodi:namedview
   pagecolor="#ffffff"
   bordercolor="#666666"
   borderopacity="1"
   objecttolerance="10"
   gridtolerance="10"
   guidetolerance="10"
   inkscape:pageopacity="0"
   inkscape:pageshadow="2"
   inkscape:window-width="640"
   inkscape:window-height="531"
   id="namedview57"
   showgrid="false"
   inkscape:zoom="0.65176733"
   inkscape:cx="275.89343"
   inkscape:cy="267.09418"
   inkscape:window-x="381"
   inkscape:window-y="200"
   inkscape:window-maximized="0"
   inkscape:current-layer="Capa_1" />
























<g
   id="g90"
   transform="matrix(0.54225692,0,0,0.54225692,121.54037,99.813243)"><g
     id="g6">
	<path
   id="path2"
   d="m 177.379,274.489 -24.09,-24.09 63.612,-63.612 c 6.656,-6.656 17.443,-6.656 24.09,0 v 0 c 6.656,6.656 6.656,17.443 0,24.09 z"
   style="fill:#ebba16"
   inkscape:connector-curvature="0" />
	<path
   id="path4"
   d="m 262.9,357.627 -24.09,-24.09 62.42,-62.42 c 6.656,-6.656 17.443,-6.656 24.09,0 v 0 c 6.656,6.656 6.656,17.443 0,24.09 z"
   style="fill:#ebba16"
   inkscape:connector-curvature="0" />
</g><rect
     id="rect8"
     height="112.356"
     width="34.074001"
     style="fill:#6c797a"
     transform="matrix(-0.7071,-0.7071,0.7071,-0.7071,749.0724,413.818)"
     y="-4.4070001"
     x="443.20401" /><path
     id="path10"
     d="M 423.774,148.572 363.535,88.333 385.118,66.75 c 6.894,-6.894 18.07,-6.894 24.964,0 l 35.275,35.275 c 6.894,6.894 6.894,18.07 0,24.964 z"
     style="fill:#afb6bb"
     inkscape:connector-curvature="0" /><path
     id="path12"
     d="M 385.56,283.166 228.941,126.547 281.633,73.855 c 24.126,-24.126 63.241,-24.126 87.367,0 l 69.244,69.244 c 24.126,24.126 24.126,63.241 0,87.367 z"
     style="fill:#e7eced"
     inkscape:connector-curvature="0" /><path
     id="path14"
     d="m 367.489,129.354 c -2.26,0 -4.52,-0.865 -6.241,-2.586 L 337.149,102.66 c -6.515,-6.515 -17.117,-6.515 -23.64,0 l -24.099,24.108 c -3.443,3.452 -9.031,3.452 -12.482,0 -3.452,-3.452 -3.452,-9.031 0,-12.482 l 24.099,-24.108 c 13.4,-13.4 35.196,-13.4 48.605,0 l 24.099,24.108 c 3.452,3.452 3.452,9.031 0,12.482 -1.731,1.73 -3.99,2.586 -6.242,2.586 z"
     style="fill:#afb6bb"
     inkscape:connector-curvature="0" /><rect
     id="rect16"
     height="114.042"
     width="34.074001"
     style="fill:#6c797a"
     transform="matrix(0.7071,0.7071,-0.7071,0.7071,340.42,97.571)"
     y="402.68799"
     x="35.394001" /><path
     id="path18"
     d="m 88.326,363.541 60.239,60.239 -21.583,21.583 c -6.894,6.894 -18.07,6.894 -24.964,0 L 66.743,410.088 c -6.894,-6.894 -6.894,-18.07 0,-24.964 z"
     style="fill:#afb6bb"
     inkscape:connector-curvature="0" /><path
     id="path20"
     d="m 138.59,216.906 156.61,156.61 -64.742,64.742 c -24.126,24.126 -63.241,24.126 -87.367,0 L 73.847,369.014 c -24.126,-24.126 -24.126,-63.241 0,-87.367 z"
     style="fill:#e7eced"
     inkscape:connector-curvature="0" /><rect
     id="rect22"
     height="68.148003"
     width="153.334"
     style="fill:#366db6"
     transform="matrix(-0.7071,-0.7071,0.7071,-0.7071,45.2778,705.4949)"
     y="309.29599"
     x="92.084999" /><path
     id="path24"
     d="m 186.78,370.295 c -2.26,0 -4.52,-0.865 -6.241,-2.586 l -36.14,-36.149 c -3.452,-3.452 -3.452,-9.031 0,-12.482 3.452,-3.452 9.031,-3.452 12.482,0 l 36.14,36.149 c 3.452,3.452 3.452,9.031 0,12.482 -1.721,1.729 -3.981,2.586 -6.241,2.586 z"
     style="fill:#ffffff"
     inkscape:connector-curvature="0" /><g
     id="g26">
</g><g
     id="g28">
</g><g
     id="g30">
</g><g
     id="g32">
</g><g
     id="g34">
</g><g
     id="g36">
</g><g
     id="g38">
</g><g
     id="g40">
</g><g
     id="g42">
</g><g
     id="g44">
</g><g
     id="g46">
</g><g
     id="g48">
</g><g
     id="g50">
</g><g
     id="g52">
</g><g
     id="g54">
</g></g>
</svg>