<?xml version="1.0" encoding="UTF-8" standalone="no"?>
<!-- Generator: Adobe Illustrator 19.0.0, SVG Export Plug-In . SVG Version: 6.00 Build 0)  -->

<svg
   xmlns:dc="http://purl.org/dc/elements/1.1/"
   xmlns:cc="http://creativecommons.org/ns#"
   xmlns:rdf="http://www.w3.org/1999/02/22-rdf-syntax-ns#"
   xmlns:svg="http://www.w3.org/2000/svg"
   xmlns="http://www.w3.org/2000/svg"
   xmlns:sodipodi="http://sodipodi.sourceforge.net/DTD/sodipodi-0.dtd"
   xmlns:inkscape="http://www.inkscape.org/namespaces/inkscape"
   version="1.1"
   id="Capa_1"
   x="0px"
   y="0px"
   viewBox="0 0 472.113 472.113"
   style="enable-background:new 0 0 472.113 472.113;"
   xml:space="preserve"
   sodipodi:docname="new_tree_saved.svg"
   inkscape:version="0.92.4 (unknown)"><metadata
   id="metadata51"><rdf:RDF><cc:Work
       rdf:about=""><dc:format>image/svg+xml</dc:format><dc:type
         rdf:resource="http://purl.org/dc/dcmitype/StillImage" /></cc:Work></rdf:RDF></metadata><defs
   id="defs49" /><sodipodi:namedview
   pagecolor="#ffffff"
   bordercolor="#666666"
   borderopacity="1"
   objecttolerance="10"
   gridtolerance="10"
   guidetolerance="10"
   inkscape:pageopacity="0"
   inkscape:pageshadow="2"
   inkscape:window-width="640"
   inkscape:window-height="533"
   id="namedview47"
   showgrid="false"
   inkscape:zoom="0.70693753"
   inkscape:cx="233.32078"
   inkscape:cy="221.14839"
   inkscape:window-x="793"
   inkscape:window-y="34"
   inkscape:window-maximized="0"
   inkscape:current-layer="Capa_1" />





















<g
   id="g75"
   transform="matrix(0.50123625,0,0,0.50123625,126.27372,114.93866)"><path
     id="path2"
     d="m 260.066,216.113 c 0.013,-21.3 -10.582,-41.208 -28.256,-53.096 19.303,-24.13 15.39,-59.34 -8.74,-78.644 -9.935,-7.948 -22.282,-12.272 -35.004,-12.26 -0.8,0 -1.6,0.088 -2.4,0.12 8.957,-29.602 -7.779,-60.861 -37.381,-69.819 -29.602,-8.958 -60.861,7.779 -69.819,37.381 -3.2,10.576 -3.2,21.861 0,32.437 -0.8,0 -1.6,-0.12 -2.4,-0.12 -30.901,-0.029 -55.975,24.998 -56.004,55.9 -0.012,12.723 4.313,25.069 12.26,35.004 -29.324,19.735 -37.098,59.504 -17.363,88.829 4.613,6.854 10.509,12.751 17.363,17.363 -19.303,24.13 -15.39,59.34 8.74,78.644 9.935,7.948 22.282,12.272 35.004,12.26 h 112 c 30.901,0.029 55.975,-24.998 56.004,-55.9 0.012,-12.723 -4.313,-25.069 -12.26,-35.004 17.674,-11.887 28.268,-31.795 28.256,-53.095 z"
     style="fill:#6a9923"
     inkscape:connector-curvature="0" /><path
     id="path4"
     d="m 193.794,178.513 c -3.08,-3.168 -8.144,-3.239 -11.312,-0.16 l -42.416,41.024 V 104.113 c 0,-4.418 -3.582,-8 -8,-8 -4.418,0 -8,3.582 -8,8 v 56.688 L 87.722,124.457 c -3.178,-3.069 -8.243,-2.981 -11.312,0.197 -2.994,3.1 -2.994,8.015 0,11.115 l 47.656,47.656 V 292.801 L 89.722,258.457 c -3.178,-3.07 -8.242,-2.982 -11.312,0.196 -2.995,3.1 -2.995,8.016 0,11.116 l 45.656,45.656 v 148.688 c 0,4.418 3.582,8 8,8 4.418,0 8,-3.582 8,-8 v -222.48 l 53.6,-51.784 c 3.166,-3.082 3.233,-8.147 0.151,-11.313 -0.008,-0.007 -0.016,-0.015 -0.023,-0.023 z"
     style="fill:#618c20"
     inkscape:connector-curvature="0" /><path
     id="path6"
     d="m 468.066,216.113 c 0.013,-21.3 -10.582,-41.208 -28.256,-53.096 19.303,-24.13 15.391,-59.34 -8.74,-78.644 -9.935,-7.948 -22.282,-12.272 -35.004,-12.26 -0.8,0 -1.6,0.088 -2.4,0.12 8.957,-29.602 -7.779,-60.861 -37.381,-69.819 -29.602,-8.957 -60.861,7.779 -69.819,37.381 -3.2,10.576 -3.2,21.861 0,32.437 -0.8,0 -1.6,-0.12 -2.4,-0.12 -30.901,-0.029 -55.975,24.998 -56.004,55.9 -0.012,12.723 4.313,25.069 12.26,35.004 -29.324,19.735 -37.098,59.504 -17.363,88.829 4.613,6.854 10.509,12.751 17.363,17.363 -19.303,24.13 -15.39,59.34 8.74,78.644 9.935,7.948 22.282,12.272 35.004,12.26 h 112 c 30.901,0.029 55.975,-24.998 56.004,-55.9 0.012,-12.723 -4.313,-25.069 -12.26,-35.004 17.674,-11.887 28.268,-31.795 28.256,-53.095 z"
     style="fill:#6a9923"
     inkscape:connector-curvature="0" /><path
     id="path8"
     d="m 401.722,178.457 c -3.124,-3.123 -8.188,-3.123 -11.312,0 l -42.344,42.344 V 104.113 c 0,-4.418 -3.582,-8 -8,-8 -4.418,0 -8,3.582 -8,8 v 56.688 l -36.344,-36.344 c -3.178,-3.07 -8.242,-2.982 -11.312,0.196 -2.994,3.1 -2.994,8.015 0,11.116 l 47.656,47.656 v 109.376 l -34.344,-34.344 c -3.178,-3.07 -8.242,-2.982 -11.312,0.196 -2.995,3.1 -2.995,8.016 0,11.116 l 45.656,45.656 v 148.688 c 0,4.418 3.582,8 8,8 4.418,0 8,-3.582 8,-8 v -221.24 c 0.597,-0.295 1.154,-0.666 1.656,-1.104 l 52,-52 c 3.123,-3.124 3.123,-8.188 0,-11.312 z"
     style="fill:#618c20"
     inkscape:connector-curvature="0" /><path
     id="path10"
     d="m 364.066,216.113 c 0.013,-21.3 -10.582,-41.208 -28.256,-53.096 19.303,-24.13 15.391,-59.34 -8.74,-78.644 -9.935,-7.948 -22.282,-12.272 -35.004,-12.26 -0.8,0 -1.6,0.088 -2.4,0.12 8.957,-29.602 -7.779,-60.861 -37.382,-69.819 -29.602,-8.957 -60.861,7.779 -69.818,37.381 -3.2,10.576 -3.2,21.861 0,32.437 -0.8,0 -1.6,-0.12 -2.4,-0.12 -30.901,-0.029 -55.975,24.998 -56.004,55.9 -0.012,12.723 4.313,25.069 12.26,35.004 -29.324,19.735 -37.098,59.504 -17.363,88.829 4.613,6.854 10.509,12.751 17.363,17.363 -19.303,24.13 -15.39,59.34 8.74,78.644 9.935,7.948 22.282,12.272 35.004,12.26 h 112 c 30.901,0.029 55.975,-24.998 56.004,-55.9 0.012,-12.723 -4.313,-25.069 -12.26,-35.004 17.674,-11.887 28.268,-31.795 28.256,-53.095 z"
     style="fill:#88b337"
     inkscape:connector-curvature="0" /><path
     id="path12"
     d="m 297.722,178.457 c -3.124,-3.123 -8.188,-3.123 -11.312,0 l -42.344,42.344 V 104.113 c 0,-4.418 -3.582,-8 -8,-8 -4.418,0 -8,3.582 -8,8 v 56.688 l -36.344,-36.344 c -3.178,-3.069 -8.243,-2.981 -11.312,0.197 -2.994,3.1 -2.994,8.015 0,11.115 l 47.656,47.656 v 109.376 l -34.344,-34.344 c -3.178,-3.069 -8.243,-2.982 -11.312,0.196 -2.994,3.1 -2.994,8.015 0,11.116 l 45.656,45.656 v 148.688 c 0,4.418 3.582,8 8,8 4.418,0 8,-3.582 8,-8 v -221.24 c 0.597,-0.295 1.154,-0.666 1.656,-1.104 l 52,-52 c 3.123,-3.124 3.123,-8.188 0,-11.312 z"
     style="fill:#6a9923"
     inkscape:connector-curvature="0" /><path
     id="path14"
     d="m 372.066,472.113 h -272 c -4.418,0 -8,-3.582 -8,-8 0,-4.418 3.582,-8 8,-8 h 272 c 4.418,0 8,3.582 8,8 0,4.418 -3.582,8 -8,8 z"
     style="fill:#595959"
     inkscape:connector-curvature="0" /><g
     id="g16">
</g><g
     id="g18">
</g><g
     id="g20">
</g><g
     id="g22">
</g><g
     id="g24">
</g><g
     id="g26">
</g><g
     id="g28">
</g><g
     id="g30">
</g><g
     id="g32">
</g><g
     id="g34">
</g><g
     id="g36">
</g><g
     id="g38">
</g><g
     id="g40">
</g><g
     id="g42">
</g><g
     id="g44">
</g></g>
</svg>