<?xml version="1.0" encoding="UTF-8" standalone="no"?>
<svg
   xmlns:dc="http://purl.org/dc/elements/1.1/"
   xmlns:cc="http://creativecommons.org/ns#"
   xmlns:rdf="http://www.w3.org/1999/02/22-rdf-syntax-ns#"
   xmlns:svg="http://www.w3.org/2000/svg"
   xmlns="http://www.w3.org/2000/svg"
   xmlns:sodipodi="http://sodipodi.sourceforge.net/DTD/sodipodi-0.dtd"
   xmlns:inkscape="http://www.inkscape.org/namespaces/inkscape"
   height="512pt"
   viewBox="0 0 512.00069 512"
   width="512pt"
   version="1.1"
   id="svg38"
   sodipodi:docname="new_battery_colored.svg"
   inkscape:version="0.92.4 (unknown)">
  <metadata
     id="metadata44">
    <rdf:RDF>
      <cc:Work
         rdf:about="">
        <dc:format>image/svg+xml</dc:format>
        <dc:type
           rdf:resource="http://purl.org/dc/dcmitype/StillImage" />
      </cc:Work>
    </rdf:RDF>
  </metadata>
  <defs
     id="defs42" />
  <sodipodi:namedview
     pagecolor="#ffffff"
     bordercolor="#666666"
     borderopacity="1"
     objecttolerance="10"
     gridtolerance="10"
     guidetolerance="10"
     inkscape:pageopacity="0"
     inkscape:pageshadow="2"
     inkscape:window-width="711"
     inkscape:window-height="480"
     id="namedview40"
     showgrid="false"
     inkscape:zoom="0.34570313"
     inkscape:cx="447.87718"
     inkscape:cy="341.33333"
     inkscape:window-x="75"
     inkscape:window-y="34"
     inkscape:window-maximized="0"
     inkscape:current-layer="svg38" />
  <g
     id="g64"
     transform="matrix(0.49999934,0,0,0.49999934,134.50865,123.1527)">
    <path
       id="path2"
       d="M 358.39844,93.867188 H 8.535156 V 128 H 503.46484 V 93.867188 Z m 0,0"
       inkscape:connector-curvature="0"
       style="fill:#ff9478" />
    <path
       id="path4"
       d="M 153.60156,59.734375 H 68.265625 v 34.132813 h 85.335935 z m 0,0"
       inkscape:connector-curvature="0"
       style="fill:#898890" />
    <path
       id="path6"
       d="M 93.867188,8.535156 H 128 V 59.734375 H 93.867188 Z m 0,0"
       inkscape:connector-curvature="0"
       style="fill:#c6c5ca" />
    <path
       id="path8"
       d="m 443.73437,59.734375 h -85.33593 v 34.132813 h 85.33593 z m 0,0"
       inkscape:connector-curvature="0"
       style="fill:#898890" />
    <path
       id="path10"
       d="m 384,8.535156 h 34.13281 V 59.734375 H 384 Z m 0,0"
       inkscape:connector-curvature="0"
       style="fill:#c6c5ca" />
    <path
       id="path12"
       d="m 34.132812,460.80078 c 0,4.71094 3.820313,8.53125 8.535157,8.53125 h 42.664062 v -68.26562 h 34.136719 v 68.26562 h 42.66406 v -68.26562 h 34.13281 v 68.26562 h 42.66797 v -68.26562 h 34.13282 v 68.26562 h 42.66796 v -68.26562 h 34.13282 v 68.26562 h 42.66797 v -68.26562 h 34.13281 v 68.26562 h 42.66797 c 4.71094,0 8.53125,-3.82031 8.53125,-8.53125 V 128 H 34.132812 Z M 401.06641,162.13281 v 25.60156 z m -119.46485,17.06641 -8.53515,59.73437 h 34.13281 l -68.26563,68.26563 8.53125,-59.73047 h -34.13281 z m 0,0"
       inkscape:connector-curvature="0"
       style="fill:#ffeb99" />
    <g
       id="g24"
       style="fill:#ffb655">
      <path
         id="path14"
         d="m 238.93359,401.06641 h 34.13282 v 68.26562 h -34.13282 z m 0,0"
         inkscape:connector-curvature="0" />
      <path
         id="path16"
         d="m 315.73437,401.06641 h 34.13282 v 68.26562 h -34.13282 z m 0,0"
         inkscape:connector-curvature="0" />
      <path
         id="path18"
         d="m 392.53125,401.06641 h 34.13672 v 68.26562 h -34.13672 z m 0,0"
         inkscape:connector-curvature="0" />
      <path
         id="path20"
         d="m 162.13281,401.06641 h 34.13281 v 68.26562 h -34.13281 z m 0,0"
         inkscape:connector-curvature="0" />
      <path
         id="path22"
         d="m 85.332031,401.06641 h 34.132809 v 68.26562 H 85.332031 Z m 0,0"
         inkscape:connector-curvature="0" />
    </g>
    <path
       id="path26"
       d="m 238.93359,307.19922 68.26563,-68.26563 h -34.13281 l 8.53515,-59.73437 -68.26953,68.26953 h 34.13281 z m 0,0"
       inkscape:connector-curvature="0"
       style="fill:#ff6243" />
    <path
       id="path28"
       d="M 503.46484,85.332031 H 452.26562 V 59.734375 c 0,-4.714844 -3.82031,-8.535156 -8.53125,-8.535156 h -17.0664 V 8.535156 C 426.66797,3.820312 422.84375,0 418.13281,0 H 384 c -4.71484,0 -8.53125,3.820312 -8.53125,8.535156 v 42.664063 h -17.07031 c -4.71094,0 -8.53125,3.824219 -8.53125,8.535156 V 85.335938 H 162.13281 V 59.734375 c 0,-4.714844 -3.82031,-8.535156 -8.53125,-8.535156 H 136.53125 V 8.535156 C 136.53125,3.820312 132.71094,0 128,0 H 93.867188 C 89.152344,0 85.332031,3.820312 85.332031,8.535156 V 51.199219 H 68.265625 c -4.710937,0 -8.53125,3.824219 -8.53125,8.535156 V 85.335938 H 8.535156 C 3.820312,85.332031 0,89.152344 0,93.867188 V 128 c 0,4.71484 3.820312,8.53516 8.535156,8.53516 h 17.066406 v 324.26562 c 0,9.42578 7.640626,17.06641 17.066407,17.06641 H 469.33203 c 9.42578,0 17.06641,-7.64063 17.06641,-17.06641 V 136.53516 h 17.0664 C 508.17969,136.53516 512,132.71484 512,128 V 93.867188 c 0,-4.714844 -3.82031,-8.535157 -8.53516,-8.535157 z M 392.53125,17.066406 h 17.06641 v 34.132813 h -17.06641 z m -25.59766,51.199219 h 68.26563 V 85.332031 H 366.93359 Z M 102.39844,17.066406 h 17.0664 v 34.132813 h -17.0664 z M 76.800781,68.265625 H 145.06641 V 85.332031 H 76.800781 Z M 93.867188,460.80078 v -51.19922 h 17.066402 v 51.19922 z m 76.800782,0 v -51.19922 h 17.0664 v 51.19922 z m 76.79687,0 v -51.19922 h 17.07032 v 51.19922 z m 76.80078,0 v -51.19922 h 17.06641 v 51.19922 z m 76.80079,0 v -51.19922 h 17.0664 v 51.19922 z m 68.26562,0 h -34.13281 v -59.73437 c 0,-4.71094 -3.82031,-8.53516 -8.53125,-8.53516 h -34.13281 c -4.71485,0 -8.53516,3.82422 -8.53516,8.53516 v 59.73437 h -25.60156 v -59.73437 c 0,-4.71094 -3.82032,-8.53516 -8.53125,-8.53516 h -34.13282 c -4.71484,0 -8.53515,3.82422 -8.53515,8.53516 v 59.73437 h -25.59766 v -59.73437 c 0,-4.71094 -3.82031,-8.53516 -8.53515,-8.53516 h -34.13282 c -4.71484,0 -8.53515,3.82422 -8.53515,8.53516 v 59.73437 h -25.59766 v -59.73437 c 0,-4.71094 -3.82031,-8.53516 -8.53516,-8.53516 h -34.13281 c -4.71484,0 -8.53515,3.82422 -8.53515,8.53516 v 59.73437 H 128 v -59.73437 c 0,-4.71094 -3.82031,-8.53516 -8.53516,-8.53516 H 85.332031 c -4.714843,0 -8.535156,3.82422 -8.535156,8.53516 v 59.73437 H 42.667969 V 136.53516 H 469.33203 Z M 494.93359,119.46875 H 17.066406 V 102.39844 H 494.93359 Z m 0,0"
       inkscape:connector-curvature="0"
       style="fill:#3e3d42" />
    <path
       id="path30"
       d="m 503.46484,443.73437 c -4.71093,0 -8.53125,3.82032 -8.53125,8.53125 v 34.13282 c 0,4.71484 -3.82031,8.53515 -8.53515,8.53515 H 25.601562 c -4.714843,0 -8.535156,-3.82031 -8.535156,-8.53515 v -34.13282 c 0,-4.71093 -3.820312,-8.53125 -8.535156,-8.53125 C 3.820312,443.73437 0,447.55469 0,452.26562 v 34.13282 C 0,500.53906 11.460938,512 25.601562,512 H 486.39844 C 500.53906,512 512,500.53906 512,486.39844 v -34.13282 c 0,-4.71093 -3.82031,-8.53125 -8.53516,-8.53125 z m 0,0"
       inkscape:connector-curvature="0"
       style="fill:#3e3d42" />
    <path
       id="path32"
       d="m 85.332031,196.26562 h 51.199219 c 4.71484,0 8.53516,-3.82031 8.53516,-8.53125 0,-4.71484 -3.82032,-8.53515 -8.53516,-8.53515 H 85.332031 c -4.710937,0 -8.53125,3.82031 -8.53125,8.53515 0,4.71094 3.820313,8.53125 8.53125,8.53125 z m 0,0"
       inkscape:connector-curvature="0"
       style="fill:#3e3d42" />
    <path
       id="path34"
       d="m 375.46484,196.26562 h 17.06641 v 17.06641 c 0,4.71484 3.82031,8.53516 8.53516,8.53516 4.71484,0 8.53125,-3.82032 8.53125,-8.53516 v -17.06641 h 17.07031 c 4.71094,0 8.53125,-3.82031 8.53125,-8.53125 0,-4.71484 -3.82031,-8.53515 -8.53125,-8.53515 h -17.07031 v -17.06641 c 0,-4.71094 -3.82032,-8.53125 -8.53125,-8.53125 -4.71094,0 -8.53516,3.82031 -8.53516,8.53125 v 17.06641 h -17.06641 c -4.71093,0 -8.53125,3.82031 -8.53125,8.53515 0,4.71094 3.82032,8.53125 8.53125,8.53125 z m 0,0"
       inkscape:connector-curvature="0"
       style="fill:#3e3d42" />
    <path
       id="path36"
       d="m 213.33203,256 h 24.29688 l -7.14454,49.98828 c -0.68359,4.66406 2.53907,8.99609 7.20313,9.68359 2.68359,0.39454 5.39453,-0.51171 7.30469,-2.4375 l 68.26562,-68.26953 c 3.33203,-3.33203 3.33203,-8.73437 0,-12.0664 -1.60547,-1.60547 -3.78515,-2.50391 -6.05859,-2.5 h -24.29297 l 7.14062,-49.98828 c 0.6875,-4.66016 -2.53515,-8.9961 -7.19921,-9.6836 -2.6836,-0.39453 -5.39844,0.51172 -7.30469,2.44141 l -68.26563,68.26562 c -3.33593,3.33203 -3.33203,8.73438 0,12.06641 1.60547,1.60547 3.78516,2.50781 6.05469,2.5 z m 56.20313,-52.66016 -4.91797,34.38282 c -0.66797,4.66406 2.57031,8.98828 7.23828,9.66015 0.39844,0.0547 0.80469,0.0859 1.21094,0.0859 h 13.53515 L 251,283.0625 l 4.91406,-34.38281 c 0.66797,-4.66407 -2.57031,-8.98828 -7.23437,-9.66016 -0.40235,-0.0547 -0.8086,-0.0859 -1.21485,-0.0859 h -13.53125 z m 0,0"
       inkscape:connector-curvature="0"
       style="fill:#3e3d42" />
  </g>
</svg>
