<?xml version="1.0" encoding="UTF-8" standalone="no"?>
<!-- Generator: Adobe Illustrator 19.0.0, SVG Export Plug-In . SVG Version: 6.00 Build 0)  -->

<svg
   xmlns:dc="http://purl.org/dc/elements/1.1/"
   xmlns:cc="http://creativecommons.org/ns#"
   xmlns:rdf="http://www.w3.org/1999/02/22-rdf-syntax-ns#"
   xmlns:svg="http://www.w3.org/2000/svg"
   xmlns="http://www.w3.org/2000/svg"
   xmlns:sodipodi="http://sodipodi.sourceforge.net/DTD/sodipodi-0.dtd"
   xmlns:inkscape="http://www.inkscape.org/namespaces/inkscape"
   version="1.1"
   id="Capa_1"
   x="0px"
   y="0px"
   viewBox="0 0 512 512"
   style="enable-background:new 0 0 512 512;"
   xml:space="preserve"
   sodipodi:docname="new_grid_import.svg"
   inkscape:version="0.92.4 (unknown)"><metadata
   id="metadata89"><rdf:RDF><cc:Work
       rdf:about=""><dc:format>image/svg+xml</dc:format><dc:type
         rdf:resource="http://purl.org/dc/dcmitype/StillImage" /></cc:Work></rdf:RDF></metadata><defs
   id="defs87" /><sodipodi:namedview
   pagecolor="#ffffff"
   bordercolor="#666666"
   borderopacity="1"
   objecttolerance="10"
   gridtolerance="10"
   guidetolerance="10"
   inkscape:pageopacity="0"
   inkscape:pageshadow="2"
   inkscape:window-width="706"
   inkscape:window-height="570"
   id="namedview85"
   showgrid="false"
   inkscape:zoom="0.4609375"
   inkscape:cx="256.98712"
   inkscape:cy="256"
   inkscape:window-x="148"
   inkscape:window-y="372"
   inkscape:window-maximized="0"
   inkscape:current-layer="Capa_1" />



























<g
   id="g132"
   transform="matrix(0.54791458,0,0,0.54791458,101.17513,117.96626)"><g
     id="g14">
	<path
   id="path2"
   d="m 162.866,372.056 c -2.368,0 -4.696,-1.116 -6.157,-3.204 -2.378,-3.398 -1.552,-8.078 1.845,-10.457 L 313.788,249.732 c 3.396,-2.377 8.079,-1.552 10.457,1.846 2.378,3.398 1.552,8.078 -1.845,10.457 L 167.166,370.699 c -1.31,0.917 -2.812,1.357 -4.3,1.357 z"
   style="fill:#a8d3d6"
   inkscape:connector-curvature="0" />
	<path
   id="path4"
   d="m 131.819,480.722 c -2.754,0 -5.406,-1.522 -6.722,-4.152 -1.855,-3.709 -0.351,-8.219 3.358,-10.074 L 345.784,357.831 c 3.709,-1.854 8.219,-0.351 10.073,3.358 1.855,3.709 0.351,8.219 -3.358,10.074 L 135.171,479.927 c -1.078,0.539 -2.223,0.795 -3.352,0.795 z"
   style="fill:#a8d3d6"
   inkscape:connector-curvature="0" />
	<path
   id="path6"
   d="m 349.134,372.056 c -1.487,0 -2.988,-0.44 -4.299,-1.358 L 189.602,262.037 c -3.398,-2.379 -4.224,-7.06 -1.845,-10.457 2.378,-3.397 7.061,-4.222 10.457,-1.846 l 155.234,108.662 c 3.398,2.379 4.224,7.06 1.845,10.457 -1.462,2.086 -3.791,3.203 -6.159,3.203 z"
   style="fill:#a8d3d6"
   inkscape:connector-curvature="0" />
	<path
   id="path8"
   d="m 380.183,480.722 c -1.128,0 -2.274,-0.255 -3.352,-0.795 L 159.503,371.262 c -3.709,-1.855 -5.213,-6.364 -3.358,-10.074 1.855,-3.708 6.366,-5.213 10.073,-3.358 l 217.329,108.665 c 3.709,1.855 5.213,6.364 3.358,10.074 -1.316,2.631 -3.968,4.153 -6.722,4.153 z"
   style="fill:#a8d3d6"
   inkscape:connector-curvature="0" />
	<path
   id="path10"
   d="m 318.086,139.206 c -1.432,0 -2.878,-0.408 -4.158,-1.262 L 189.742,55.153 c -3.451,-2.301 -4.383,-6.962 -2.082,-10.412 2.301,-3.45 6.962,-4.382 10.412,-2.082 l 124.186,82.791 c 3.451,2.301 4.383,6.962 2.082,10.412 -1.447,2.169 -3.827,3.344 -6.254,3.344 z"
   style="fill:#a8d3d6"
   inkscape:connector-curvature="0" />
	<path
   id="path12"
   d="m 318.086,263.392 c -1.432,0 -2.878,-0.408 -4.158,-1.262 L 189.742,179.339 c -3.451,-2.301 -4.383,-6.962 -2.082,-10.412 2.301,-3.451 6.962,-4.383 10.412,-2.082 l 124.186,82.791 c 3.451,2.301 4.383,6.962 2.082,10.412 -1.447,2.17 -3.827,3.344 -6.254,3.344 z"
   style="fill:#a8d3d6"
   inkscape:connector-curvature="0" />
</g><path
     id="path16"
     d="m 380.185,480.722 c -3.268,0 -6.273,-2.149 -7.216,-5.447 L 310.874,257.948 c -0.191,-0.671 -0.289,-1.365 -0.289,-2.063 V 15.018 H 201.416 v 240.866 c 0,0.698 -0.097,1.393 -0.289,2.063 l -62.094,217.327 c -1.139,3.987 -5.294,6.299 -9.283,5.156 -3.988,-1.139 -6.296,-5.295 -5.157,-9.281 L 186.399,254.833 V 7.51 c 0,-4.148 3.362,-7.508 7.508,-7.508 h 124.185 c 4.147,0 7.508,3.361 7.508,7.508 v 247.323 l 61.807,216.316 c 1.139,3.987 -1.169,8.143 -5.157,9.281 -0.687,0.198 -1.382,0.292 -2.065,0.292 z"
     style="fill:#dcf3f4"
     inkscape:connector-curvature="0" /><path
     id="path18"
     d="M 400.888,504.262 H 111.116 V 479.22 c 0,-3.318 2.689,-6.007 6.007,-6.007 h 277.759 c 3.318,0 6.007,2.689 6.007,6.007 v 25.042 z"
     style="fill:#a8d3d6"
     inkscape:connector-curvature="0" /><path
     id="path20"
     d="m 400.888,504.262 h -31.049 v -31.049 h 25.042 c 3.318,0 6.007,2.689 6.007,6.007 z"
     style="fill:#84afb4"
     inkscape:connector-curvature="0" /><path
     id="path22"
     d="M 423.74,512 H 88.262 c -4.275,0 -7.741,-3.465 -7.741,-7.741 0,-4.276 3.466,-7.741 7.741,-7.741 H 423.74 c 4.275,0 7.741,3.465 7.741,7.741 -10e-4,4.276 -3.466,7.741 -7.741,7.741 z"
     style="fill:#e0b07b"
     inkscape:connector-curvature="0" /><g
     id="g30">
	<path
   id="path24"
   d="M 349.142,372.055 H 162.86 c -4.147,0 -7.508,-3.361 -7.508,-7.508 0,-4.147 3.362,-7.508 7.508,-7.508 h 186.282 c 4.147,0 7.508,3.361 7.508,7.508 0,4.147 -3.361,7.508 -7.508,7.508 z"
   style="fill:#dcf3f4"
   inkscape:connector-curvature="0" />
	<path
   id="path26"
   d="M 318.094,263.393 H 193.907 c -4.147,0 -7.508,-3.361 -7.508,-7.508 0,-4.148 3.362,-7.508 7.508,-7.508 h 124.185 c 4.147,0 7.508,3.361 7.508,7.508 0.002,4.147 -3.359,7.508 -7.506,7.508 z"
   style="fill:#dcf3f4"
   inkscape:connector-curvature="0" />
	<path
   id="path28"
   d="M 462.98,180.602 H 49.021 c -3.744,0 -6.917,-2.759 -7.436,-6.467 -0.52,-3.708 1.773,-7.232 5.373,-8.261 l 144.887,-41.396 c 0.671,-0.192 1.366,-0.289 2.063,-0.289 h 124.185 c 0.698,0 1.392,0.097 2.063,0.289 l 144.887,41.396 c 3.6,1.029 5.893,4.553 5.373,8.261 -0.52,3.708 -3.692,6.467 -7.436,6.467 z M 102.632,165.585 h 306.737 l -92.327,-26.38 H 194.959 Z"
   style="fill:#dcf3f4"
   inkscape:connector-curvature="0" />
</g><g
     id="g36">
	<path
   id="path32"
   d="m 90.416,211.647 c -4.147,0 -7.508,-3.361 -7.508,-7.508 v -31.046 c 0,-4.148 3.362,-7.508 7.508,-7.508 4.146,0 7.508,3.361 7.508,7.508 v 31.046 c 10e-4,4.147 -3.361,7.508 -7.508,7.508 z"
   style="fill:#a8d3d6"
   inkscape:connector-curvature="0" />
	<path
   id="path34"
   d="m 421.582,211.647 c -4.147,0 -7.508,-3.361 -7.508,-7.508 v -31.046 c 0,-4.148 3.362,-7.508 7.508,-7.508 4.146,0 7.508,3.361 7.508,7.508 v 31.046 c 0,4.147 -3.361,7.508 -7.508,7.508 z"
   style="fill:#a8d3d6"
   inkscape:connector-curvature="0" />
</g><g
     id="g42">
	<path
   id="path38"
   d="M 105.109,235.187 H 75.727 c -3.318,0 -6.007,-2.689 -6.007,-6.007 v -19.034 c 0,-3.318 2.689,-6.007 6.007,-6.007 h 29.382 c 3.318,0 6.007,2.689 6.007,6.007 v 19.034 c 0,3.318 -2.689,6.007 -6.007,6.007 z"
   style="fill:#ffd347"
   inkscape:connector-curvature="0" />
	<path
   id="path40"
   d="m 436.275,235.187 h -29.382 c -3.318,0 -6.007,-2.689 -6.007,-6.007 v -19.034 c 0,-3.318 2.689,-6.007 6.007,-6.007 h 29.382 c 3.318,0 6.007,2.689 6.007,6.007 v 19.034 c -10e-4,3.318 -2.69,6.007 -6.007,6.007 z"
   style="fill:#ffd347"
   inkscape:connector-curvature="0" />
</g><path
     id="path44"
     d="M 465.042,41.686 320.156,0.29 c -3.987,-1.135 -8.143,1.17 -9.283,5.157 -1.139,3.988 1.169,8.143 5.157,9.282 l 93.338,26.667 H 102.633 l 93.338,-26.667 c 3.986,-1.14 6.296,-5.295 5.157,-9.282 -1.139,-3.987 -5.297,-6.293 -9.283,-5.157 L 46.958,41.686 c -3.6,1.029 -5.893,4.553 -5.373,8.261 0.52,3.708 3.692,6.467 7.436,6.467 H 462.98 c 3.744,0 6.917,-2.759 7.435,-6.467 0.52,-3.708 -1.773,-7.232 -5.373,-8.261 z"
     style="fill:#dcf3f4"
     inkscape:connector-curvature="0" /><path
     id="path46"
     d="m 90.416,88.042 c -4.467,0 -8.088,-3.621 -8.088,-8.088 V 48.907 c 0,-4.467 3.621,-8.088 8.088,-8.088 4.467,0 8.088,3.62 8.088,8.088 v 31.047 c 0,4.467 -3.622,8.088 -8.088,8.088 z"
     style="fill:#a8d3d6"
     inkscape:connector-curvature="0" /><path
     id="path48"
     d="M 105.109,111.001 H 75.727 c -3.318,0 -6.007,-2.689 -6.007,-6.007 V 85.961 c 0,-3.318 2.689,-6.007 6.007,-6.007 h 29.382 c 3.318,0 6.007,2.689 6.007,6.007 v 19.034 c 0,3.317 -2.689,6.006 -6.007,6.006 z"
     style="fill:#ffd347"
     inkscape:connector-curvature="0" /><path
     id="path50"
     d="m 421.582,88.042 c -4.467,0 -8.088,-3.621 -8.088,-8.088 V 48.907 c 0,-4.467 3.62,-8.088 8.088,-8.088 4.467,0 8.088,3.62 8.088,8.088 v 31.047 c 0,4.467 -3.621,8.088 -8.088,8.088 z"
     style="fill:#a8d3d6"
     inkscape:connector-curvature="0" /><path
     id="path52"
     d="m 436.275,111.001 h -29.382 c -3.318,0 -6.007,-2.689 -6.007,-6.007 V 85.961 c 0,-3.318 2.689,-6.007 6.007,-6.007 h 29.382 c 3.318,0 6.007,2.689 6.007,6.007 v 19.034 c -10e-4,3.317 -2.69,6.006 -6.007,6.006 z"
     style="fill:#ffd347"
     inkscape:connector-curvature="0" /><g
     id="g54">
</g><g
     id="g56">
</g><g
     id="g58">
</g><g
     id="g60">
</g><g
     id="g62">
</g><g
     id="g64">
</g><g
     id="g66">
</g><g
     id="g68">
</g><g
     id="g70">
</g><g
     id="g72">
</g><g
     id="g74">
</g><g
     id="g76">
</g><g
     id="g78">
</g><g
     id="g80">
</g><g
     id="g82">
</g></g>
<g
   id="g208"
   transform="matrix(0.43587796,0,0,0.43587796,170.44756,193.51683)"><circle
     r="164.27159"
     cy="345.21994"
     cx="364.58817"
     id="path170"
     style="fill:#e6e6e6" /><g
     id="g188"><g
       transform="matrix(0.5028249,0,0,0.5028249,169.81067,145.7775)"
       id="surface1"><g
         transform="translate(135.31428,146.28571)"
         id="g35"><path
           d="M 256,0 C 187.61719,0 123.33203,26.628906 74.980469,74.980469 26.628906,123.33203 0,187.62109 0,256 c 0,45.00391 11.851562,89.27344 34.273438,128.02734 2.78125,4.8086 7.820312,7.49219 13,7.49219 2.542968,0 5.121093,-0.64844 7.484374,-2.01172 l 69.582028,-40.17187 c 3.44532,-1.99219 5.96094,-5.26953 6.98828,-9.11328 1.02735,-3.84766 0.48829,-7.94532 -1.50781,-11.39063 -12.75,-22.03516 -19.48828,-47.22266 -19.48828,-72.83203 0,-80.32031 65.34766,-145.66797 145.66797,-145.66797 8.28125,0 15,-6.71484 15,-14.999999 V 15 C 271,6.714844 264.28125,0 256,0 Z m 0,0"
           style="fill:#ebf5ff;fill-opacity:1;fill-rule:nonzero;stroke:none"
           id="path2-3"
           inkscape:connector-curvature="0" /><path
           d="m 199.19531,327.80469 c -3.83984,0 -7.67578,-1.46485 -10.60547,-4.39453 -5.85937,-5.85547 -5.85937,-15.35547 0,-21.21094 L 302.19922,188.58984 c 5.85547,-5.85937 15.35547,-5.85937 21.21094,0 5.85937,5.85547 5.85937,15.35547 0,21.21094 L 209.80078,323.41016 c -2.92969,2.92968 -6.76953,4.39453 -10.60547,4.39453 z m 0,0"
           style="fill:#0059b0;fill-opacity:1;fill-rule:nonzero;stroke:none"
           id="path4-6"
           inkscape:connector-curvature="0" /><path
           d="m 301.44531,316.44141 c -3.94922,0 -7.82031,-1.59766 -10.60937,-4.39063 -2.78907,-2.79687 -4.39063,-6.66016 -4.39063,-10.60937 0,-3.94922 1.60156,-7.8086 4.39063,-10.60938 2.78906,-2.78906 6.66015,-4.39062 10.60937,-4.39062 3.94922,0 7.8125,1.60156 10.60156,4.39062 2.80079,2.80078 4.39844,6.66016 4.39844,10.60938 0,3.94921 -1.60156,7.8125 -4.39844,10.60937 -2.78906,2.79297 -6.65234,4.39063 -10.60156,4.39063 z m 0,0"
           style="fill:#00335c;fill-opacity:1;fill-rule:nonzero;stroke:none"
           id="path6-7"
           inkscape:connector-curvature="0" /><path
           d="m 210.55469,225.5625 c -3.94922,0 -7.8086,-1.60938 -10.60938,-4.39844 -2.78906,-2.78906 -4.39062,-6.66015 -4.39062,-10.60937 0,-3.94141 1.60156,-7.8125 4.39062,-10.60157 2.80078,-2.80078 6.66016,-4.39843 10.60938,-4.39843 3.95312,0 7.8125,1.59765 10.60937,4.39843 2.78906,2.78907 4.39063,6.66016 4.39063,10.60157 0,3.94922 -1.60157,7.82031 -4.39063,10.60937 -2.80078,2.78906 -6.65625,4.39844 -10.60937,4.39844 z m 0,0"
           style="fill:#0059b0;fill-opacity:1;fill-rule:nonzero;stroke:none"
           id="path8-5"
           inkscape:connector-curvature="0" /><path
           d="M 437.01953,74.980469 C 388.66406,26.628906 324.37891,0 256,0 247.71484,0 241,6.714844 241,15 v 80.332031 c 0,8.285159 6.71484,14.999999 15,14.999999 80.32031,0 145.66406,65.34766 145.66406,145.66797 0,80.32031 -65.34375,145.66406 -145.66406,145.66406 -51.83594,0 -100.18359,-27.90625 -126.17969,-72.82812 -4.14453,-7.16797 -13.3125,-9.61719 -20.48047,-5.48047 l -69.582028,40.17187 c -3.445312,1.98828 -5.960937,5.26953 -6.988281,9.11328 -1.027343,3.84375 -0.488281,7.94141 1.507813,11.38672 22.105468,38.20703 53.886718,70.2461 91.914066,92.66016 C 165.38281,499.78906 210.26953,512 256,512 324.37891,512 388.66406,485.37109 437.01953,437.01953 485.37109,388.66797 512,324.37891 512,256 512,187.62109 485.37109,123.33203 437.01953,74.980469 Z m 0,0"
           style="fill:#7fd197;fill-opacity:1;fill-rule:nonzero;stroke:none"
           id="path10-3"
           inkscape:connector-curvature="0" /><path
           d="M 437.01953,74.980469 C 388.66406,26.628906 324.37891,0 256,0 247.71484,0 241,6.714844 241,15 v 80.332031 c 0,8.285159 6.71484,14.999999 15,14.999999 80.32031,0 145.66406,65.34766 145.66406,145.66797 0,80.32031 -65.34375,145.66406 -145.66406,145.66406 V 512 c 68.37891,0 132.66406,-26.62891 181.01953,-74.98047 C 485.37109,388.66797 512,324.37891 512,256 512,187.62109 485.37109,123.33203 437.01953,74.980469 Z m 0,0"
           style="fill:#00b34a;fill-opacity:1;fill-rule:nonzero;stroke:none"
           id="path12-5"
           inkscape:connector-curvature="0" /><path
           d="m 256,512 c -8.28516,0 -15,-6.71484 -15,-15 v -80.33594 c 0,-8.28125 6.71484,-15 15,-15 8.28125,0 15,6.71875 15,15 V 497 c 0,8.28516 -6.71875,15 -15,15 z m 0,0"
           style="fill:#00874a;fill-opacity:1;fill-rule:nonzero;stroke:none"
           id="path14"
           inkscape:connector-curvature="0" /><path
           d="m 376.51172,479.71484 c -5.1836,0 -10.22656,-2.6875 -13.00391,-7.5 l -40.16406,-69.57422 c -4.14453,-7.17187 -1.68359,-16.34765 5.48828,-20.48828 7.17578,-4.14453 16.34766,-1.68359 20.49219,5.48828 l 40.16406,69.57422 c 4.14453,7.17188 1.68359,16.34766 -5.48828,20.48828 -2.36328,1.36329 -4.94141,2.01172 -7.48828,2.01172 z m 0,0"
           style="fill:#00874a;fill-opacity:1;fill-rule:nonzero;stroke:none"
           id="path16-6"
           inkscape:connector-curvature="0" /><path
           d="m 464.69922,391.50391 c -2.54688,0 -5.125,-0.64844 -7.48438,-2.01563 l -69.57031,-40.16406 c -7.17578,-4.14453 -9.63281,-13.31641 -5.49219,-20.49219 4.14453,-7.17578 13.31641,-9.63672 20.49219,-5.48828 l 69.57031,40.16797 c 7.17188,4.14062 9.63282,13.3125 5.48828,20.48828 -2.77734,4.8125 -7.82031,7.50391 -13.0039,7.50391 z m 0,0"
           style="fill:#00874a;fill-opacity:1;fill-rule:nonzero;stroke:none"
           id="path18-2"
           inkscape:connector-curvature="0" /><path
           d="m 497,271 h -80.33594 c -8.28125,0 -15,-6.71484 -15,-15 0,-8.28516 6.71875,-15 15,-15 H 497 c 8.28125,0 15,6.71484 15,15 0,8.28516 -6.71875,15 -15,15 z m 0,0"
           style="fill:#00874a;fill-opacity:1;fill-rule:nonzero;stroke:none"
           id="path20-9"
           inkscape:connector-curvature="0" /><path
           d="m 395.15625,190.66797 c -5.18359,0 -10.22656,-2.6875 -13.00391,-7.50391 -4.14453,-7.17187 -1.68359,-16.34765 5.48828,-20.48828 l 69.57032,-40.16406 c 7.17187,-4.14844 16.34765,-1.6875 20.48828,5.48828 4.14453,7.17578 1.68359,16.34766 -5.48828,20.48828 l -69.57032,40.16797 c -2.35937,1.36328 -4.9414,2.01172 -7.48437,2.01172 z m 0,0"
           style="fill:#00874a;fill-opacity:1;fill-rule:nonzero;stroke:none"
           id="path22-1"
           inkscape:connector-curvature="0" /><path
           d="m 336.32031,131.85937 c -2.54687,0 -5.125,-0.64453 -7.48437,-2.01171 -7.17578,-4.14063 -9.63672,-13.31641 -5.49219,-20.48828 l 40.16797,-69.570318 c 4.14062,-7.175781 13.3125,-9.636718 20.48828,-5.492187 7.17578,4.144531 9.63281,13.316406 5.48828,20.492187 l -40.16406,69.570318 c -2.77735,4.81249 -7.82031,7.49999 -13.00391,7.49999 z m 0,0"
           style="fill:#00874a;fill-opacity:1;fill-rule:nonzero;stroke:none"
           id="path24-2"
           inkscape:connector-curvature="0" /><path
           d="m 135.48437,479.71484 c -2.54296,0 -5.12109,-0.64843 -7.48437,-2.01172 -7.17578,-4.14062 -9.63281,-13.3164 -5.48828,-20.48828 l 40.16406,-69.57422 c 4.14063,-7.17187 13.3125,-9.63281 20.49219,-5.48828 7.17187,4.14063 9.63281,13.31641 5.48828,20.48828 l -40.16406,69.57422 c -2.78125,4.8086 -7.82032,7.5 -13.00782,7.5 z m 0,0"
           style="fill:#00b34a;fill-opacity:1;fill-rule:nonzero;stroke:none"
           id="path26-7"
           inkscape:connector-curvature="0" /><path
           d="m 323.41016,188.58984 c -5.85938,-5.85937 -15.35547,-5.85937 -21.21485,0 L 256,234.78516 v 42.42968 l 67.41016,-67.41406 c 5.85937,-5.85547 5.85937,-15.35547 0,-21.21094 z m 0,0"
           style="fill:#00335c;fill-opacity:1;fill-rule:nonzero;stroke:none"
           id="path28-0"
           inkscape:connector-curvature="0" /></g></g></g></g></svg>