<?xml version="1.0" encoding="UTF-8" standalone="no"?>
<!-- Generator: Adobe Illustrator 19.0.0, SVG Export Plug-In . SVG Version: 6.00 Build 0)  -->

<svg
   xmlns:dc="http://purl.org/dc/elements/1.1/"
   xmlns:cc="http://creativecommons.org/ns#"
   xmlns:rdf="http://www.w3.org/1999/02/22-rdf-syntax-ns#"
   xmlns:svg="http://www.w3.org/2000/svg"
   xmlns="http://www.w3.org/2000/svg"
   xmlns:sodipodi="http://sodipodi.sourceforge.net/DTD/sodipodi-0.dtd"
   xmlns:inkscape="http://www.inkscape.org/namespaces/inkscape"
   version="1.1"
   id="Layer_1"
   x="0px"
   y="0px"
   viewBox="0 0 512 512"
   style="enable-background:new 0 0 512 512;"
   xml:space="preserve"
   sodipodi:docname="thermometer-temperature-svgrepo-com.svg"
   inkscape:version="0.92.4 (unknown)"><metadata
   id="metadata89"><rdf:RDF><cc:Work
       rdf:about=""><dc:format>image/svg+xml</dc:format><dc:type
         rdf:resource="http://purl.org/dc/dcmitype/StillImage" /></cc:Work></rdf:RDF></metadata><defs
   id="defs87">
	
	
	
	
	
	
	
	
	
	
	
	
	
	
	
</defs><sodipodi:namedview
   pagecolor="#ffffff"
   bordercolor="#666666"
   borderopacity="1"
   objecttolerance="10"
   gridtolerance="10"
   guidetolerance="10"
   inkscape:pageopacity="0"
   inkscape:pageshadow="2"
   inkscape:window-width="946"
   inkscape:window-height="861"
   id="namedview85"
   showgrid="false"
   inkscape:zoom="0.65186406"
   inkscape:cx="303.6572"
   inkscape:cy="289.67776"
   inkscape:window-x="75"
   inkscape:window-y="34"
   inkscape:window-maximized="0"
   inkscape:current-layer="Layer_1" />















<g
   id="g144"
   transform="matrix(0.58891785,0,0,0.58891785,103.67758,105.23703)"><path
     style="fill:#ffdd09"
     d="M 307.2,318.293 V 68.267 c 0,-33.28 -26.453,-59.733 -59.733,-59.733 -33.28,0 -59.733,26.453 -59.733,59.733 v 250.027 c -25.6,18.773 -42.667,48.64 -42.667,81.92 -0.853,54.613 43.52,101.547 98.133,103.253 58.88,1.707 106.667,-44.373 106.667,-102.4 0,-34.134 -17.067,-64.854 -42.667,-82.774"
     id="path14"
     inkscape:connector-curvature="0" /><path
     style="fill:#fd9808"
     d="M 315.733,326.827 V 76.8 c 0,-33.28 -26.453,-59.733 -59.733,-59.733 -4.267,0 -8.533,0.853 -12.8,1.707 26.453,5.973 46.933,29.013 46.933,58.027 v 250.027 c 25.6,18.773 42.667,48.64 42.667,82.773 0,52.053 -52.053,87.893 -102.4,93.867 3.413,0 5.973,0.853 9.387,0.853 58.027,2.56 106.667,-36.693 110.933,-94.72 1.707,-34.134 -9.387,-64.854 -34.987,-82.774"
     id="path16"
     inkscape:connector-curvature="0" /><path
     style="fill:#ffffff"
     d="M 180.053,326.827 V 76.8 c 0,-33.28 26.453,-59.733 59.733,-59.733 4.267,0 8.533,0.853 12.8,1.707 -26.453,5.973 -46.933,29.867 -46.933,58.027 v 250.027 c -25.6,18.773 -42.667,48.64 -42.667,82.773 0,52.053 52.053,87.893 102.4,93.867 -3.413,0 -5.973,0.853 -9.387,0.853 -58.027,2.56 -106.667,-36.693 -110.933,-94.72 -2.559,-34.134 8.534,-64.854 34.987,-82.774"
     id="path18"
     inkscape:connector-curvature="0" /><g
     transform="translate(0,1)"
     id="g24">
		<path
   style="fill:#ffdd09"
   d="M 324.267,306.2 V 67.267 c 0,-33.28 -26.453,-59.733 -59.733,-59.733 -4.267,0 -8.533,0.853 -12.8,1.707 26.453,5.973 46.933,29.013 46.933,58.027 v 250.027 c 25.6,18.773 42.667,48.64 42.667,82.773 0,52.053 -52.053,87.893 -102.4,93.867 3.413,0 5.973,0.853 9.387,0.853 58.027,2.56 115.2,-36.693 119.467,-94.72 1.705,-34.135 -17.921,-75.095 -43.521,-93.868"
   id="path20"
   inkscape:connector-curvature="0" />
		<path
   style="fill:#ffdd09"
   d="m 244.907,468.333 c -35.84,-1.707 -65.707,-33.28 -65.707,-69.12 0,-22.187 10.24,-41.813 28.16,-54.613 l 14.507,-10.24 V 280.6 c 0,-14.507 11.093,-25.6 25.6,-25.6 14.507,0 25.6,11.093 25.6,25.6 v 53.76 l 14.507,10.24 c 17.92,12.8 28.16,33.28 28.16,55.467 0,17.92 -6.827,34.987 -19.627,48.64 -13.653,12.8 -30.72,19.627 -48.64,19.627 0,-10e-4 -1.707,-10e-4 -2.56,-10e-4"
   id="path22"
   inkscape:connector-curvature="0" />
	</g><path
     d="m 247.467,512 c -1.707,0 -2.56,0 -4.267,0 -59.733,-2.56 -107.52,-52.053 -106.667,-111.787 0,-33.28 16.213,-65.707 42.667,-86.187 V 68.267 C 179.2,30.72 209.92,0 247.467,0 c 37.547,0 68.267,30.72 68.267,68.267 v 245.76 c 26.453,21.333 42.667,52.907 42.667,87.04 0,30.72 -11.947,58.88 -34.133,80.213 C 303.787,500.907 276.48,512 247.467,512 Z m 0,-494.933 c -28.16,0 -51.2,23.04 -51.2,51.2 v 250.027 c 0,2.56 -1.707,5.12 -3.413,6.827 -23.893,17.067 -39.253,45.227 -39.253,75.093 -0.853,50.347 40.107,93.013 90.453,94.72 25.6,0.853 50.347,-8.533 69.12,-26.453 17.92,-17.92 28.16,-41.813 28.16,-67.413 0,-29.867 -14.507,-58.88 -39.253,-75.947 -2.56,-1.707 -3.413,-4.267 -3.413,-6.827 V 68.267 c -0.001,-28.16 -23.041,-51.2 -51.201,-51.2 z"
     id="path26"
     inkscape:connector-curvature="0" /><path
     d="m 247.467,477.867 c 0,0 -1.707,0 -3.413,0 v 0 c -40.107,-1.707 -74.24,-36.693 -73.387,-77.653 0,-24.747 11.947,-46.933 32.427,-61.44 l 10.24,-7.68 V 281.6 c 0,-18.773 15.36,-34.133 34.133,-34.133 18.773,0 34.133,15.36 34.133,34.133 v 49.493 l 10.24,7.68 c 20.48,14.507 32.427,37.547 32.427,62.293 0,20.48 -7.68,40.107 -22.187,54.613 -14.507,14.508 -34.133,22.188 -54.613,22.188 z m -2.56,-17.067 h 2.56 c 16.213,0 30.72,-5.973 41.813,-17.067 11.093,-11.093 17.067,-26.453 17.067,-42.667 0,-18.773 -9.387,-37.547 -24.747,-48.64 l -14.507,-10.24 c -2.56,-1.707 -3.413,-4.267 -3.413,-6.827 V 281.6 c 0,-9.387 -7.68,-17.067 -17.067,-17.067 -9.387,0 -17.067,7.68 -17.067,17.067 v 53.76 c 0,2.56 -1.707,5.12 -3.413,6.827 l -14.507,10.24 c -15.36,11.093 -24.747,29.013 -24.747,47.787 0.854,31.573 26.454,58.879 58.028,60.586 z"
     id="path28"
     inkscape:connector-curvature="0" /><path
     d="m 247.467,93.867 h -59.733 c -5.12,0 -8.533,-3.413 -8.533,-8.533 0,-5.12 3.413,-8.533 8.533,-8.533 h 59.733 c 5.12,0 8.533,3.413 8.533,8.533 0,5.12 -3.413,8.533 -8.533,8.533 z"
     id="path30"
     inkscape:connector-curvature="0" /><path
     d="m 221.867,128 h -34.133 c -5.12,0 -8.533,-3.413 -8.533,-8.533 0,-5.12 3.413,-8.533 8.533,-8.533 h 34.133 c 5.12,0 8.533,3.413 8.533,8.533 0,5.12 -3.413,8.533 -8.533,8.533 z"
     id="path32"
     inkscape:connector-curvature="0" /><path
     d="m 247.467,162.133 h -59.733 c -5.12,0 -8.533,-3.413 -8.533,-8.533 0,-5.12 3.413,-8.533 8.533,-8.533 h 59.733 c 5.12,0 8.533,3.413 8.533,8.533 0,5.12 -3.413,8.533 -8.533,8.533 z"
     id="path34"
     inkscape:connector-curvature="0" /><path
     d="m 221.867,196.267 h -34.133 c -5.12,0 -8.533,-3.413 -8.533,-8.533 0,-5.12 3.413,-8.533 8.533,-8.533 h 34.133 c 5.12,0 8.533,3.413 8.533,8.533 0,5.119 -3.413,8.533 -8.533,8.533 z"
     id="path36"
     inkscape:connector-curvature="0" /><path
     d="m 247.467,230.4 h -59.733 c -5.12,0 -8.533,-3.413 -8.533,-8.533 0,-5.12 3.413,-8.533 8.533,-8.533 h 59.733 c 5.12,0 8.533,3.413 8.533,8.533 0,5.12 -3.413,8.533 -8.533,8.533 z"
     id="path38"
     inkscape:connector-curvature="0" /><g
     id="g54">
</g><g
     id="g56">
</g><g
     id="g58">
</g><g
     id="g60">
</g><g
     id="g62">
</g><g
     id="g64">
</g><g
     id="g66">
</g><g
     id="g68">
</g><g
     id="g70">
</g><g
     id="g72">
</g><g
     id="g74">
</g><g
     id="g76">
</g><g
     id="g78">
</g><g
     id="g80">
</g><g
     id="g82">
</g></g>
</svg>