<svg id="Solar" xmlns="http://www.w3.org/2000/svg" viewBox="0 0 75 75"><defs><style>.cls-1{fill:#4eaf63;}.cls-2{fill:#66bc76;}.cls-3{fill:#7bc686;}.cls-4{fill:#408e4b;}.cls-5{fill:#4b4d4f;}.cls-6{fill:#c3c6c7;}.cls-7{fill:#e9eef2;}.cls-8{fill:#eb423f;}.cls-9{fill:#6a7073;}</style></defs><title>weekly_forcast</title><g id="_75X75" data-name="75X75"><g id="Weekly"><rect class="cls-1" x="40.08" y="25.73" width="13.68" height="31.34"/><rect class="cls-2" x="24.04" y="34.68" width="13.68" height="22.38"/><rect class="cls-3" x="7.99" y="42.14" width="13.68" height="14.92"/><path class="cls-4" d="M37.8,6.9l4.39,2.15C32.74,31.46,8.35,29.51,8.35,29.51c23.7,5.16,33-7.18,38.88-17.18l4.31,2.58L49.36,2Z"/><rect class="cls-5" x="5.26" y="59.18" width="51.48" height="2.49"/><g id="g39"><path id="path2" class="cls-6" d="M45.27,47.84h26.9v25H45.27Z"/><path id="path4" class="cls-7" d="M44.31,46.88H70.25v24H44.31Z"/><path id="path6" class="cls-8" d="M44.31,46.88H70.25v5.76H44.31Z"/><g id="g20"><path id="path8" class="cls-9" d="M49.6,46.88V46.4a.48.48,0,0,0-.48-.48.47.47,0,0,0-.48.48v1.92a.47.47,0,0,0,.48.48.49.49,0,0,1,.48.48.48.48,0,0,1-.48.48,1.45,1.45,0,0,1-1.45-1.44V46.4a1.45,1.45,0,0,1,2.89,0v.48Z"/><path id="path10" class="cls-9" d="M53.44,46.88V46.4a.48.48,0,0,0-.48-.48.47.47,0,0,0-.48.48v1.92a.47.47,0,0,0,.48.48.49.49,0,0,1,.48.48.48.48,0,0,1-.48.48,1.43,1.43,0,0,1-1.44-1.44V46.4a1.44,1.44,0,0,1,2.88,0v.48Z"/><path id="path12" class="cls-9" d="M62.08,46.88V46.4a.47.47,0,0,0-.48-.48.48.48,0,0,0-.48.48v1.92a.48.48,0,0,0,.48.48.48.48,0,0,1,.48.48.47.47,0,0,1-.48.48,1.44,1.44,0,0,1-1.44-1.44V46.4a1.44,1.44,0,0,1,2.88,0v.48Z"/><path id="path14" class="cls-9" d="M65.92,46.88V46.4a.47.47,0,0,0-.48-.48.48.48,0,0,0-.48.48v1.92a.48.48,0,0,0,.48.48.48.48,0,0,1,.48.48.47.47,0,0,1-.48.48A1.44,1.44,0,0,1,64,48.32V46.4a1.44,1.44,0,0,1,2.88,0v.48Z"/><path id="path16" class="cls-9" d="M62.78,56.54a.48.48,0,0,0-.5,0l-3.84,2.75a.48.48,0,0,0,.56.79l3.08-2.21v8.67a.49.49,0,0,0,.48.48.48.48,0,0,0,.48-.48V57A.47.47,0,0,0,62.78,56.54Z"/><path id="path18" class="cls-9" d="M57.28,59.37a2.88,2.88,0,1,0-5.76,0,.48.48,0,0,0,.48.48.49.49,0,0,0,.48-.48,1.92,1.92,0,1,1,1.92,1.92.47.47,0,0,0-.48.48.48.48,0,0,0,.48.48,1.92,1.92,0,1,1-1.92,1.92.48.48,0,0,0-.48-.48.47.47,0,0,0-.48.48A2.88,2.88,0,1,0,56,61.77,2.91,2.91,0,0,0,57.28,59.37Z"/></g></g></g></g></svg>