<svg id="Solar" xmlns="http://www.w3.org/2000/svg" viewBox="0 0 75 75"><defs><style>.cls-1{fill:#d1cdb2;}.cls-2{fill:#58ab23;}.cls-3{fill:#66bf00;}.cls-4{fill:#b6e462;}.cls-5{fill:#4eaf63;}.cls-6{fill:#fff;}.cls-7{fill:#c3c6c7;}.cls-8{fill:#e9eef2;}.cls-9{fill:#eb423f;}.cls-10{fill:#6a7073;}</style></defs><title>weekly_load</title><g id="_75X75" data-name="75X75"><g id="Weekly"><g id="g145"><g id="g71"><path id="path61" class="cls-1" d="M24.55,16.39a1.08,1.08,0,0,1-.49-2.05,21.65,21.65,0,0,1,13.08-2,1.08,1.08,0,0,1-.33,2.14,19.78,19.78,0,0,0-3.08-.24,19.25,19.25,0,0,0-8.7,2,1,1,0,0,1-.48.12Z"/><path id="path63" class="cls-1" d="M21.84,51.52a1,1,0,0,1-.63-.2,21.64,21.64,0,0,1-1.14-34.4,1.08,1.08,0,0,1,1.37,1.68,19.47,19.47,0,0,0,1,31,1.08,1.08,0,0,1-.62,2Z"/><path id="path69" class="cls-1" d="M33.73,55.31A21.58,21.58,0,0,1,30.32,55a1.08,1.08,0,1,1,.34-2.13A19.48,19.48,0,0,0,53.19,33.69a19.33,19.33,0,0,0-2.91-10.24,1.08,1.08,0,0,1,1.84-1.14,21.63,21.63,0,0,1-18.39,33Z"/></g><path id="path73" class="cls-2" d="M57.72,11.86,60,9.58a1.08,1.08,0,0,0-.77-1.84H48.87a1.08,1.08,0,0,0-1.08,1.08V19.18a1.08,1.08,0,0,0,1.84.77l2-2a23.79,23.79,0,1,1-35.22-.57c.43-.45.87-.89,1.33-1.31L12.37,9.28A32.48,32.48,0,0,0,1.3,34.37,32.44,32.44,0,1,0,57.72,11.86Z"/><path id="path75" class="cls-3" d="M16.38,17.41A23.84,23.84,0,0,1,31.86,10a2,2,0,0,0,1.87-2V3.33a2,2,0,0,0-2.13-2A32.45,32.45,0,0,0,1.31,32.58l8.64.78A23.7,23.7,0,0,1,16.38,17.41Z"/><path id="path77" class="cls-4" d="M24.51,11.76A23.85,23.85,0,0,1,31.86,10a2,2,0,0,0,1.87-2V3.33a2,2,0,0,0-2.13-2,32.3,32.3,0,0,0-19.23,8l5.34,6.82A24.18,24.18,0,0,1,24.51,11.76Z"/><path id="path79" class="cls-2" d="M57.72,11.86,60,9.58a1.08,1.08,0,0,0-.77-1.84H48.87a1.08,1.08,0,0,0-1.08,1.08V19.18a1.08,1.08,0,0,0,1.84.77l2-2A23.79,23.79,0,1,1,9.94,33.69c0-.11,0-.22,0-.33l-8.63-.78c0,.6,0,1.19,0,1.79A32.44,32.44,0,1,0,57.72,11.86Z"/></g><path class="cls-5" d="M17.81,27.45h-.39c-.34,0-.51-.15-.51-.43s.16-.42.52-.42c.56,0,1.13,0,1.74,0V23.4c0-.35.15-.5.45-.48s.4.18.4.53c0,.92,0,1.84,0,2.76v.37h3.42v-.31c0-1,0-1.92,0-2.88,0-.34.15-.49.46-.47s.39.18.39.52V26.6h.77c.35,0,.7,0,1,0a.42.42,0,0,1,.45.41.44.44,0,0,1-.43.44c-.14,0-.29,0-.47,0v3.4a3.47,3.47,0,0,1-1.79,3.23,3.24,3.24,0,0,1-1.68.44,2.12,2.12,0,0,0,0,.24c0,2,0,3.91,0,5.87a4.21,4.21,0,0,0,1.4,3A4.67,4.67,0,0,0,27,44.92q9.73,0,19.47,0A.84.84,0,0,1,47,45a.51.51,0,0,1,.24.4c0,.14-.2.26-.33.36s-.17,0-.26,0c-6.58,0-13.16,0-19.73,0A5.39,5.39,0,0,1,22.71,44a5,5,0,0,1-1.34-2.86A11.48,11.48,0,0,1,21.3,40V34.59A13.32,13.32,0,0,1,20,34.26a3.44,3.44,0,0,1-2.14-3.06c0-1.12,0-2.25,0-3.38Zm.89,0a.22.22,0,0,0,0,.1c0,1.24,0,2.48,0,3.73a2.6,2.6,0,0,0,1.7,2.2,5.18,5.18,0,0,0,2,.14,2.41,2.41,0,0,0,.87-.21,2.61,2.61,0,0,0,1.58-2.51c0-1.06,0-2.13,0-3.19a2.28,2.28,0,0,0,0-.26Z"/><path class="cls-5" d="M47.24,31.44c0,2.32,0,4.64,0,7a2.39,2.39,0,0,1-1.73,2.29,3,3,0,0,1-.73.09H31A2.32,2.32,0,0,1,28.65,39a2.74,2.74,0,0,1-.11-.76V24.57a2.37,2.37,0,0,1,1.24-2.2A2.33,2.33,0,0,1,31,22.08h5c2.94,0,5.87,0,8.8,0a2.39,2.39,0,0,1,2.41,1.81,3,3,0,0,1,.06.67Zm-.85,0c0-2.29,0-4.58,0-6.87a1.61,1.61,0,0,0-1.68-1.67q-6.81,0-13.63,0a1.61,1.61,0,0,0-1.7,1.71c0,4.52,0,9,0,13.56a1.64,1.64,0,0,0,1.72,1.74q6.8,0,13.6,0a1.63,1.63,0,0,0,1.69-1.69C46.36,36,46.39,33.73,46.39,31.47Z"/><path class="cls-5" d="M18.7,27.47h6.08a2.28,2.28,0,0,1,0,.26c0,1.06,0,2.13,0,3.19a2.61,2.61,0,0,1-1.58,2.51,2.41,2.41,0,0,1-.87.21,5.18,5.18,0,0,1-2-.14,2.6,2.6,0,0,1-1.7-2.2c0-1.25,0-2.49,0-3.73A.22.22,0,0,1,18.7,27.47Z"/><path class="cls-5" d="M46.39,31.47c0,2.26,0,4.52,0,6.78a1.63,1.63,0,0,1-1.69,1.69q-6.81,0-13.6,0a1.64,1.64,0,0,1-1.72-1.74c0-4.52,0-9,0-13.56a1.61,1.61,0,0,1,1.7-1.71q6.82,0,13.63,0A1.61,1.61,0,0,1,46.4,24.6C46.36,26.89,46.39,29.18,46.39,31.47Zm-8.47,5.61a5.66,5.66,0,1,0-5.66-5.56A5.65,5.65,0,0,0,37.92,37.08Z"/><path class="cls-5" d="M37.92,37.08a5.66,5.66,0,1,1,5.64-5.71A5.67,5.67,0,0,1,37.92,37.08Zm0-.87a4.79,4.79,0,1,0-4.81-4.78A4.79,4.79,0,0,0,37.92,36.21Z"/><path class="cls-6" d="M37.92,36.21A4.79,4.79,0,1,1,42.7,31.4,4.81,4.81,0,0,1,37.92,36.21Zm-1.17-4.79V30.35c0-.33-.12-.44-.45-.44s-.79,0-1.19,0-.5.13-.51.46c0,.69,0,1.39,0,2.08,0,.39.17.51.56.51h1.1c.34,0,.48-.14.49-.48Zm4.44,0V30.38c0-.34-.13-.47-.46-.47s-.79,0-1.19,0-.49.14-.5.47q0,1.05,0,2.1c0,.33.17.48.5.48H40.7c.33,0,.49-.15.49-.48Z"/><path class="cls-5" d="M36.75,31.42v1.06c0,.34-.15.48-.49.48h-1.1c-.39,0-.55-.12-.56-.51,0-.69,0-1.39,0-2.08,0-.33.17-.46.51-.46s.79,0,1.19,0,.44.11.45.44Zm-1.29-.65v1.32h.41V30.77Z"/><path class="cls-5" d="M41.19,31.44v1c0,.33-.16.48-.49.48H39.54c-.33,0-.5-.15-.5-.48q0-1,0-2.1c0-.33.17-.47.5-.47s.79,0,1.19,0,.45.13.46.47Zm-1.28-.66v1.31h.4V30.78Z"/><path class="cls-6" d="M35.46,30.77h.41v1.32h-.41Z"/><path class="cls-6" d="M39.91,30.78h.4v1.31h-.4Z"/><g id="g39"><path id="path2" class="cls-7" d="M45.27,47.84h26.9v25H45.27Z"/><path id="path4" class="cls-8" d="M44.31,46.88H70.25v24H44.31Z"/><path id="path6" class="cls-9" d="M44.31,46.88H70.25v5.76H44.31Z"/><g id="g20"><path id="path8" class="cls-10" d="M49.6,46.88V46.4a.48.48,0,0,0-.48-.48.47.47,0,0,0-.48.48v1.92a.47.47,0,0,0,.48.48.49.49,0,0,1,.48.48.48.48,0,0,1-.48.48,1.45,1.45,0,0,1-1.45-1.44V46.4a1.45,1.45,0,0,1,2.89,0v.48Z"/><path id="path10" class="cls-10" d="M53.44,46.88V46.4a.48.48,0,0,0-.48-.48.47.47,0,0,0-.48.48v1.92a.47.47,0,0,0,.48.48.49.49,0,0,1,.48.48.48.48,0,0,1-.48.48,1.43,1.43,0,0,1-1.44-1.44V46.4a1.44,1.44,0,0,1,2.88,0v.48Z"/><path id="path12" class="cls-10" d="M62.08,46.88V46.4a.47.47,0,0,0-.48-.48.48.48,0,0,0-.48.48v1.92a.48.48,0,0,0,.48.48.48.48,0,0,1,.48.48.47.47,0,0,1-.48.48,1.44,1.44,0,0,1-1.44-1.44V46.4a1.44,1.44,0,0,1,2.88,0v.48Z"/><path id="path14" class="cls-10" d="M65.92,46.88V46.4a.47.47,0,0,0-.48-.48.48.48,0,0,0-.48.48v1.92a.48.48,0,0,0,.48.48.48.48,0,0,1,.48.48.47.47,0,0,1-.48.48A1.44,1.44,0,0,1,64,48.32V46.4a1.44,1.44,0,0,1,2.88,0v.48Z"/><path id="path16" class="cls-10" d="M62.78,56.54a.48.48,0,0,0-.5,0l-3.84,2.75a.48.48,0,0,0,.56.79l3.08-2.21v8.67a.49.49,0,0,0,.48.48.48.48,0,0,0,.48-.48V57A.47.47,0,0,0,62.78,56.54Z"/><path id="path18" class="cls-10" d="M57.28,59.37a2.88,2.88,0,1,0-5.76,0,.48.48,0,0,0,.48.48.49.49,0,0,0,.48-.48,1.92,1.92,0,1,1,1.92,1.92.47.47,0,0,0-.48.48.48.48,0,0,0,.48.48,1.92,1.92,0,1,1-1.92,1.92.48.48,0,0,0-.48-.48.47.47,0,0,0-.48.48A2.88,2.88,0,1,0,56,61.77,2.91,2.91,0,0,0,57.28,59.37Z"/></g></g></g></g></svg>