<svg id="Solar" xmlns="http://www.w3.org/2000/svg" viewBox="0 0 75 75"><defs><style>.cls-1{fill:#d1cdb2;}.cls-2{fill:#58ab23;}.cls-3{fill:#66bf00;}.cls-4{fill:#b6e462;}.cls-5{fill:#5d5360;}.cls-6{fill:#6f6571;}.cls-7{fill:#aea8af;}.cls-8{fill:#dbd9dc;}.cls-9{fill:#5a78be;}.cls-10{fill:#9c969e;}.cls-11{fill:#c3c6c7;}.cls-12{fill:#e9eef2;}.cls-13{fill:#eb423f;}.cls-14{fill:#6a7073;}</style></defs><title>weekly_solar</title><g id="_75X75" data-name="75X75"><g id="Weekly"><g id="g145"><g id="g71"><path id="path61" class="cls-1" d="M24.55,16.39a1.08,1.08,0,0,1-.49-2.05,21.65,21.65,0,0,1,13.08-2,1.08,1.08,0,0,1-.33,2.14,19.78,19.78,0,0,0-3.08-.24,19.25,19.25,0,0,0-8.7,2,1,1,0,0,1-.48.12Z"/><path id="path63" class="cls-1" d="M21.84,51.52a1,1,0,0,1-.63-.2,21.64,21.64,0,0,1-1.14-34.4,1.08,1.08,0,0,1,1.37,1.68,19.47,19.47,0,0,0,1,31,1.08,1.08,0,0,1-.62,2Z"/><path id="path69" class="cls-1" d="M33.73,55.31A21.58,21.58,0,0,1,30.32,55a1.08,1.08,0,1,1,.34-2.13A19.48,19.48,0,0,0,53.19,33.69a19.33,19.33,0,0,0-2.91-10.24,1.08,1.08,0,0,1,1.84-1.14,21.63,21.63,0,0,1-18.39,33Z"/></g><path id="path73" class="cls-2" d="M57.72,11.86,60,9.58a1.08,1.08,0,0,0-.77-1.84H48.87a1.08,1.08,0,0,0-1.08,1.08V19.18a1.08,1.08,0,0,0,1.84.77l2-2a23.79,23.79,0,1,1-35.22-.57c.43-.45.87-.89,1.33-1.31L12.37,9.28A32.48,32.48,0,0,0,1.3,34.37,32.44,32.44,0,1,0,57.72,11.86Z"/><path id="path75" class="cls-3" d="M16.38,17.41A23.84,23.84,0,0,1,31.86,10a2,2,0,0,0,1.87-2V3.33a2,2,0,0,0-2.13-2A32.45,32.45,0,0,0,1.31,32.58l8.64.78A23.7,23.7,0,0,1,16.38,17.41Z"/><path id="path77" class="cls-4" d="M24.51,11.76A23.85,23.85,0,0,1,31.86,10a2,2,0,0,0,1.87-2V3.33a2,2,0,0,0-2.13-2,32.3,32.3,0,0,0-19.23,8l5.34,6.82A24.18,24.18,0,0,1,24.51,11.76Z"/><path id="path79" class="cls-2" d="M57.72,11.86,60,9.58a1.08,1.08,0,0,0-.77-1.84H48.87a1.08,1.08,0,0,0-1.08,1.08V19.18a1.08,1.08,0,0,0,1.84.77l2-2A23.79,23.79,0,1,1,9.94,33.69c0-.11,0-.22,0-.33l-8.63-.78c0,.6,0,1.19,0,1.79A32.44,32.44,0,1,0,57.72,11.86Z"/></g><g id="g120"><g id="g81"><rect id="rect2" class="cls-5" x="32.52" y="39.34" width="2.8" height="4.2"/><path id="path4" class="cls-6" d="M35.32,43.54H33.45V41.67a.93.93,0,0,1,.93-.93h.94Z"/><path id="path6" class="cls-7" d="M37.65,45.4H30.19a.47.47,0,0,1-.47-.46V44a.47.47,0,0,1,.47-.46h7.46a.47.47,0,0,1,.46.46v.94A.47.47,0,0,1,37.65,45.4Z"/><path id="path8" class="cls-8" d="M48.81,37.64l-2.33-14a1.86,1.86,0,0,0-1.84-1.55H23.2a1.85,1.85,0,0,0-1.84,1.55L19,37.64a1.86,1.86,0,0,0,1.84,2.17H47a1.87,1.87,0,0,0,1.84-2.17Z"/><g id="g42"><path id="path10" class="cls-9" d="M21.4,31.42h4.76a.46.46,0,0,1,.46.5l-.2,2.33a.46.46,0,0,1-.46.43H21a.46.46,0,0,1-.46-.54l.38-2.33a.47.47,0,0,1,.46-.39Z"/><path id="path12" class="cls-9" d="M22.1,27.22h4.41a.47.47,0,0,1,.46.51l-.19,2.33a.47.47,0,0,1-.47.43h-4.6a.47.47,0,0,1-.45-.55l.38-2.33A.48.48,0,0,1,22.1,27.22Z"/><path id="path14" class="cls-9" d="M46.12,30.49h-4.6a.47.47,0,0,1-.46-.43l-.2-2.33a.47.47,0,0,1,.47-.51h4.4a.47.47,0,0,1,.46.39l.39,2.33A.47.47,0,0,1,46.12,30.49Z"/><path id="path16" class="cls-9" d="M39.65,30.49h-4.8a.47.47,0,0,1-.47-.47V27.69a.47.47,0,0,1,.47-.47h4.6a.47.47,0,0,1,.47.43l.2,2.33A.48.48,0,0,1,39.65,30.49Z"/><path id="path18" class="cls-9" d="M34.38,25.82V23.49a.47.47,0,0,1,.47-.46H39.1a.46.46,0,0,1,.46.43l.2,2.33a.46.46,0,0,1-.46.5H34.85a.47.47,0,0,1-.47-.47Z"/><path id="path20" class="cls-9" d="M33,26.29H28.54a.47.47,0,0,1-.47-.5l.2-2.33a.46.46,0,0,1,.47-.43H33a.47.47,0,0,1,.46.46v2.33A.47.47,0,0,1,33,26.29Z"/><path id="path22" class="cls-9" d="M33.45,27.69V30a.47.47,0,0,1-.46.47H28.18a.47.47,0,0,1-.46-.51l.2-2.33a.47.47,0,0,1,.46-.43H33A.47.47,0,0,1,33.45,27.69Z"/><path id="path24" class="cls-9" d="M28,31.42h5a.47.47,0,0,1,.46.46v2.33a.47.47,0,0,1-.46.47H27.83a.47.47,0,0,1-.47-.5l.2-2.33A.46.46,0,0,1,28,31.42Z"/><path id="path26" class="cls-9" d="M33.45,36.08v2.33a.47.47,0,0,1-.46.47H27.47a.47.47,0,0,1-.46-.51l.2-2.33a.47.47,0,0,1,.46-.43H33A.47.47,0,0,1,33.45,36.08Z"/><path id="path28" class="cls-9" d="M34.85,35.61h5.31a.47.47,0,0,1,.47.43l.2,2.33a.48.48,0,0,1-.47.51H34.85a.47.47,0,0,1-.47-.47V36.08a.47.47,0,0,1,.47-.47Z"/><path id="path30" class="cls-9" d="M34.38,34.21V31.88a.47.47,0,0,1,.47-.46h5a.46.46,0,0,1,.46.43l.2,2.33a.46.46,0,0,1-.46.5H34.85a.47.47,0,0,1-.47-.47Z"/><path id="path32" class="cls-9" d="M41.68,31.42h4.75a.46.46,0,0,1,.46.39l.39,2.33a.46.46,0,0,1-.46.54H41.88a.47.47,0,0,1-.47-.43l-.19-2.33a.46.46,0,0,1,.46-.5Z"/><path id="path34" class="cls-9" d="M45.49,23.42l.39,2.33a.46.46,0,0,1-.46.54H41.17a.47.47,0,0,1-.47-.43l-.19-2.33A.46.46,0,0,1,41,23H45a.45.45,0,0,1,.46.39Z"/><path id="path36" class="cls-9" d="M22.34,23.42A.46.46,0,0,1,22.8,23h4.06a.46.46,0,0,1,.47.5l-.2,2.33a.46.46,0,0,1-.46.43H22.41a.47.47,0,0,1-.46-.54Z"/><path id="path38" class="cls-9" d="M20.16,38.55a.92.92,0,0,1-.21-.76l.3-1.79a.46.46,0,0,1,.45-.39h5.1a.48.48,0,0,1,.47.51l-.2,2.33a.47.47,0,0,1-.47.43H20.87A.91.91,0,0,1,20.16,38.55Z"/><path id="path40" class="cls-9" d="M47.68,38.55a.94.94,0,0,1-.71.33H42.23a.47.47,0,0,1-.46-.43l-.2-2.33a.47.47,0,0,1,.46-.51h5.1a.47.47,0,0,1,.46.39l.3,1.79a1,1,0,0,1-.21.76Z"/></g><path id="path44" class="cls-10" d="M32.05,44.94V44a.47.47,0,0,1,.47-.46H30.19a.47.47,0,0,0-.47.46v.94a.47.47,0,0,0,.47.46h2.33A.47.47,0,0,1,32.05,44.94Z"/></g></g><g id="g39"><path id="path2" class="cls-11" d="M45.27,47.84h26.9v25H45.27Z"/><path id="path4-2" data-name="path4" class="cls-12" d="M44.31,46.88H70.25v24H44.31Z"/><path id="path6-2" data-name="path6" class="cls-13" d="M44.31,46.88H70.25v5.76H44.31Z"/><g id="g20"><path id="path8-2" data-name="path8" class="cls-14" d="M49.6,46.88V46.4a.48.48,0,0,0-.48-.48.47.47,0,0,0-.48.48v1.92a.47.47,0,0,0,.48.48.49.49,0,0,1,.48.48.48.48,0,0,1-.48.48,1.45,1.45,0,0,1-1.45-1.44V46.4a1.45,1.45,0,0,1,2.89,0v.48Z"/><path id="path10-2" data-name="path10" class="cls-14" d="M53.44,46.88V46.4a.48.48,0,0,0-.48-.48.47.47,0,0,0-.48.48v1.92a.47.47,0,0,0,.48.48.49.49,0,0,1,.48.48.48.48,0,0,1-.48.48,1.43,1.43,0,0,1-1.44-1.44V46.4a1.44,1.44,0,0,1,2.88,0v.48Z"/><path id="path12-2" data-name="path12" class="cls-14" d="M62.08,46.88V46.4a.47.47,0,0,0-.48-.48.48.48,0,0,0-.48.48v1.92a.48.48,0,0,0,.48.48.48.48,0,0,1,.48.48.47.47,0,0,1-.48.48,1.44,1.44,0,0,1-1.44-1.44V46.4a1.44,1.44,0,0,1,2.88,0v.48Z"/><path id="path14-2" data-name="path14" class="cls-14" d="M65.92,46.88V46.4a.47.47,0,0,0-.48-.48.48.48,0,0,0-.48.48v1.92a.48.48,0,0,0,.48.48.48.48,0,0,1,.48.48.47.47,0,0,1-.48.48A1.44,1.44,0,0,1,64,48.32V46.4a1.44,1.44,0,0,1,2.88,0v.48Z"/><path id="path16-2" data-name="path16" class="cls-14" d="M62.78,56.54a.48.48,0,0,0-.5,0l-3.84,2.75a.48.48,0,0,0,.56.79l3.08-2.21v8.67a.49.49,0,0,0,.48.48.48.48,0,0,0,.48-.48V57A.47.47,0,0,0,62.78,56.54Z"/><path id="path18-2" data-name="path18" class="cls-14" d="M57.28,59.37a2.88,2.88,0,1,0-5.76,0,.48.48,0,0,0,.48.48.49.49,0,0,0,.48-.48,1.92,1.92,0,1,1,1.92,1.92.47.47,0,0,0-.48.48.48.48,0,0,0,.48.48,1.92,1.92,0,1,1-1.92,1.92.48.48,0,0,0-.48-.48.47.47,0,0,0-.48.48A2.88,2.88,0,1,0,56,61.77,2.91,2.91,0,0,0,57.28,59.37Z"/></g></g></g></g></svg>